{"glyphs":{"0":{"ha":814,"x_min":0,"x_max":0,"o":"m 407 -17 b 69 435 156 -17 69 119 b 407 885 69 750 156 885 b 744 435 658 885 744 750 b 407 -17 744 119 658 -17 m 407 743 b 225 435 265 743 225 651 b 407 125 225 215 265 125 b 589 435 549 125 589 215 b 407 743 589 651 549 743 "},"1":{"ha":478,"x_min":0,"x_max":0,"o":"m 347 885 l 347 0 l 190 0 l 190 726 l 18 721 l 18 814 l 272 885 "},"2":{"ha":722,"x_min":0,"x_max":0,"o":"m 489 613 b 328 743 489 697 451 743 b 101 697 238 743 163 722 l 101 843 b 340 885 154 865 253 885 b 649 626 604 885 649 751 b 263 143 649 461 547 361 l 663 144 l 663 0 l 53 0 l 53 104 b 489 613 422 390 489 504 "},"3":{"ha":811,"x_min":0,"x_max":0,"o":"m 329 742 b 68 689 236 742 153 725 l 68 838 b 346 885 125 865 239 885 b 713 600 607 885 713 774 b 578 375 713 494 656 413 b 746 132 675 350 746 260 b 347 -190 746 -58 633 -190 b 67 -143 240 -190 131 -172 l 67 6 b 342 -46 154 -32 246 -46 b 583 132 522 -46 583 29 b 378 294 583 254 515 294 l 183 294 l 183 436 l 381 436 b 550 585 494 436 550 497 b 329 742 550 686 489 742 "},"4":{"ha":832,"x_min":0,"x_max":0,"o":"m 660 226 l 789 226 l 789 81 l 660 81 l 660 -174 l 507 -174 l 507 81 l 46 81 l 46 183 l 539 885 l 660 885 m 507 226 l 510 625 l 232 224 "},"5":{"ha":811,"x_min":0,"x_max":0,"o":"m 342 -190 b 76 -144 233 -190 132 -171 l 76 -4 b 333 -49 129 -25 219 -49 b 569 149 449 -49 569 -19 b 360 310 569 304 465 310 l 111 310 l 111 868 l 710 868 l 710 724 l 265 724 l 265 449 b 385 453 288 451 365 453 b 729 149 564 453 729 419 b 342 -190 729 -154 510 -190 "},"6":{"ha":822,"x_min":0,"x_max":0,"o":"m 488 914 b 221 544 276 914 225 764 b 454 657 263 610 344 657 b 760 319 724 657 760 467 b 428 -17 760 172 715 -17 b 74 463 133 -17 74 160 b 475 1058 74 815 144 1058 b 725 1010 603 1058 688 1029 l 725 864 b 488 914 668 893 590 914 m 604 319 b 432 518 604 417 575 518 b 233 319 275 518 233 425 b 424 122 233 213 274 122 b 604 319 569 122 604 222 "},"7":{"ha":751,"x_min":0,"x_max":0,"o":"m 115 -174 l 563 728 l 35 725 l 35 868 l 714 868 l 714 768 l 300 -174 "},"8":{"ha":811,"x_min":0,"x_max":0,"o":"m 406 604 b 574 760 524 604 574 678 b 406 922 574 844 528 922 b 238 760 283 922 238 844 b 406 604 238 678 288 604 m 406 119 b 611 299 567 119 611 215 b 406 475 611 414 543 475 b 200 299 268 475 200 414 b 406 119 200 215 244 119 m 406 -17 b 46 297 161 -17 46 110 b 206 549 46 415 114 518 b 79 767 133 585 79 664 b 406 1058 79 935 171 1058 b 732 767 640 1058 732 935 b 606 549 732 664 678 585 b 765 297 697 518 765 415 b 406 -17 765 110 650 -17 "},"9":{"ha":822,"x_min":0,"x_max":0,"o":"m 342 -46 b 607 324 553 -46 604 104 b 375 211 567 258 485 211 b 69 549 106 211 69 401 b 401 885 69 696 114 885 b 756 406 697 885 756 708 b 354 -190 756 53 685 -190 b 97 -142 226 -190 135 -161 l 97 4 b 342 -46 156 -25 239 -46 m 225 549 b 397 350 225 451 254 350 b 596 549 553 350 596 443 b 406 746 596 656 556 746 b 225 549 260 746 225 646 "}," ":{"ha":278,"x_min":0,"x_max":0,"o":""},"A":{"ha":889,"x_min":0,"x_max":0,"o":"m 611 254 l 278 254 l 204 0 l 35 0 l 365 1054 l 524 1054 l 854 0 l 685 0 m 444 843 l 311 382 l 578 382 "},"B":{"ha":844,"x_min":0,"x_max":0,"o":"m 85 1042 l 435 1042 b 765 757 689 1042 765 918 b 640 550 765 668 719 588 b 797 306 740 521 797 425 b 443 0 797 133 713 0 l 85 0 m 240 143 l 449 143 b 631 310 594 143 631 224 b 450 475 631 417 582 475 l 240 475 m 599 750 b 439 899 599 819 575 899 l 240 899 l 240 607 l 444 607 b 599 750 569 607 599 683 "},"C":{"ha":815,"x_min":0,"x_max":0,"o":"m 71 521 b 500 1058 71 863 192 1058 b 744 1014 624 1058 694 1035 l 744 865 b 510 913 665 897 604 913 b 231 521 311 913 231 778 b 510 129 231 264 311 129 b 744 176 604 129 665 144 l 744 28 b 500 -17 694 7 624 -17 b 71 521 192 -17 71 179 "},"D":{"ha":903,"x_min":0,"x_max":0,"o":"m 85 0 l 85 1042 l 394 1042 b 836 521 740 1042 836 817 b 394 0 836 225 740 0 m 240 143 l 399 143 b 674 521 607 143 674 294 b 399 899 674 747 607 899 l 240 899 "},"E":{"ha":785,"x_min":0,"x_max":0,"o":"m 674 468 l 240 468 l 240 143 l 718 143 l 718 0 l 85 0 l 85 1042 l 718 1042 l 718 899 l 240 899 l 240 611 l 674 611 "},"F":{"ha":756,"x_min":0,"x_max":0,"o":"m 663 463 l 240 463 l 240 0 l 85 0 l 85 1042 l 707 1042 l 707 899 l 240 899 l 240 606 l 663 606 "},"G":{"ha":904,"x_min":0,"x_max":0,"o":"m 494 -17 b 71 521 185 -17 71 193 b 499 1058 71 849 185 1058 b 797 1004 642 1058 738 1033 l 797 851 b 518 913 700 892 618 913 b 231 521 304 913 231 768 b 518 129 231 265 307 129 b 667 149 582 129 636 138 l 667 433 l 482 433 l 482 574 l 822 574 l 822 47 b 494 -17 768 18 643 -17 "},"H":{"ha":903,"x_min":0,"x_max":0,"o":"m 663 0 l 663 468 l 240 468 l 240 0 l 85 0 l 85 1042 l 240 1042 l 240 611 l 663 611 l 663 1042 l 818 1042 l 818 0 "},"I":{"ha":369,"x_min":0,"x_max":0,"o":"m 107 0 l 107 1042 l 263 1042 l 263 0 "},"J":{"ha":519,"x_min":0,"x_max":0,"o":"m 31 149 b 139 132 58 140 93 132 b 267 239 214 132 267 161 l 267 1042 l 422 1042 l 422 215 b 147 -17 422 64 339 -17 b 31 0 117 -17 64 -11 "},"K":{"ha":865,"x_min":0,"x_max":0,"o":"m 322 458 l 239 358 l 240 0 l 85 0 l 85 1042 l 240 1042 l 239 558 l 614 1042 l 806 1042 l 422 581 l 840 0 l 643 0 "},"L":{"ha":728,"x_min":0,"x_max":0,"o":"m 240 143 l 693 143 l 693 0 l 85 0 l 85 1042 l 240 1042 "},"M":{"ha":1133,"x_min":0,"x_max":0,"o":"m 640 143 l 493 143 l 233 783 l 240 0 l 85 0 l 85 1042 l 285 1042 l 567 332 l 849 1042 l 1049 1042 l 1049 0 l 893 0 l 900 783 "},"N":{"ha":914,"x_min":0,"x_max":0,"o":"m 688 0 l 235 740 l 239 0 l 85 0 l 85 1042 l 226 1042 l 679 301 l 675 1042 l 829 1042 l 829 0 "},"O":{"ha":944,"x_min":0,"x_max":0,"o":"m 472 -17 b 71 521 138 -17 71 226 b 472 1058 71 815 138 1058 b 874 521 807 1058 874 815 b 472 -17 874 226 807 -17 m 472 917 b 231 521 275 917 231 768 b 472 125 231 274 275 125 b 714 521 669 125 714 274 b 472 917 714 768 669 917 "},"P":{"ha":806,"x_min":0,"x_max":0,"o":"m 240 0 l 85 0 l 85 1042 l 419 1042 b 781 715 688 1042 781 886 b 419 390 781 544 688 390 l 240 390 m 240 532 l 426 532 b 611 715 582 532 611 638 b 426 899 611 793 582 899 l 240 899 "},"Q":{"ha":944,"x_min":0,"x_max":0,"o":"m 654 28 l 979 -39 l 979 -197 l 331 0 b 71 521 115 65 71 268 b 472 1058 71 828 140 1058 b 874 521 806 1058 874 828 b 654 29 874 285 839 96 m 472 917 b 231 521 275 917 231 768 b 472 125 231 274 275 125 b 714 521 669 125 714 274 b 472 917 714 768 669 917 "},"R":{"ha":863,"x_min":0,"x_max":0,"o":"m 240 0 l 85 0 l 85 1042 l 424 1042 b 779 732 693 1042 779 921 b 610 454 779 597 738 499 l 828 0 l 646 0 l 457 424 l 240 424 m 240 565 l 446 565 b 610 732 590 565 610 647 b 446 899 610 818 590 899 l 240 899 "},"S":{"ha":826,"x_min":0,"x_max":0,"o":"m 424 606 b 767 315 640 576 767 528 b 371 -17 767 118 650 -17 b 63 43 267 -17 133 7 l 63 199 b 361 131 119 174 219 131 b 604 306 549 131 604 207 b 415 467 604 421 556 449 b 63 757 161 499 63 567 b 432 1058 63 910 149 1058 b 714 1008 567 1058 661 1035 l 714 857 b 440 911 638 890 543 911 b 222 756 278 911 222 844 b 424 606 222 643 286 624 "},"T":{"ha":772,"x_min":0,"x_max":0,"o":"m 464 899 l 464 0 l 308 0 l 308 899 l 38 899 l 38 1042 l 735 1042 l 735 899 "},"U":{"ha":911,"x_min":0,"x_max":0,"o":"m 456 -17 b 78 328 314 -17 78 36 l 78 1042 l 233 1042 l 233 342 b 456 125 233 146 369 125 b 678 342 542 125 678 146 l 678 1042 l 833 1042 l 833 328 b 456 -17 833 36 597 -17 "},"V":{"ha":889,"x_min":0,"x_max":0,"o":"m 854 1042 l 524 -12 l 365 -12 l 35 1042 l 204 1042 l 444 194 l 685 1042 "},"W":{"ha":1228,"x_min":0,"x_max":0,"o":"m 517 1042 l 711 1042 l 888 221 l 1024 1042 l 1189 1042 l 993 -12 l 803 -12 l 614 856 l 425 -12 l 235 -12 l 39 1042 l 204 1042 l 340 221 "},"X":{"ha":907,"x_min":0,"x_max":0,"o":"m 667 1042 l 851 1042 l 549 533 l 864 0 l 675 0 l 442 419 l 208 0 l 19 0 l 335 533 l 32 1042 l 217 1042 l 442 626 "},"Y":{"ha":931,"x_min":0,"x_max":0,"o":"m 544 418 l 544 0 l 386 0 l 386 418 l 32 1042 l 208 1042 l 465 556 l 722 1042 l 899 1042 "},"Z":{"ha":847,"x_min":0,"x_max":0,"o":"m 42 0 l 42 104 l 575 894 l 76 892 l 76 1042 l 785 1042 l 785 938 l 251 147 l 806 150 l 806 0 "},"Á":{"ha":889,"x_min":0,"x_max":0,"o":"m 611 254 l 278 254 l 204 0 l 35 0 l 365 1054 l 524 1054 l 854 0 l 685 0 m 444 843 l 311 382 l 578 382 m 379 1104 l 460 1257 l 647 1257 l 510 1104 "},"À":{"ha":889,"x_min":0,"x_max":0,"o":"m 611 254 l 278 254 l 204 0 l 35 0 l 365 1054 l 524 1054 l 854 0 l 685 0 m 444 843 l 311 382 l 578 382 m 379 1104 l 242 1257 l 429 1257 l 510 1104 "},"Â":{"ha":889,"x_min":0,"x_max":0,"o":"m 611 254 l 278 254 l 204 0 l 35 0 l 365 1054 l 524 1054 l 854 0 l 685 0 m 444 843 l 311 382 l 578 382 m 564 1104 l 444 1174 l 325 1104 l 189 1104 l 365 1257 l 524 1257 l 700 1104 "},"Ä":{"ha":889,"x_min":0,"x_max":0,"o":"m 611 254 l 278 254 l 204 0 l 35 0 l 365 1054 l 524 1054 l 854 0 l 685 0 m 444 843 l 311 382 l 578 382 m 196 1181 b 297 1282 196 1236 242 1282 b 399 1181 353 1282 399 1236 b 297 1079 399 1125 353 1079 b 196 1181 242 1079 196 1125 m 490 1181 b 592 1282 490 1236 536 1282 b 693 1181 647 1282 693 1236 b 592 1079 693 1125 647 1079 b 490 1181 536 1079 490 1125 "},"Ã":{"ha":889,"x_min":0,"x_max":0,"o":"m 611 254 l 278 254 l 204 0 l 35 0 l 365 1054 l 524 1054 l 854 0 l 685 0 m 719 1257 b 554 1079 719 1142 665 1079 b 331 1167 453 1079 400 1167 b 268 1104 278 1167 268 1132 l 169 1104 b 335 1282 169 1219 224 1282 b 558 1194 436 1282 489 1194 b 621 1257 611 1194 621 1229 m 444 843 l 311 382 l 578 382 "},"Å":{"ha":889,"x_min":0,"x_max":0,"o":"m 611 254 l 278 254 l 204 0 l 35 0 l 365 1054 l 524 1054 l 854 0 l 685 0 m 444 843 l 311 382 l 578 382 m 306 1181 b 444 1294 306 1268 367 1294 b 583 1181 522 1294 583 1268 b 444 1067 583 1093 522 1067 b 306 1181 367 1067 306 1093 m 492 1181 b 444 1204 492 1196 476 1204 b 397 1181 413 1204 397 1196 b 444 1157 397 1165 413 1157 b 492 1181 476 1157 492 1165 "},"Ǎ":{"ha":889,"x_min":0,"x_max":0,"o":"m 611 254 l 278 254 l 204 0 l 35 0 l 365 1054 l 524 1054 l 854 0 l 685 0 m 444 843 l 311 382 l 578 382 m 325 1257 l 444 1188 l 564 1257 l 700 1257 l 524 1104 l 365 1104 l 189 1257 "},"Ā":{"ha":889,"x_min":0,"x_max":0,"o":"m 611 254 l 278 254 l 204 0 l 35 0 l 365 1054 l 524 1054 l 854 0 l 685 0 m 444 843 l 311 382 l 578 382 m 242 1242 l 647 1242 l 647 1118 l 242 1118 "},"Ă":{"ha":889,"x_min":0,"x_max":0,"o":"m 611 254 l 278 254 l 204 0 l 35 0 l 365 1054 l 524 1054 l 854 0 l 685 0 m 444 843 l 311 382 l 578 382 m 444 1079 b 219 1257 274 1079 215 1129 l 338 1257 b 444 1181 336 1199 369 1181 b 551 1257 519 1181 553 1199 l 669 1257 b 444 1079 674 1129 615 1079 "},"Ȃ":{"ha":889,"x_min":0,"x_max":0,"o":"m 611 254 l 278 254 l 204 0 l 35 0 l 365 1054 l 524 1054 l 854 0 l 685 0 m 444 843 l 311 382 l 578 382 m 444 1282 b 669 1104 615 1282 674 1232 l 551 1104 b 444 1181 553 1163 519 1181 b 338 1104 369 1181 336 1163 l 219 1104 b 444 1282 215 1232 274 1282 "},"":{"ha":889,"x_min":0,"x_max":0,"o":"m 611 254 l 278 254 l 204 0 l 35 0 l 365 1054 l 524 1054 l 854 0 l 685 0 m 444 843 l 311 382 l 578 382 m 261 1104 l 124 1257 l 311 1257 l 392 1104 m 497 1104 l 360 1257 l 547 1257 l 628 1104 "},"":{"ha":889,"x_min":0,"x_max":0,"o":"m 611 254 l 278 254 l 204 0 l 35 0 l 365 1054 l 524 1054 l 854 0 l 685 0 m 444 843 l 311 382 l 578 382 m 343 1181 b 444 1282 343 1236 389 1282 b 546 1181 500 1282 546 1236 b 444 1079 546 1125 500 1079 b 343 1181 389 1079 343 1125 "},"Ǻ":{"ha":889,"x_min":0,"x_max":0,"o":"m 278 254 l 204 0 l 35 0 l 365 1054 l 524 1054 l 854 0 l 685 0 l 611 254 m 306 1181 b 317 1236 306 1203 310 1221 l 383 1375 l 522 1375 l 468 1293 b 583 1181 540 1290 583 1253 b 444 1067 583 1093 522 1067 b 306 1181 367 1067 306 1093 m 444 843 l 311 382 l 578 382 m 492 1181 b 444 1204 492 1196 476 1204 b 397 1181 413 1204 397 1196 b 444 1157 397 1165 413 1157 b 492 1181 476 1157 492 1165 "},"Ǟ":{"ha":889,"x_min":0,"x_max":0,"o":"m 611 254 l 278 254 l 204 0 l 35 0 l 365 1054 l 524 1054 l 854 0 l 685 0 m 444 843 l 311 382 l 578 382 m 242 1436 l 647 1436 l 647 1313 l 242 1313 m 196 1181 b 297 1282 196 1236 242 1282 b 399 1181 353 1282 399 1236 b 297 1079 399 1125 353 1079 b 196 1181 242 1079 196 1125 m 490 1181 b 592 1282 490 1236 536 1282 b 693 1181 647 1282 693 1236 b 592 1079 693 1125 647 1079 b 490 1181 536 1079 490 1125 "},"Ą":{"ha":889,"x_min":0,"x_max":0,"o":"m 278 254 l 204 0 l 35 0 l 365 1054 l 524 1054 l 854 0 b 707 -174 778 -35 707 -89 b 785 -244 707 -215 735 -244 b 872 -232 824 -244 856 -237 l 872 -326 b 754 -347 850 -335 814 -347 b 583 -196 661 -347 583 -296 b 688 -11 583 -139 608 -71 l 611 254 m 444 843 l 311 382 l 578 382 "},"":{"ha":889,"x_min":0,"x_max":0,"o":"m 444 843 l 204 0 l 35 0 l 365 1054 l 524 1054 l 854 0 l 685 0 "},"Æ":{"ha":1311,"x_min":0,"x_max":0,"o":"m 1228 468 l 806 468 l 856 143 l 1272 143 l 1272 0 l 707 0 l 671 254 l 315 254 l 200 0 l 21 0 b 528 1042 189 347 358 694 l 1272 1042 l 1272 899 l 739 899 l 783 611 l 1228 611 m 372 382 l 653 382 l 586 853 "},"Ǽ":{"ha":1311,"x_min":0,"x_max":0,"o":"m 1228 468 l 806 468 l 856 143 l 1272 143 l 1272 0 l 707 0 l 671 254 l 315 254 l 200 0 l 21 0 b 528 1042 189 347 358 694 l 1272 1042 l 1272 899 l 739 899 l 783 611 l 1228 611 m 372 382 l 653 382 l 586 853 m 571 1104 l 651 1257 l 839 1257 l 701 1104 "},"Ǣ":{"ha":1311,"x_min":0,"x_max":0,"o":"m 1228 468 l 806 468 l 856 143 l 1272 143 l 1272 0 l 707 0 l 671 254 l 315 254 l 200 0 l 21 0 b 528 1042 189 347 358 694 l 1272 1042 l 1272 899 l 739 899 l 783 611 l 1228 611 m 372 382 l 653 382 l 586 853 m 433 1242 l 839 1242 l 839 1118 l 433 1118 "},"Ć":{"ha":815,"x_min":0,"x_max":0,"o":"m 71 521 b 500 1058 71 863 192 1058 b 744 1014 624 1058 694 1035 l 744 865 b 510 913 665 897 604 913 b 231 521 311 913 231 778 b 510 129 231 264 311 129 b 744 176 604 129 665 144 l 744 28 b 500 -17 694 7 624 -17 b 71 521 192 -17 71 179 m 411 1104 l 492 1257 l 679 1257 l 542 1104 "},"Ĉ":{"ha":815,"x_min":0,"x_max":0,"o":"m 71 521 b 500 1058 71 863 192 1058 b 744 1014 624 1058 694 1035 l 744 865 b 510 913 665 897 604 913 b 231 521 311 913 231 778 b 510 129 231 264 311 129 b 744 176 604 129 665 144 l 744 28 b 500 -17 694 7 624 -17 b 71 521 192 -17 71 179 m 596 1104 l 476 1174 l 357 1104 l 221 1104 l 397 1257 l 556 1257 l 732 1104 "},"Č":{"ha":815,"x_min":0,"x_max":0,"o":"m 71 521 b 500 1058 71 863 192 1058 b 744 1014 624 1058 694 1035 l 744 865 b 510 913 665 897 604 913 b 231 521 311 913 231 778 b 510 129 231 264 311 129 b 744 176 604 129 665 144 l 744 28 b 500 -17 694 7 624 -17 b 71 521 192 -17 71 179 m 357 1257 l 476 1188 l 596 1257 l 732 1257 l 556 1104 l 397 1104 l 221 1257 "},"Ċ":{"ha":815,"x_min":0,"x_max":0,"o":"m 71 521 b 500 1058 71 863 192 1058 b 744 1014 624 1058 694 1035 l 744 865 b 510 913 665 897 604 913 b 231 521 311 913 231 778 b 510 129 231 264 311 129 b 744 176 604 129 665 144 l 744 28 b 500 -17 694 7 624 -17 b 71 521 192 -17 71 179 m 375 1181 b 476 1282 375 1236 421 1282 b 578 1181 532 1282 578 1236 b 476 1079 578 1125 532 1079 b 375 1181 421 1079 375 1125 "},"Ç":{"ha":815,"x_min":0,"x_max":0,"o":"m 422 -11 b 71 521 171 19 71 210 b 500 1058 71 863 192 1058 b 744 1014 624 1058 694 1035 l 744 865 b 510 913 665 897 604 913 b 231 521 311 913 231 778 b 510 129 231 264 311 129 b 744 176 604 129 665 144 l 744 28 b 500 -17 694 7 624 -17 l 504 -83 b 633 -212 575 -100 633 -136 b 468 -347 633 -301 565 -347 b 333 -321 400 -347 353 -331 l 333 -215 b 447 -240 347 -221 394 -240 b 522 -199 494 -240 522 -229 b 410 -131 522 -156 486 -140 "},"Ď":{"ha":903,"x_min":0,"x_max":0,"o":"m 85 0 l 85 1042 l 394 1042 b 836 521 740 1042 836 817 b 394 0 836 225 740 0 m 240 143 l 399 143 b 674 521 607 143 674 294 b 399 899 674 747 607 899 l 240 899 m 293 1257 l 413 1188 l 532 1257 l 668 1257 l 492 1104 l 333 1104 l 157 1257 "},"Ḑ":{"ha":903,"x_min":0,"x_max":0,"o":"m 85 0 l 85 1042 l 394 1042 b 836 521 740 1042 836 817 b 394 0 836 225 740 0 m 240 143 l 399 143 b 674 521 607 143 674 294 b 399 899 674 747 607 899 l 240 899 m 350 -61 b 567 -212 511 -75 567 -137 b 401 -347 567 -301 499 -347 b 267 -321 333 -347 286 -331 l 267 -215 b 381 -240 281 -221 328 -240 b 456 -199 428 -240 456 -229 b 343 -131 456 -156 419 -140 "},"Ḍ":{"ha":903,"x_min":0,"x_max":0,"o":"m 85 0 l 85 1042 l 394 1042 b 836 521 740 1042 836 817 b 394 0 836 225 740 0 m 240 143 l 399 143 b 674 521 607 143 674 294 b 399 899 674 747 607 899 l 240 899 m 517 -206 b 415 -307 517 -261 471 -307 b 314 -206 360 -307 314 -261 b 415 -104 314 -150 360 -104 b 517 -206 471 -104 517 -150 "},"Đ":{"ha":965,"x_min":0,"x_max":0,"o":"m 147 0 l 147 465 l 26 465 l 26 597 l 147 597 l 147 1042 l 457 1042 b 899 521 803 1042 899 817 b 457 0 899 225 803 0 m 303 597 l 522 597 l 522 465 l 303 465 l 303 143 l 461 143 b 736 521 669 143 736 294 b 461 899 736 747 669 899 l 303 899 "},"É":{"ha":785,"x_min":0,"x_max":0,"o":"m 674 468 l 240 468 l 240 143 l 718 143 l 718 0 l 85 0 l 85 1042 l 718 1042 l 718 899 l 240 899 l 240 611 l 674 611 m 347 1104 l 428 1257 l 615 1257 l 478 1104 "},"È":{"ha":785,"x_min":0,"x_max":0,"o":"m 674 468 l 240 468 l 240 143 l 718 143 l 718 0 l 85 0 l 85 1042 l 718 1042 l 718 899 l 240 899 l 240 611 l 674 611 m 347 1104 l 210 1257 l 397 1257 l 478 1104 "},"Ê":{"ha":785,"x_min":0,"x_max":0,"o":"m 674 468 l 240 468 l 240 143 l 718 143 l 718 0 l 85 0 l 85 1042 l 718 1042 l 718 899 l 240 899 l 240 611 l 674 611 m 532 1104 l 413 1174 l 293 1104 l 157 1104 l 333 1257 l 492 1257 l 668 1104 "},"Ë":{"ha":785,"x_min":0,"x_max":0,"o":"m 674 468 l 240 468 l 240 143 l 718 143 l 718 0 l 85 0 l 85 1042 l 718 1042 l 718 899 l 240 899 l 240 611 l 674 611 m 164 1181 b 265 1282 164 1236 210 1282 b 367 1181 321 1282 367 1236 b 265 1079 367 1125 321 1079 b 164 1181 210 1079 164 1125 m 458 1181 b 560 1282 458 1236 504 1282 b 661 1181 615 1282 661 1236 b 560 1079 661 1125 615 1079 b 458 1181 504 1079 458 1125 "},"Ě":{"ha":785,"x_min":0,"x_max":0,"o":"m 674 468 l 240 468 l 240 143 l 718 143 l 718 0 l 85 0 l 85 1042 l 718 1042 l 718 899 l 240 899 l 240 611 l 674 611 m 293 1257 l 413 1188 l 532 1257 l 668 1257 l 492 1104 l 333 1104 l 157 1257 "},"Ē":{"ha":785,"x_min":0,"x_max":0,"o":"m 674 468 l 240 468 l 240 143 l 718 143 l 718 0 l 85 0 l 85 1042 l 718 1042 l 718 899 l 240 899 l 240 611 l 674 611 m 210 1242 l 615 1242 l 615 1118 l 210 1118 "},"Ĕ":{"ha":785,"x_min":0,"x_max":0,"o":"m 674 468 l 240 468 l 240 143 l 718 143 l 718 0 l 85 0 l 85 1042 l 718 1042 l 718 899 l 240 899 l 240 611 l 674 611 m 413 1079 b 188 1257 242 1079 183 1129 l 306 1257 b 413 1181 304 1199 338 1181 b 519 1257 488 1181 521 1199 l 638 1257 b 413 1079 642 1129 583 1079 "},"Ȇ":{"ha":785,"x_min":0,"x_max":0,"o":"m 674 468 l 240 468 l 240 143 l 718 143 l 718 0 l 85 0 l 85 1042 l 718 1042 l 718 899 l 240 899 l 240 611 l 674 611 m 413 1282 b 638 1104 583 1282 642 1232 l 519 1104 b 413 1181 521 1163 488 1181 b 306 1104 338 1181 304 1163 l 188 1104 b 413 1282 183 1232 242 1282 "},"":{"ha":785,"x_min":0,"x_max":0,"o":"m 674 468 l 240 468 l 240 143 l 718 143 l 718 0 l 85 0 l 85 1042 l 718 1042 l 718 899 l 240 899 l 240 611 l 674 611 m 465 1104 l 328 1257 l 515 1257 l 596 1104 m 229 1104 l 92 1257 l 279 1257 l 360 1104 "},"Ė":{"ha":785,"x_min":0,"x_max":0,"o":"m 674 468 l 240 468 l 240 143 l 718 143 l 718 0 l 85 0 l 85 1042 l 718 1042 l 718 899 l 240 899 l 240 611 l 674 611 m 311 1181 b 413 1282 311 1236 357 1282 b 514 1181 468 1282 514 1236 b 413 1079 514 1125 468 1079 b 311 1181 357 1079 311 1125 "},"":{"ha":785,"x_min":0,"x_max":0,"o":"m 674 468 l 240 468 l 240 143 l 718 143 l 718 0 l 85 0 l 85 1042 l 718 1042 l 718 899 l 240 899 l 240 611 l 674 611 m 514 -206 b 413 -307 514 -261 468 -307 b 311 -206 357 -307 311 -261 b 413 -104 311 -150 357 -104 b 514 -206 468 -104 514 -150 m 347 1104 l 428 1257 l 615 1257 l 478 1104 "},"":{"ha":785,"x_min":0,"x_max":0,"o":"m 674 468 l 240 468 l 240 143 l 718 143 l 718 0 l 85 0 l 85 1042 l 718 1042 l 718 899 l 240 899 l 240 611 l 674 611 m 514 -206 b 413 -307 514 -261 468 -307 b 311 -206 357 -307 311 -261 b 413 -104 311 -150 357 -104 b 514 -206 468 -104 514 -150 m 347 1104 l 210 1257 l 397 1257 l 478 1104 "},"Ę":{"ha":785,"x_min":0,"x_max":0,"o":"m 674 468 l 240 468 l 240 143 l 718 143 l 718 0 b 571 -174 642 -35 571 -89 b 649 -244 571 -215 599 -244 b 736 -232 688 -244 719 -237 l 736 -326 b 618 -347 714 -335 678 -347 b 447 -196 525 -347 447 -296 b 565 0 447 -135 475 -62 l 85 0 l 85 1042 l 718 1042 l 718 899 l 240 899 l 240 611 l 674 611 "},"Ǵ":{"ha":903,"x_min":0,"x_max":0,"o":"m 494 -17 b 71 521 185 -17 71 193 b 499 1058 71 849 185 1058 b 797 1004 642 1058 738 1033 l 797 851 b 518 913 700 892 618 913 b 231 521 304 913 231 768 b 518 129 231 265 307 129 b 667 149 582 129 636 138 l 667 433 l 482 433 l 482 574 l 822 574 l 822 47 b 494 -17 768 18 643 -17 m 424 1104 l 504 1257 l 692 1257 l 554 1104 "},"Ĝ":{"ha":903,"x_min":0,"x_max":0,"o":"m 494 -17 b 71 521 185 -17 71 193 b 499 1058 71 849 185 1058 b 797 1004 642 1058 738 1033 l 797 851 b 518 913 700 892 618 913 b 231 521 304 913 231 768 b 518 129 231 265 307 129 b 667 149 582 129 636 138 l 667 433 l 482 433 l 482 574 l 822 574 l 822 47 b 494 -17 768 18 643 -17 m 608 1104 l 489 1174 l 369 1104 l 233 1104 l 410 1257 l 568 1257 l 744 1104 "},"":{"ha":903,"x_min":0,"x_max":0,"o":"m 494 -17 b 71 521 185 -17 71 193 b 499 1058 71 849 185 1058 b 797 1004 642 1058 738 1033 l 797 851 b 518 913 700 892 618 913 b 231 521 304 913 231 768 b 518 129 231 265 307 129 b 667 149 582 129 636 138 l 667 433 l 482 433 l 482 574 l 822 574 l 822 47 b 494 -17 768 18 643 -17 m 764 1257 b 599 1079 764 1142 710 1079 b 375 1167 497 1079 444 1167 b 313 1104 322 1167 313 1132 l 214 1104 b 379 1282 214 1219 268 1282 b 603 1194 481 1282 533 1194 b 665 1257 656 1194 665 1229 "},"Ǧ":{"ha":903,"x_min":0,"x_max":0,"o":"m 494 -17 b 71 521 185 -17 71 193 b 499 1058 71 849 185 1058 b 797 1004 642 1058 738 1033 l 797 851 b 518 913 700 892 618 913 b 231 521 304 913 231 768 b 518 129 231 265 307 129 b 667 149 582 129 636 138 l 667 433 l 482 433 l 482 574 l 822 574 l 822 47 b 494 -17 768 18 643 -17 m 369 1257 l 489 1188 l 608 1257 l 744 1257 l 568 1104 l 410 1104 l 233 1257 "},"Ğ":{"ha":903,"x_min":0,"x_max":0,"o":"m 494 -17 b 71 521 185 -17 71 193 b 499 1058 71 849 185 1058 b 797 1004 642 1058 738 1033 l 797 851 b 518 913 700 892 618 913 b 231 521 304 913 231 768 b 518 129 231 265 307 129 b 667 149 582 129 636 138 l 667 433 l 482 433 l 482 574 l 822 574 l 822 47 b 494 -17 768 18 643 -17 m 489 1079 b 264 1257 318 1079 260 1129 l 382 1257 b 489 1181 381 1199 414 1181 b 596 1257 564 1181 597 1199 l 714 1257 b 489 1079 718 1129 660 1079 "},"Ġ":{"ha":903,"x_min":0,"x_max":0,"o":"m 494 -17 b 71 521 185 -17 71 193 b 499 1058 71 849 185 1058 b 797 1004 642 1058 738 1033 l 797 851 b 518 913 700 892 618 913 b 231 521 304 913 231 768 b 518 129 231 265 307 129 b 667 149 582 129 636 138 l 667 433 l 482 433 l 482 574 l 822 574 l 822 47 b 494 -17 768 18 643 -17 m 388 1181 b 489 1282 388 1236 433 1282 b 590 1181 544 1282 590 1236 b 489 1079 590 1125 544 1079 b 388 1181 433 1079 388 1125 "},"":{"ha":903,"x_min":0,"x_max":0,"o":"m 624 1257 l 576 1104 l 390 1104 l 507 1257 m 494 -17 b 71 521 185 -17 71 193 b 499 1058 71 849 185 1058 b 797 1004 642 1058 738 1033 l 797 851 b 518 913 700 892 618 913 b 231 521 304 913 231 768 b 518 129 231 265 307 129 b 667 149 582 129 636 138 l 667 433 l 482 433 l 482 574 l 822 574 l 822 47 b 494 -17 768 18 643 -17 "},"Ģ":{"ha":903,"x_min":0,"x_max":0,"o":"m 594 -69 l 506 -347 l 382 -347 l 410 -69 m 494 -17 b 71 521 185 -17 71 193 b 499 1058 71 849 185 1058 b 797 1004 642 1058 738 1033 l 797 851 b 518 913 700 892 618 913 b 231 521 304 913 231 768 b 518 129 231 265 307 129 b 667 149 582 129 636 138 l 667 433 l 482 433 l 482 574 l 822 574 l 822 47 b 494 -17 768 18 643 -17 "},"Ǥ":{"ha":957,"x_min":0,"x_max":0,"o":"m 494 -17 b 71 521 185 -17 71 193 b 499 1058 71 849 185 1058 b 797 1004 642 1058 738 1033 l 797 851 b 518 913 700 892 618 913 b 231 521 304 913 231 768 b 518 129 231 265 307 129 b 667 149 582 129 636 138 l 667 233 l 504 233 l 504 357 l 667 357 l 667 433 l 482 433 l 482 574 l 822 574 l 822 357 l 929 357 l 929 233 l 822 233 l 822 47 b 494 -17 768 18 643 -17 "},"Ĥ":{"ha":903,"x_min":0,"x_max":0,"o":"m 663 0 l 663 468 l 240 468 l 240 0 l 85 0 l 85 1042 l 240 1042 l 240 611 l 663 611 l 663 1042 l 818 1042 l 818 0 m 571 1104 l 451 1174 l 332 1104 l 196 1104 l 372 1257 l 531 1257 l 707 1104 "},"":{"ha":903,"x_min":0,"x_max":0,"o":"m 663 0 l 663 468 l 240 468 l 240 0 l 85 0 l 85 1042 l 240 1042 l 240 611 l 663 611 l 663 1042 l 818 1042 l 818 0 m 332 1257 l 451 1188 l 571 1257 l 707 1257 l 531 1104 l 372 1104 l 196 1257 "},"Ḥ":{"ha":903,"x_min":0,"x_max":0,"o":"m 663 0 l 663 468 l 240 468 l 240 0 l 85 0 l 85 1042 l 240 1042 l 240 611 l 663 611 l 663 1042 l 818 1042 l 818 0 m 553 -206 b 451 -307 553 -261 507 -307 b 350 -206 396 -307 350 -261 b 451 -104 350 -150 396 -104 b 553 -206 507 -104 553 -150 "},"":{"ha":903,"x_min":0,"x_max":0,"o":"m 654 -269 l 249 -269 l 249 -147 l 654 -147 m 663 0 l 663 468 l 240 468 l 240 0 l 85 0 l 85 1042 l 240 1042 l 240 611 l 663 611 l 663 1042 l 818 1042 l 818 0 "},"Ħ":{"ha":903,"x_min":0,"x_max":0,"o":"m 663 0 l 663 468 l 240 468 l 240 0 l 85 0 l 85 1042 l 240 1042 l 240 881 l 663 881 l 663 1042 l 818 1042 l 818 0 m 663 611 l 663 756 l 240 756 l 240 611 "},"Í":{"ha":369,"x_min":0,"x_max":0,"o":"m 107 0 l 107 1042 l 263 1042 l 263 0 m 119 1104 l 200 1257 l 388 1257 l 250 1104 "},"Ì":{"ha":369,"x_min":0,"x_max":0,"o":"m 107 0 l 107 1042 l 263 1042 l 263 0 m 119 1104 l -18 1257 l 169 1257 l 250 1104 "},"Î":{"ha":369,"x_min":0,"x_max":0,"o":"m 107 0 l 107 1042 l 263 1042 l 263 0 m 304 1104 l 185 1174 l 65 1104 l -71 1104 l 106 1257 l 264 1257 l 440 1104 "},"Ï":{"ha":369,"x_min":0,"x_max":0,"o":"m 107 0 l 107 1042 l 263 1042 l 263 0 m -50 1181 b 51 1282 -50 1236 -4 1282 b 153 1181 107 1282 153 1236 b 51 1079 153 1125 107 1079 b -50 1181 -4 1079 -50 1125 m 217 1181 b 318 1282 217 1236 263 1282 b 419 1181 374 1282 419 1236 b 318 1079 419 1125 374 1079 b 217 1181 263 1079 217 1125 "},"Ĩ":{"ha":369,"x_min":0,"x_max":0,"o":"m 107 0 l 107 1042 l 263 1042 l 263 0 m 460 1257 b 294 1079 460 1142 406 1079 b 71 1167 193 1079 140 1167 b 8 1104 18 1167 8 1132 l -90 1104 b 75 1282 -90 1219 -36 1282 b 299 1194 176 1282 229 1194 b 361 1257 351 1194 361 1229 "},"Ǐ":{"ha":369,"x_min":0,"x_max":0,"o":"m 107 0 l 107 1042 l 263 1042 l 263 0 m 65 1257 l 185 1188 l 304 1257 l 440 1257 l 264 1104 l 106 1104 l -71 1257 "},"Ī":{"ha":369,"x_min":0,"x_max":0,"o":"m 107 0 l 107 1042 l 263 1042 l 263 0 m -18 1242 l 388 1242 l 388 1118 l -18 1118 "},"Ĭ":{"ha":369,"x_min":0,"x_max":0,"o":"m 107 0 l 107 1042 l 263 1042 l 263 0 m 185 1079 b -40 1257 14 1079 -44 1129 l 78 1257 b 185 1181 76 1199 110 1181 b 292 1257 260 1181 293 1199 l 410 1257 b 185 1079 414 1129 356 1079 "},"Ȋ":{"ha":369,"x_min":0,"x_max":0,"o":"m 107 0 l 107 1042 l 263 1042 l 263 0 m 185 1282 b 410 1104 356 1282 414 1232 l 292 1104 b 185 1181 293 1163 260 1181 b 78 1104 110 1181 76 1163 l -40 1104 b 185 1282 -44 1232 14 1282 "},"":{"ha":369,"x_min":0,"x_max":0,"o":"m 107 0 l 107 1042 l 263 1042 l 263 0 m 224 1104 l 86 1257 l 274 1257 l 354 1104 m 15 1104 l -122 1257 l 65 1257 l 146 1104 "},"İ":{"ha":369,"x_min":0,"x_max":0,"o":"m 107 0 l 107 1042 l 263 1042 l 263 0 m 83 1181 b 185 1282 83 1236 129 1282 b 286 1181 240 1282 286 1236 b 185 1079 286 1125 240 1079 b 83 1181 129 1079 83 1125 "},"Ị":{"ha":369,"x_min":0,"x_max":0,"o":"m 107 0 l 107 1042 l 263 1042 l 263 0 m 286 -206 b 185 -307 286 -261 240 -307 b 83 -206 129 -307 83 -261 b 185 -104 83 -150 129 -104 b 286 -206 240 -104 286 -150 "},"Į":{"ha":369,"x_min":0,"x_max":0,"o":"m 263 0 b 136 -174 193 -35 136 -89 b 214 -244 136 -215 164 -244 b 301 -232 253 -244 285 -237 l 301 -326 b 183 -347 279 -335 243 -347 b 13 -196 90 -347 13 -296 b 107 -7 13 -137 33 -69 l 107 1042 l 263 1042 l 263 0 "},"Ĵ":{"ha":519,"x_min":0,"x_max":0,"o":"m 31 149 b 139 132 58 140 93 132 b 267 239 214 132 267 161 l 267 1042 l 422 1042 l 422 215 b 147 -17 422 64 339 -17 b 31 0 117 -17 64 -11 m 464 1104 l 344 1174 l 225 1104 l 89 1104 l 265 1257 l 424 1257 l 600 1104 "},"":{"ha":519,"x_min":0,"x_max":0,"o":"m 31 149 b 139 132 58 140 93 132 b 267 239 214 132 267 161 l 267 1042 l 422 1042 l 422 215 b 147 -17 422 64 339 -17 b 31 0 117 -17 64 -11 m 225 1257 l 344 1188 l 464 1257 l 600 1257 l 424 1104 l 265 1104 l 89 1257 "},"Ǩ":{"ha":865,"x_min":0,"x_max":0,"o":"m 322 458 l 239 358 l 240 0 l 85 0 l 85 1042 l 240 1042 l 239 558 l 614 1042 l 806 1042 l 422 581 l 840 0 l 643 0 m 303 1257 l 422 1188 l 542 1257 l 678 1257 l 501 1104 l 343 1104 l 167 1257 "},"Ķ":{"ha":865,"x_min":0,"x_max":0,"o":"m 521 -69 l 431 -347 l 307 -347 l 336 -69 m 322 458 l 239 358 l 240 0 l 85 0 l 85 1042 l 240 1042 l 239 558 l 614 1042 l 806 1042 l 422 581 l 840 0 l 643 0 "},"":{"ha":865,"x_min":0,"x_max":0,"o":"m 322 458 l 239 358 l 240 0 l 85 0 l 85 1042 l 240 1042 l 239 558 l 614 1042 l 806 1042 l 422 581 l 840 0 l 643 0 m 364 -61 b 581 -212 525 -75 581 -137 b 415 -347 581 -301 513 -347 b 281 -321 347 -347 300 -331 l 281 -215 b 394 -240 294 -221 342 -240 b 469 -199 442 -240 469 -229 b 357 -131 469 -156 433 -140 "},"Ƙ":{"ha":865,"x_min":0,"x_max":0,"o":"m 85 1042 l 239 1042 l 239 576 b 342 682 274 596 311 628 b 781 1050 433 842 503 1050 l 781 897 b 482 610 607 897 563 761 b 442 553 471 589 456 569 l 840 0 l 643 0 l 331 446 b 239 394 299 424 269 407 l 239 0 l 85 0 "},"Ĺ":{"ha":728,"x_min":0,"x_max":0,"o":"m 240 143 l 693 143 l 693 0 l 85 0 l 85 1042 l 240 1042 m 97 1104 l 178 1257 l 365 1257 l 228 1104 "},"Ľ":{"ha":728,"x_min":0,"x_max":0,"o":"m 240 143 l 693 143 l 693 0 l 85 0 l 85 1042 l 240 1042 m 482 1042 l 415 764 l 338 764 l 360 1042 "},"Ļ":{"ha":728,"x_min":0,"x_max":0,"o":"m 240 143 l 693 143 l 693 0 l 85 0 l 85 1042 l 240 1042 m 488 -69 l 397 -347 l 274 -347 l 303 -69 "},"":{"ha":728,"x_min":0,"x_max":0,"o":"m 240 143 l 693 143 l 693 0 l 85 0 l 85 1042 l 240 1042 m 324 -61 b 540 -212 485 -75 540 -137 b 375 -347 540 -301 472 -347 b 240 -321 307 -347 260 -331 l 240 -215 b 354 -240 254 -221 301 -240 b 429 -199 401 -240 429 -229 b 317 -131 429 -156 393 -140 "},"Ḷ":{"ha":728,"x_min":0,"x_max":0,"o":"m 240 143 l 693 143 l 693 0 l 85 0 l 85 1042 l 240 1042 m 490 -206 b 389 -307 490 -261 444 -307 b 288 -206 333 -307 288 -261 b 389 -104 288 -150 333 -104 b 490 -206 444 -104 490 -150 "},"Ḹ":{"ha":728,"x_min":0,"x_max":0,"o":"m 240 143 l 693 143 l 693 0 l 85 0 l 85 1042 l 240 1042 m 490 -206 b 389 -307 490 -261 444 -307 b 288 -206 333 -307 288 -261 b 389 -104 288 -150 333 -104 b 490 -206 444 -104 490 -150 m -40 1242 l 365 1242 l 365 1118 l -40 1118 "},"Ŀ":{"ha":728,"x_min":0,"x_max":0,"o":"m 240 143 l 693 143 l 693 0 l 85 0 l 85 1042 l 240 1042 m 629 521 b 528 419 629 465 583 419 b 426 521 472 419 426 465 b 528 622 426 576 472 622 b 629 521 583 622 629 576 "},"Ł":{"ha":778,"x_min":0,"x_max":0,"o":"m 289 564 l 556 711 l 556 585 l 289 438 l 289 143 l 742 143 l 742 0 l 133 0 l 133 351 l 7 282 l 7 408 l 133 478 l 133 1042 l 289 1042 "},"":{"ha":1135,"x_min":0,"x_max":0,"o":"m 640 143 l 493 143 l 233 783 l 240 0 l 85 0 l 85 1042 l 285 1042 l 567 332 l 849 1042 l 1049 1042 l 1049 0 l 893 0 l 900 783 m 365 1242 l 771 1242 l 771 1118 l 365 1118 "},"":{"ha":1133,"x_min":0,"x_max":0,"o":"m 640 143 l 493 143 l 233 783 l 240 0 l 85 0 l 85 1042 l 285 1042 l 567 332 l 849 1042 l 1049 1042 l 1049 0 l 893 0 l 900 783 m 501 -61 b 718 -212 663 -75 718 -137 b 553 -347 718 -301 650 -347 b 418 -321 485 -347 438 -331 l 418 -215 b 532 -240 432 -221 479 -240 b 607 -199 579 -240 607 -229 b 494 -131 607 -156 571 -140 "},"Ṃ":{"ha":1133,"x_min":0,"x_max":0,"o":"m 640 143 l 493 143 l 233 783 l 240 0 l 85 0 l 85 1042 l 285 1042 l 567 332 l 849 1042 l 1049 1042 l 1049 0 l 893 0 l 900 783 m 668 -206 b 567 -307 668 -261 622 -307 b 465 -206 511 -307 465 -261 b 567 -104 465 -150 511 -104 b 668 -206 622 -104 668 -150 "},"Ń":{"ha":914,"x_min":0,"x_max":0,"o":"m 688 0 l 235 740 l 239 0 l 85 0 l 85 1042 l 226 1042 l 679 301 l 675 1042 l 829 1042 l 829 0 m 392 1104 l 472 1257 l 660 1257 l 522 1104 "},"":{"ha":914,"x_min":0,"x_max":0,"o":"m 688 0 l 235 740 l 239 0 l 85 0 l 85 1042 l 226 1042 l 679 301 l 675 1042 l 829 1042 l 829 0 m 392 1104 l 254 1257 l 442 1257 l 522 1104 "},"":{"ha":914,"x_min":0,"x_max":0,"o":"m 688 0 l 235 740 l 239 0 l 85 0 l 85 1042 l 226 1042 l 679 301 l 675 1042 l 829 1042 l 829 0 m 208 1181 b 310 1282 208 1236 254 1282 b 411 1181 365 1282 411 1236 b 310 1079 411 1125 365 1079 b 208 1181 254 1079 208 1125 m 503 1181 b 604 1282 503 1236 549 1282 b 706 1181 660 1282 706 1236 b 604 1079 706 1125 660 1079 b 503 1181 549 1079 503 1125 "},"Ñ":{"ha":914,"x_min":0,"x_max":0,"o":"m 688 0 l 235 740 l 239 0 l 85 0 l 85 1042 l 226 1042 l 679 301 l 675 1042 l 829 1042 l 829 0 m 732 1257 b 567 1079 732 1142 678 1079 b 343 1167 465 1079 413 1167 b 281 1104 290 1167 281 1132 l 182 1104 b 347 1282 182 1219 236 1282 b 571 1194 449 1282 501 1194 b 633 1257 624 1194 633 1229 "},"Ň":{"ha":914,"x_min":0,"x_max":0,"o":"m 688 0 l 235 740 l 239 0 l 85 0 l 85 1042 l 226 1042 l 679 301 l 675 1042 l 829 1042 l 829 0 m 338 1257 l 457 1188 l 576 1257 l 713 1257 l 536 1104 l 378 1104 l 201 1257 "},"":{"ha":914,"x_min":0,"x_max":0,"o":"m 688 0 l 235 740 l 239 0 l 85 0 l 85 1042 l 226 1042 l 679 301 l 675 1042 l 829 1042 l 829 0 m 254 1242 l 660 1242 l 660 1118 l 254 1118 "},"Ṅ":{"ha":914,"x_min":0,"x_max":0,"o":"m 688 0 l 235 740 l 239 0 l 85 0 l 85 1042 l 226 1042 l 679 301 l 675 1042 l 829 1042 l 829 0 m 356 1181 b 457 1282 356 1236 401 1282 b 558 1181 513 1282 558 1236 b 457 1079 558 1125 513 1079 b 356 1181 401 1079 356 1125 "},"Ņ":{"ha":914,"x_min":0,"x_max":0,"o":"m 688 0 l 235 740 l 239 0 l 85 0 l 85 1042 l 226 1042 l 679 301 l 675 1042 l 829 1042 l 829 0 m 556 -69 l 465 -347 l 342 -347 l 371 -69 "},"":{"ha":914,"x_min":0,"x_max":0,"o":"m 688 0 l 235 740 l 239 0 l 85 0 l 85 1042 l 226 1042 l 679 301 l 675 1042 l 829 1042 l 829 0 m 392 -61 b 608 -212 553 -75 608 -137 b 443 -347 608 -301 540 -347 b 308 -321 375 -347 328 -331 l 308 -215 b 422 -240 322 -221 369 -240 b 497 -199 469 -240 497 -229 b 385 -131 497 -156 461 -140 "},"Ṇ":{"ha":914,"x_min":0,"x_max":0,"o":"m 688 0 l 235 740 l 239 0 l 85 0 l 85 1042 l 226 1042 l 679 301 l 675 1042 l 829 1042 l 829 0 m 558 -206 b 457 -307 558 -261 513 -307 b 356 -206 401 -307 356 -261 b 457 -104 356 -150 401 -104 b 558 -206 513 -104 558 -150 "},"":{"ha":947,"x_min":0,"x_max":0,"o":"m 944 111 l 944 -174 l 829 -174 l 829 0 l 688 0 l 235 740 l 239 0 l 85 0 l 85 1042 l 226 1042 l 679 301 l 675 1042 l 829 1042 l 829 111 "},"Ó":{"ha":944,"x_min":0,"x_max":0,"o":"m 472 -17 b 71 521 138 -17 71 226 b 472 1058 71 815 138 1058 b 874 521 807 1058 874 815 b 472 -17 874 226 807 -17 m 472 917 b 231 521 275 917 231 768 b 472 125 231 274 275 125 b 714 521 669 125 714 274 b 472 917 714 768 669 917 m 407 1104 l 488 1257 l 675 1257 l 538 1104 "},"Ò":{"ha":944,"x_min":0,"x_max":0,"o":"m 472 -17 b 71 521 138 -17 71 226 b 472 1058 71 815 138 1058 b 874 521 807 1058 874 815 b 472 -17 874 226 807 -17 m 472 917 b 231 521 275 917 231 768 b 472 125 231 274 275 125 b 714 521 669 125 714 274 b 472 917 714 768 669 917 m 407 1104 l 269 1257 l 457 1257 l 538 1104 "},"Ô":{"ha":944,"x_min":0,"x_max":0,"o":"m 472 -17 b 71 521 138 -17 71 226 b 472 1058 71 815 138 1058 b 874 521 807 1058 874 815 b 472 -17 874 226 807 -17 m 472 917 b 231 521 275 917 231 768 b 472 125 231 274 275 125 b 714 521 669 125 714 274 b 472 917 714 768 669 917 m 592 1104 l 472 1174 l 353 1104 l 217 1104 l 393 1257 l 551 1257 l 728 1104 "},"Ö":{"ha":944,"x_min":0,"x_max":0,"o":"m 472 -17 b 71 521 138 -17 71 226 b 472 1058 71 815 138 1058 b 874 521 807 1058 874 815 b 472 -17 874 226 807 -17 m 472 917 b 231 521 275 917 231 768 b 472 125 231 274 275 125 b 714 521 669 125 714 274 b 472 917 714 768 669 917 m 224 1181 b 325 1282 224 1236 269 1282 b 426 1181 381 1282 426 1236 b 325 1079 426 1125 381 1079 b 224 1181 269 1079 224 1125 m 518 1181 b 619 1282 518 1236 564 1282 b 721 1181 675 1282 721 1236 b 619 1079 721 1125 675 1079 b 518 1181 564 1079 518 1125 "},"Õ":{"ha":944,"x_min":0,"x_max":0,"o":"m 472 -17 b 71 521 138 -17 71 226 b 472 1058 71 815 138 1058 b 874 521 807 1058 874 815 b 472 -17 874 226 807 -17 m 472 917 b 231 521 275 917 231 768 b 472 125 231 274 275 125 b 714 521 669 125 714 274 b 472 917 714 768 669 917 m 747 1257 b 582 1079 747 1142 693 1079 b 358 1167 481 1079 428 1167 b 296 1104 306 1167 296 1132 l 197 1104 b 363 1282 197 1219 251 1282 b 586 1194 464 1282 517 1194 b 649 1257 639 1194 649 1229 "},"Ǒ":{"ha":944,"x_min":0,"x_max":0,"o":"m 472 -17 b 71 521 138 -17 71 226 b 472 1058 71 815 138 1058 b 874 521 807 1058 874 815 b 472 -17 874 226 807 -17 m 472 917 b 231 521 275 917 231 768 b 472 125 231 274 275 125 b 714 521 669 125 714 274 b 472 917 714 768 669 917 m 353 1257 l 472 1188 l 592 1257 l 728 1257 l 551 1104 l 393 1104 l 217 1257 "},"Ō":{"ha":944,"x_min":0,"x_max":0,"o":"m 472 -17 b 71 521 138 -17 71 226 b 472 1058 71 815 138 1058 b 874 521 807 1058 874 815 b 472 -17 874 226 807 -17 m 472 917 b 231 521 275 917 231 768 b 472 125 231 274 275 125 b 714 521 669 125 714 274 b 472 917 714 768 669 917 m 269 1242 l 675 1242 l 675 1118 l 269 1118 "},"Ŏ":{"ha":944,"x_min":0,"x_max":0,"o":"m 472 -17 b 71 521 138 -17 71 226 b 472 1058 71 815 138 1058 b 874 521 807 1058 874 815 b 472 -17 874 226 807 -17 m 472 917 b 231 521 275 917 231 768 b 472 125 231 274 275 125 b 714 521 669 125 714 274 b 472 917 714 768 669 917 m 472 1079 b 247 1257 301 1079 243 1129 l 365 1257 b 472 1181 364 1199 397 1181 b 579 1257 547 1181 581 1199 l 697 1257 b 472 1079 701 1129 643 1079 "},"Ȏ":{"ha":944,"x_min":0,"x_max":0,"o":"m 472 -17 b 71 521 138 -17 71 226 b 472 1058 71 815 138 1058 b 874 521 807 1058 874 815 b 472 -17 874 226 807 -17 m 472 917 b 231 521 275 917 231 768 b 472 125 231 274 275 125 b 714 521 669 125 714 274 b 472 917 714 768 669 917 m 472 1282 b 697 1104 643 1282 701 1232 l 579 1104 b 472 1181 581 1163 547 1181 b 365 1104 397 1181 364 1163 l 247 1104 b 472 1282 243 1232 301 1282 "},"Ő":{"ha":944,"x_min":0,"x_max":0,"o":"m 472 -17 b 71 521 138 -17 71 226 b 472 1058 71 815 138 1058 b 874 521 807 1058 874 815 b 472 -17 874 226 807 -17 m 472 917 b 231 521 275 917 231 768 b 472 125 231 274 275 125 b 714 521 669 125 714 274 b 472 917 714 768 669 917 m 289 1104 l 369 1257 l 557 1257 l 419 1104 m 525 1104 l 606 1257 l 793 1257 l 656 1104 "},"":{"ha":944,"x_min":0,"x_max":0,"o":"m 472 -17 b 71 521 138 -17 71 226 b 472 1058 71 815 138 1058 b 874 521 807 1058 874 815 b 472 -17 874 226 807 -17 m 472 917 b 231 521 275 917 231 768 b 472 125 231 274 275 125 b 714 521 669 125 714 274 b 472 917 714 768 669 917 m 289 1104 l 151 1257 l 339 1257 l 419 1104 m 525 1104 l 388 1257 l 575 1257 l 656 1104 "},"":{"ha":944,"x_min":0,"x_max":0,"o":"m 472 -17 b 71 521 138 -17 71 226 b 472 1058 71 815 138 1058 b 874 521 807 1058 874 815 b 472 -17 874 226 807 -17 m 472 917 b 231 521 275 917 231 768 b 472 125 231 274 275 125 b 714 521 669 125 714 274 b 472 917 714 768 669 917 m 607 1257 l 560 1104 l 374 1104 l 490 1257 "},"":{"ha":944,"x_min":0,"x_max":0,"o":"m 472 -17 b 71 521 138 -17 71 226 b 472 1058 71 815 138 1058 b 874 521 807 1058 874 815 b 472 -17 874 226 807 -17 m 472 917 b 231 521 275 917 231 768 b 472 125 231 274 275 125 b 714 521 669 125 714 274 b 472 917 714 768 669 917 m 747 1257 b 582 1079 747 1142 693 1079 b 358 1167 481 1079 428 1167 b 296 1104 306 1167 296 1132 l 197 1104 b 363 1282 197 1219 251 1282 b 586 1194 464 1282 517 1194 b 649 1257 639 1194 649 1229 m 269 1436 l 675 1436 l 675 1313 l 269 1313 "},"":{"ha":944,"x_min":0,"x_max":0,"o":"m 472 -17 b 71 521 138 -17 71 226 b 472 1058 71 815 138 1058 b 874 521 807 1058 874 815 b 472 -17 874 226 807 -17 m 472 917 b 231 521 275 917 231 768 b 472 125 231 274 275 125 b 714 521 669 125 714 274 b 472 917 714 768 669 917 m 371 1181 b 472 1282 371 1236 417 1282 b 574 1181 528 1282 574 1236 b 472 1079 574 1125 528 1079 b 371 1181 417 1079 371 1125 "},"":{"ha":944,"x_min":0,"x_max":0,"o":"m 472 -17 b 71 521 138 -17 71 226 b 472 1058 71 815 138 1058 b 874 521 807 1058 874 815 b 472 -17 874 226 807 -17 m 472 917 b 231 521 275 917 231 768 b 472 125 231 274 275 125 b 714 521 669 125 714 274 b 472 917 714 768 669 917 m 371 1181 b 472 1282 371 1236 417 1282 b 574 1181 528 1282 574 1236 b 472 1079 574 1125 528 1079 b 371 1181 417 1079 371 1125 m 269 1429 l 675 1429 l 675 1306 l 269 1306 "},"":{"ha":944,"x_min":0,"x_max":0,"o":"m 472 -17 b 71 521 138 -17 71 226 b 472 1058 71 815 138 1058 b 874 521 807 1058 874 815 b 472 -17 874 226 807 -17 m 472 917 b 231 521 275 917 231 768 b 472 125 231 274 275 125 b 714 521 669 125 714 274 b 472 917 714 768 669 917 m 407 -61 b 624 -212 568 -75 624 -137 b 458 -347 624 -301 556 -347 b 324 -321 390 -347 343 -331 l 324 -215 b 438 -240 338 -221 385 -240 b 513 -199 485 -240 513 -229 b 400 -131 513 -156 476 -140 "},"Ọ":{"ha":944,"x_min":0,"x_max":0,"o":"m 472 -17 b 71 521 138 -17 71 226 b 472 1058 71 815 138 1058 b 874 521 807 1058 874 815 b 472 -17 874 226 807 -17 m 472 917 b 231 521 275 917 231 768 b 472 125 231 274 275 125 b 714 521 669 125 714 274 b 472 917 714 768 669 917 m 574 -206 b 472 -307 574 -261 528 -307 b 371 -206 417 -307 371 -261 b 472 -104 371 -150 417 -104 b 574 -206 528 -104 574 -150 "},"Ǫ":{"ha":944,"x_min":0,"x_max":0,"o":"m 874 521 b 608 0 874 271 825 60 b 461 -174 532 -35 461 -89 b 539 -244 461 -215 489 -244 b 626 -232 578 -244 610 -237 l 626 -326 b 508 -347 604 -335 568 -347 b 338 -196 415 -347 338 -296 b 436 -15 338 -140 361 -75 b 71 521 133 1 71 238 b 472 1058 71 815 138 1058 b 874 521 807 1058 874 815 m 472 917 b 231 521 275 917 231 768 b 472 125 231 274 275 125 b 714 521 669 125 714 274 b 472 917 714 768 669 917 "},"Ǭ":{"ha":944,"x_min":0,"x_max":0,"o":"m 874 521 b 608 0 874 271 825 60 b 461 -174 532 -35 461 -89 b 539 -244 461 -215 489 -244 b 626 -232 578 -244 610 -237 l 626 -326 b 508 -347 604 -335 568 -347 b 338 -196 415 -347 338 -296 b 436 -15 338 -140 361 -75 b 71 521 133 1 71 238 b 472 1058 71 815 138 1058 b 874 521 807 1058 874 815 m 472 917 b 231 521 275 917 231 768 b 472 125 231 274 275 125 b 714 521 669 125 714 274 b 472 917 714 768 669 917 m 269 1242 l 675 1242 l 675 1118 l 269 1118 "},"":{"ha":944,"x_min":0,"x_max":0,"o":"m 472 -17 b 71 521 138 -17 71 226 b 472 1058 71 815 138 1058 b 874 521 807 1058 874 815 b 472 -17 874 226 807 -17 m 472 917 b 231 521 275 917 231 768 b 472 125 231 274 275 125 b 714 521 669 125 714 274 b 472 917 714 768 669 917 m 526 -69 l 526 -347 l 418 -347 l 418 -69 "},"Ø":{"ha":944,"x_min":0,"x_max":0,"o":"m 472 -17 b 238 43 371 -17 296 4 l 211 0 l 97 0 l 165 111 b 71 521 90 211 71 358 b 472 1058 71 815 138 1058 b 706 997 572 1058 649 1036 l 733 1042 l 847 1042 l 779 929 b 874 521 853 831 874 683 b 472 -17 874 226 807 -17 m 714 521 b 683 772 714 622 706 707 l 318 175 b 472 125 354 142 404 125 b 714 521 669 125 714 274 m 472 917 b 231 521 275 917 231 768 b 261 268 231 418 238 333 l 625 865 b 472 917 589 899 540 917 "},"Ǿ":{"ha":944,"x_min":0,"x_max":0,"o":"m 472 -17 b 238 43 371 -17 296 4 l 211 0 l 97 0 l 165 111 b 71 521 90 211 71 358 b 472 1058 71 815 138 1058 b 706 997 572 1058 649 1036 l 733 1042 l 847 1042 l 779 929 b 874 521 853 831 874 683 b 472 -17 874 226 807 -17 m 714 521 b 683 772 714 622 706 707 l 318 175 b 472 125 354 142 404 125 b 714 521 669 125 714 274 m 472 917 b 231 521 275 917 231 768 b 261 268 231 418 238 333 l 625 865 b 472 917 589 899 540 917 m 407 1104 l 488 1257 l 675 1257 l 538 1104 "},"":{"ha":944,"x_min":0,"x_max":0,"o":"m 472 -17 b 71 521 138 -17 71 226 b 472 1058 71 815 138 1058 b 874 521 807 1058 874 815 b 472 -17 874 226 807 -17 m 472 125 b 714 478 657 125 708 256 l 231 478 b 472 125 236 256 286 125 m 472 917 b 232 603 297 917 243 800 l 711 603 b 472 917 701 800 646 917 "},"Œ":{"ha":1314,"x_min":0,"x_max":0,"o":"m 1203 468 l 790 468 l 790 143 l 1247 143 l 1247 0 l 508 0 b 67 521 163 0 67 225 b 508 1042 67 817 163 1042 l 1247 1042 l 1247 899 l 790 899 l 790 611 l 1203 611 m 635 899 l 504 899 b 229 521 296 899 229 747 b 504 143 229 294 296 143 l 635 143 "},"":{"ha":806,"x_min":0,"x_max":0,"o":"m 240 0 l 85 0 l 85 1042 l 419 1042 b 781 715 688 1042 781 886 b 419 390 781 544 688 390 l 240 390 m 240 532 l 426 532 b 611 715 582 532 611 638 b 426 899 611 793 582 899 l 240 899 m 193 1242 l 599 1242 l 599 1118 l 193 1118 "},"Ŕ":{"ha":863,"x_min":0,"x_max":0,"o":"m 240 0 l 85 0 l 85 1042 l 424 1042 b 779 732 693 1042 779 921 b 610 454 779 597 738 499 l 828 0 l 646 0 l 457 424 l 240 424 m 240 565 l 446 565 b 610 732 590 565 610 647 b 446 899 610 818 590 899 l 240 899 m 338 1104 l 418 1257 l 606 1257 l 468 1104 "},"Ř":{"ha":863,"x_min":0,"x_max":0,"o":"m 240 0 l 85 0 l 85 1042 l 424 1042 b 779 732 693 1042 779 921 b 610 454 779 597 738 499 l 828 0 l 646 0 l 457 424 l 240 424 m 240 565 l 446 565 b 610 732 590 565 610 647 b 446 899 610 818 590 899 l 240 899 m 283 1257 l 403 1188 l 522 1257 l 658 1257 l 482 1104 l 324 1104 l 147 1257 "},"Ȓ":{"ha":863,"x_min":0,"x_max":0,"o":"m 240 0 l 85 0 l 85 1042 l 424 1042 b 779 732 693 1042 779 921 b 610 454 779 597 738 499 l 828 0 l 646 0 l 457 424 l 240 424 m 240 565 l 446 565 b 610 732 590 565 610 647 b 446 899 610 818 590 899 l 240 899 m 403 1282 b 628 1104 574 1282 632 1232 l 510 1104 b 403 1181 511 1163 478 1181 b 296 1104 328 1181 294 1163 l 178 1104 b 403 1282 174 1232 232 1282 "},"":{"ha":863,"x_min":0,"x_max":0,"o":"m 240 0 l 85 0 l 85 1042 l 424 1042 b 779 732 693 1042 779 921 b 610 454 779 597 738 499 l 828 0 l 646 0 l 457 424 l 240 424 m 240 565 l 446 565 b 610 732 590 565 610 647 b 446 899 610 818 590 899 l 240 899 m 219 1104 l 82 1257 l 269 1257 l 350 1104 m 456 1104 l 318 1257 l 506 1257 l 586 1104 "},"Ŗ":{"ha":863,"x_min":0,"x_max":0,"o":"m 240 0 l 85 0 l 85 1042 l 424 1042 b 779 732 693 1042 779 921 b 610 454 779 597 738 499 l 828 0 l 646 0 l 457 424 l 240 424 m 240 565 l 446 565 b 610 732 590 565 610 647 b 446 899 610 818 590 899 l 240 899 m 533 -69 l 443 -347 l 319 -347 l 349 -69 "},"":{"ha":863,"x_min":0,"x_max":0,"o":"m 240 0 l 85 0 l 85 1042 l 424 1042 b 779 732 693 1042 779 921 b 610 454 779 597 738 499 l 828 0 l 646 0 l 457 424 l 240 424 m 240 565 l 446 565 b 610 732 590 565 610 647 b 446 899 610 818 590 899 l 240 899 m 369 -61 b 586 -212 531 -75 586 -137 b 421 -347 586 -301 518 -347 b 286 -321 353 -347 306 -331 l 286 -215 b 400 -240 300 -221 347 -240 b 475 -199 447 -240 475 -229 b 363 -131 475 -156 439 -140 "},"Ṛ":{"ha":863,"x_min":0,"x_max":0,"o":"m 240 0 l 85 0 l 85 1042 l 424 1042 b 779 732 693 1042 779 921 b 610 454 779 597 738 499 l 828 0 l 646 0 l 457 424 l 240 424 m 240 565 l 446 565 b 610 732 590 565 610 647 b 446 899 610 818 590 899 l 240 899 m 536 -206 b 435 -307 536 -261 490 -307 b 333 -206 379 -307 333 -261 b 435 -104 333 -150 379 -104 b 536 -206 490 -104 536 -150 "},"Ṝ":{"ha":863,"x_min":0,"x_max":0,"o":"m 240 0 l 85 0 l 85 1042 l 424 1042 b 779 732 693 1042 779 921 b 610 454 779 597 738 499 l 828 0 l 646 0 l 457 424 l 240 424 m 240 565 l 446 565 b 610 732 590 565 610 647 b 446 899 610 818 590 899 l 240 899 m 200 1242 l 606 1242 l 606 1118 l 200 1118 m 536 -206 b 435 -307 536 -261 490 -307 b 333 -206 379 -307 333 -261 b 435 -104 333 -150 379 -104 b 536 -206 490 -104 536 -150 "},"Ś":{"ha":826,"x_min":0,"x_max":0,"o":"m 424 606 b 767 315 640 576 767 528 b 371 -17 767 118 650 -17 b 63 43 267 -17 133 7 l 63 199 b 361 131 119 174 219 131 b 604 306 549 131 604 207 b 415 467 604 421 556 449 b 63 757 161 499 63 567 b 432 1058 63 910 149 1058 b 714 1008 567 1058 661 1035 l 714 857 b 440 911 638 890 543 911 b 222 756 278 911 222 844 b 424 606 222 643 286 624 m 356 1104 l 436 1257 l 624 1257 l 486 1104 "},"Ŝ":{"ha":826,"x_min":0,"x_max":0,"o":"m 424 606 b 767 315 640 576 767 528 b 371 -17 767 118 650 -17 b 63 43 267 -17 133 7 l 63 199 b 361 131 119 174 219 131 b 604 306 549 131 604 207 b 415 467 604 421 556 449 b 63 757 161 499 63 567 b 432 1058 63 910 149 1058 b 714 1008 567 1058 661 1035 l 714 857 b 440 911 638 890 543 911 b 222 756 278 911 222 844 b 424 606 222 643 286 624 m 540 1104 l 421 1174 l 301 1104 l 165 1104 l 342 1257 l 500 1257 l 676 1104 "},"Š":{"ha":826,"x_min":0,"x_max":0,"o":"m 424 606 b 767 315 640 576 767 528 b 371 -17 767 118 650 -17 b 63 43 267 -17 133 7 l 63 199 b 361 131 119 174 219 131 b 604 306 549 131 604 207 b 415 467 604 421 556 449 b 63 757 161 499 63 567 b 432 1058 63 910 149 1058 b 714 1008 567 1058 661 1035 l 714 857 b 440 911 638 890 543 911 b 222 756 278 911 222 844 b 424 606 222 643 286 624 m 301 1257 l 421 1188 l 540 1257 l 676 1257 l 500 1104 l 342 1104 l 165 1257 "},"Ș":{"ha":826,"x_min":0,"x_max":0,"o":"m 424 606 b 767 315 640 576 767 528 b 371 -17 767 118 650 -17 b 63 43 267 -17 133 7 l 63 199 b 361 131 119 174 219 131 b 604 306 549 131 604 207 b 415 467 604 421 556 449 b 63 757 161 499 63 567 b 432 1058 63 910 149 1058 b 714 1008 567 1058 661 1035 l 714 857 b 440 911 638 890 543 911 b 222 756 278 911 222 844 b 424 606 222 643 286 624 m 492 -69 l 401 -347 l 278 -347 l 307 -69 "},"Ş":{"ha":826,"x_min":0,"x_max":0,"o":"m 347 -17 b 63 43 247 -12 128 10 l 63 199 b 361 131 119 174 219 131 b 604 306 549 131 604 207 b 415 467 604 421 556 449 b 63 757 161 499 63 567 b 432 1058 63 910 149 1058 b 714 1008 567 1058 661 1035 l 714 857 b 440 911 638 890 543 911 b 222 756 278 911 222 844 b 424 606 222 643 286 624 b 767 315 640 576 767 528 b 424 -15 767 131 665 1 l 429 -83 b 558 -212 500 -100 558 -136 b 393 -347 558 -301 490 -347 b 258 -321 325 -347 278 -331 l 258 -215 b 372 -240 272 -221 319 -240 b 447 -199 419 -240 447 -229 b 335 -131 447 -156 411 -140 "},"Ṣ":{"ha":826,"x_min":0,"x_max":0,"o":"m 424 606 b 767 315 640 576 767 528 b 371 -17 767 118 650 -17 b 63 43 267 -17 133 7 l 63 199 b 361 131 119 174 219 131 b 604 306 549 131 604 207 b 415 467 604 421 556 449 b 63 757 161 499 63 567 b 432 1058 63 910 149 1058 b 714 1008 567 1058 661 1035 l 714 857 b 440 911 638 890 543 911 b 222 756 278 911 222 844 b 424 606 222 643 286 624 m 494 -206 b 393 -307 494 -261 449 -307 b 292 -206 338 -307 292 -261 b 393 -104 292 -150 338 -104 b 494 -206 449 -104 494 -150 "},"Ť":{"ha":772,"x_min":0,"x_max":0,"o":"m 464 899 l 464 0 l 308 0 l 308 899 l 38 899 l 38 1042 l 735 1042 l 735 899 m 267 1257 l 386 1188 l 506 1257 l 642 1257 l 465 1104 l 307 1104 l 131 1257 "},"Ţ":{"ha":772,"x_min":0,"x_max":0,"o":"m 464 899 l 464 0 l 308 0 l 308 899 l 38 899 l 38 1042 l 735 1042 l 735 899 m 476 -69 l 386 -347 l 263 -347 l 292 -69 "},"":{"ha":772,"x_min":0,"x_max":0,"o":"m 464 899 l 464 0 l 308 0 l 308 899 l 38 899 l 38 1042 l 735 1042 l 735 899 m 321 -61 b 538 -212 482 -75 538 -137 b 372 -347 538 -301 469 -347 b 238 -321 304 -347 257 -331 l 238 -215 b 351 -240 251 -221 299 -240 b 426 -199 399 -240 426 -229 b 314 -131 426 -156 390 -140 "},"Ṭ":{"ha":772,"x_min":0,"x_max":0,"o":"m 464 899 l 464 0 l 308 0 l 308 899 l 38 899 l 38 1042 l 735 1042 l 735 899 m 488 -206 b 386 -307 488 -261 442 -307 b 285 -206 331 -307 285 -261 b 386 -104 285 -150 331 -104 b 488 -206 442 -104 488 -150 "},"Ŧ":{"ha":772,"x_min":0,"x_max":0,"o":"m 464 899 l 464 601 l 621 601 l 621 478 l 464 478 l 464 0 l 308 0 l 308 478 l 151 478 l 151 601 l 308 601 l 308 899 l 38 899 l 38 1042 l 735 1042 l 735 899 "},"Ú":{"ha":911,"x_min":0,"x_max":0,"o":"m 456 -17 b 78 328 314 -17 78 36 l 78 1042 l 233 1042 l 233 342 b 456 125 233 146 369 125 b 678 342 542 125 678 146 l 678 1042 l 833 1042 l 833 328 b 456 -17 833 36 597 -17 m 390 1104 l 471 1257 l 658 1257 l 521 1104 "},"Ù":{"ha":911,"x_min":0,"x_max":0,"o":"m 456 -17 b 78 328 314 -17 78 36 l 78 1042 l 233 1042 l 233 342 b 456 125 233 146 369 125 b 678 342 542 125 678 146 l 678 1042 l 833 1042 l 833 328 b 456 -17 833 36 597 -17 m 390 1104 l 253 1257 l 440 1257 l 521 1104 "},"Û":{"ha":911,"x_min":0,"x_max":0,"o":"m 456 -17 b 78 328 314 -17 78 36 l 78 1042 l 233 1042 l 233 342 b 456 125 233 146 369 125 b 678 342 542 125 678 146 l 678 1042 l 833 1042 l 833 328 b 456 -17 833 36 597 -17 m 575 1104 l 456 1174 l 336 1104 l 200 1104 l 376 1257 l 535 1257 l 711 1104 "},"Ü":{"ha":911,"x_min":0,"x_max":0,"o":"m 456 -17 b 78 328 314 -17 78 36 l 78 1042 l 233 1042 l 233 342 b 456 125 233 146 369 125 b 678 342 542 125 678 146 l 678 1042 l 833 1042 l 833 328 b 456 -17 833 36 597 -17 m 207 1181 b 308 1282 207 1236 253 1282 b 410 1181 364 1282 410 1236 b 308 1079 410 1125 364 1079 b 207 1181 253 1079 207 1125 m 501 1181 b 603 1282 501 1236 547 1282 b 704 1181 658 1282 704 1236 b 603 1079 704 1125 658 1079 b 501 1181 547 1079 501 1125 "},"Ũ":{"ha":911,"x_min":0,"x_max":0,"o":"m 456 -17 b 78 328 314 -17 78 36 l 78 1042 l 233 1042 l 233 342 b 456 125 233 146 369 125 b 678 342 542 125 678 146 l 678 1042 l 833 1042 l 833 328 b 456 -17 833 36 597 -17 m 731 1257 b 565 1079 731 1142 676 1079 b 342 1167 464 1079 411 1167 b 279 1104 289 1167 279 1132 l 181 1104 b 346 1282 181 1219 235 1282 b 569 1194 447 1282 500 1194 b 632 1257 622 1194 632 1229 "},"Ů":{"ha":911,"x_min":0,"x_max":0,"o":"m 456 -17 b 78 328 314 -17 78 36 l 78 1042 l 233 1042 l 233 342 b 456 125 233 146 369 125 b 678 342 542 125 678 146 l 678 1042 l 833 1042 l 833 328 b 456 -17 833 36 597 -17 m 503 1181 b 456 1204 503 1196 488 1204 b 408 1181 424 1204 408 1196 b 456 1157 408 1165 424 1157 b 503 1181 488 1157 503 1165 m 317 1181 b 456 1294 317 1268 378 1294 b 594 1181 533 1294 594 1268 b 456 1067 594 1093 533 1067 b 317 1181 378 1067 317 1093 "},"Ǔ":{"ha":911,"x_min":0,"x_max":0,"o":"m 456 -17 b 78 328 314 -17 78 36 l 78 1042 l 233 1042 l 233 342 b 456 125 233 146 369 125 b 678 342 542 125 678 146 l 678 1042 l 833 1042 l 833 328 b 456 -17 833 36 597 -17 m 336 1257 l 456 1188 l 575 1257 l 711 1257 l 535 1104 l 376 1104 l 200 1257 "},"Ū":{"ha":911,"x_min":0,"x_max":0,"o":"m 456 -17 b 78 328 314 -17 78 36 l 78 1042 l 233 1042 l 233 342 b 456 125 233 146 369 125 b 678 342 542 125 678 146 l 678 1042 l 833 1042 l 833 328 b 456 -17 833 36 597 -17 m 253 1242 l 658 1242 l 658 1118 l 253 1118 "},"Ŭ":{"ha":911,"x_min":0,"x_max":0,"o":"m 456 -17 b 78 328 314 -17 78 36 l 78 1042 l 233 1042 l 233 342 b 456 125 233 146 369 125 b 678 342 542 125 678 146 l 678 1042 l 833 1042 l 833 328 b 456 -17 833 36 597 -17 m 456 1079 b 231 1257 285 1079 226 1129 l 349 1257 b 456 1181 347 1199 381 1181 b 563 1257 531 1181 564 1199 l 681 1257 b 456 1079 685 1129 626 1079 "},"Ȗ":{"ha":911,"x_min":0,"x_max":0,"o":"m 456 -17 b 78 328 314 -17 78 36 l 78 1042 l 233 1042 l 233 342 b 456 125 233 146 369 125 b 678 342 542 125 678 146 l 678 1042 l 833 1042 l 833 328 b 456 -17 833 36 597 -17 m 456 1282 b 681 1104 626 1282 685 1232 l 563 1104 b 456 1181 564 1163 531 1181 b 349 1104 381 1181 347 1163 l 231 1104 b 456 1282 226 1232 285 1282 "},"Ű":{"ha":911,"x_min":0,"x_max":0,"o":"m 456 -17 b 78 328 314 -17 78 36 l 78 1042 l 233 1042 l 233 342 b 456 125 233 146 369 125 b 678 342 542 125 678 146 l 678 1042 l 833 1042 l 833 328 b 456 -17 833 36 597 -17 m 508 1104 l 589 1257 l 776 1257 l 639 1104 m 272 1104 l 353 1257 l 540 1257 l 403 1104 "},"":{"ha":911,"x_min":0,"x_max":0,"o":"m 456 -17 b 78 328 314 -17 78 36 l 78 1042 l 233 1042 l 233 342 b 456 125 233 146 369 125 b 678 342 542 125 678 146 l 678 1042 l 833 1042 l 833 328 b 456 -17 833 36 597 -17 m 508 1104 l 371 1257 l 558 1257 l 639 1104 m 272 1104 l 135 1257 l 322 1257 l 403 1104 "},"Ụ":{"ha":911,"x_min":0,"x_max":0,"o":"m 456 -17 b 78 328 314 -17 78 36 l 78 1042 l 233 1042 l 233 342 b 456 125 233 146 369 125 b 678 342 542 125 678 146 l 678 1042 l 833 1042 l 833 328 b 456 -17 833 36 597 -17 m 557 -206 b 456 -307 557 -261 511 -307 b 354 -206 400 -307 354 -261 b 456 -104 354 -150 400 -104 b 557 -206 511 -104 557 -150 "},"":{"ha":911,"x_min":0,"x_max":0,"o":"m 456 -17 b 78 328 314 -17 78 36 l 78 1042 l 233 1042 l 233 342 b 456 125 233 146 369 125 b 678 342 542 125 678 146 l 678 1042 l 833 1042 l 833 328 b 456 -17 833 36 597 -17 m 658 -269 l 253 -269 l 253 -147 l 658 -147 "},"Ų":{"ha":911,"x_min":0,"x_max":0,"o":"m 833 328 b 590 0 833 118 711 32 b 443 -174 514 -35 443 -89 b 521 -244 443 -215 471 -244 b 608 -232 560 -244 592 -237 l 608 -326 b 490 -347 586 -335 550 -347 b 319 -196 397 -347 319 -296 b 417 -15 319 -140 343 -75 b 78 328 275 -6 78 61 l 78 1042 l 233 1042 l 233 342 b 456 125 233 146 369 125 b 678 342 542 125 678 146 l 678 1042 l 833 1042 l 833 328 "},"Ẃ":{"ha":1228,"x_min":0,"x_max":0,"o":"m 517 1042 l 711 1042 l 888 221 l 1024 1042 l 1189 1042 l 993 -12 l 803 -12 l 614 856 l 425 -12 l 235 -12 l 39 1042 l 204 1042 l 340 221 m 549 1104 l 629 1257 l 817 1257 l 679 1104 "},"Ẁ":{"ha":1228,"x_min":0,"x_max":0,"o":"m 517 1042 l 711 1042 l 888 221 l 1024 1042 l 1189 1042 l 993 -12 l 803 -12 l 614 856 l 425 -12 l 235 -12 l 39 1042 l 204 1042 l 340 221 m 549 1104 l 411 1257 l 599 1257 l 679 1104 "},"Ŵ":{"ha":1228,"x_min":0,"x_max":0,"o":"m 517 1042 l 711 1042 l 888 221 l 1024 1042 l 1189 1042 l 993 -12 l 803 -12 l 614 856 l 425 -12 l 235 -12 l 39 1042 l 204 1042 l 340 221 m 733 1104 l 614 1174 l 494 1104 l 358 1104 l 535 1257 l 693 1257 l 869 1104 "},"Ẅ":{"ha":1228,"x_min":0,"x_max":0,"o":"m 517 1042 l 711 1042 l 888 221 l 1024 1042 l 1189 1042 l 993 -12 l 803 -12 l 614 856 l 425 -12 l 235 -12 l 39 1042 l 204 1042 l 340 221 m 660 1181 b 761 1282 660 1236 706 1282 b 863 1181 817 1282 863 1236 b 761 1079 863 1125 817 1079 b 660 1181 706 1079 660 1125 m 365 1181 b 467 1282 365 1236 411 1282 b 568 1181 522 1282 568 1236 b 467 1079 568 1125 522 1079 b 365 1181 411 1079 365 1125 "},"Ý":{"ha":931,"x_min":0,"x_max":0,"o":"m 544 418 l 544 0 l 386 0 l 386 418 l 32 1042 l 208 1042 l 465 556 l 722 1042 l 899 1042 m 400 1104 l 481 1257 l 668 1257 l 531 1104 "},"Ỳ":{"ha":931,"x_min":0,"x_max":0,"o":"m 544 418 l 544 0 l 386 0 l 386 418 l 32 1042 l 208 1042 l 465 556 l 722 1042 l 899 1042 m 400 1104 l 263 1257 l 450 1257 l 531 1104 "},"Ŷ":{"ha":931,"x_min":0,"x_max":0,"o":"m 544 418 l 544 0 l 386 0 l 386 418 l 32 1042 l 208 1042 l 465 556 l 722 1042 l 899 1042 m 585 1104 l 465 1174 l 346 1104 l 210 1104 l 386 1257 l 544 1257 l 721 1104 "},"Ÿ":{"ha":931,"x_min":0,"x_max":0,"o":"m 544 418 l 544 0 l 386 0 l 386 418 l 32 1042 l 208 1042 l 465 556 l 722 1042 l 899 1042 m 217 1181 b 318 1282 217 1236 263 1282 b 419 1181 374 1282 419 1236 b 318 1079 419 1125 374 1079 b 217 1181 263 1079 217 1125 m 511 1181 b 613 1282 511 1236 557 1282 b 714 1181 668 1282 714 1236 b 613 1079 714 1125 668 1079 b 511 1181 557 1079 511 1125 "},"Ỹ":{"ha":931,"x_min":0,"x_max":0,"o":"m 544 418 l 544 0 l 386 0 l 386 418 l 32 1042 l 208 1042 l 465 556 l 722 1042 l 899 1042 m 740 1257 b 575 1079 740 1142 686 1079 b 351 1167 474 1079 421 1167 b 289 1104 299 1167 289 1132 l 190 1104 b 356 1282 190 1219 244 1282 b 579 1194 457 1282 510 1194 b 642 1257 632 1194 642 1229 "},"":{"ha":931,"x_min":0,"x_max":0,"o":"m 544 418 l 544 0 l 386 0 l 386 418 l 32 1042 l 208 1042 l 465 556 l 722 1042 l 899 1042 m 263 1242 l 668 1242 l 668 1118 l 263 1118 "},"Ĳ":{"ha":867,"x_min":0,"x_max":0,"o":"m 107 0 l 107 1042 l 263 1042 l 263 0 m 378 149 b 486 132 406 140 440 132 b 614 239 561 132 614 161 l 614 1042 l 769 1042 l 769 215 b 494 -17 769 64 686 -17 b 378 0 464 -17 411 -11 "},"Ź":{"ha":847,"x_min":0,"x_max":0,"o":"m 42 0 l 42 104 l 575 894 l 76 892 l 76 1042 l 785 1042 l 785 938 l 251 147 l 806 150 l 806 0 m 363 1104 l 443 1257 l 631 1257 l 493 1104 "},"Ž":{"ha":847,"x_min":0,"x_max":0,"o":"m 42 0 l 42 104 l 575 894 l 76 892 l 76 1042 l 785 1042 l 785 938 l 251 147 l 806 150 l 806 0 m 308 1257 l 428 1188 l 547 1257 l 683 1257 l 507 1104 l 349 1104 l 172 1257 "},"Ż":{"ha":847,"x_min":0,"x_max":0,"o":"m 42 0 l 42 104 l 575 894 l 76 892 l 76 1042 l 785 1042 l 785 938 l 251 147 l 806 150 l 806 0 m 326 1181 b 428 1282 326 1236 372 1282 b 529 1181 483 1282 529 1236 b 428 1079 529 1125 483 1079 b 326 1181 372 1079 326 1125 "},"Ŋ":{"ha":914,"x_min":0,"x_max":0,"o":"m 513 -219 b 676 -81 611 -219 676 -167 l 676 18 l 235 740 l 239 0 l 85 0 l 85 1042 l 226 1042 l 679 301 l 675 1042 l 829 1042 l 829 -111 b 513 -364 829 -282 667 -364 "},"Ð":{"ha":965,"x_min":0,"x_max":0,"o":"m 147 0 l 147 465 l 26 465 l 26 597 l 147 597 l 147 1042 l 457 1042 b 899 521 803 1042 899 817 b 457 0 899 225 803 0 m 303 597 l 522 597 l 522 465 l 303 465 l 303 143 l 461 143 b 736 521 669 143 736 294 b 461 899 736 747 669 899 l 303 899 "},"Þ":{"ha":819,"x_min":0,"x_max":0,"o":"m 240 0 l 85 0 l 85 1042 l 240 1042 l 240 847 l 419 847 b 781 521 688 847 781 692 b 419 196 781 350 688 196 l 240 196 m 240 338 l 426 338 b 611 521 582 338 611 443 b 426 704 611 599 582 704 l 240 704 "},"Ʒ":{"ha":892,"x_min":0,"x_max":0,"o":"m 678 89 b 306 374 678 333 514 374 l 207 374 l 207 479 l 554 894 l 53 892 l 53 1042 l 768 1042 l 768 929 l 413 514 b 840 89 629 496 840 393 b 354 -364 840 -267 585 -364 b 49 -310 239 -364 113 -337 l 49 -162 b 331 -217 108 -183 201 -217 b 678 89 514 -217 678 -162 "},"Ǯ":{"ha":892,"x_min":0,"x_max":0,"o":"m 678 89 b 306 374 678 333 514 374 l 207 374 l 207 479 l 554 894 l 53 892 l 53 1042 l 768 1042 l 768 929 l 413 514 b 840 89 629 496 840 393 b 354 -364 840 -267 585 -364 b 49 -310 239 -364 113 -337 l 49 -162 b 331 -217 108 -183 201 -217 b 678 89 514 -217 678 -162 m 292 1257 l 411 1188 l 531 1257 l 667 1257 l 490 1104 l 332 1104 l 156 1257 "},"Ə":{"ha":956,"x_min":0,"x_max":0,"o":"m 886 521 b 458 -17 886 211 769 -17 b 67 506 122 -17 67 233 l 68 611 l 722 611 b 436 913 707 789 628 913 b 117 839 318 913 222 889 l 117 988 b 454 1058 224 1040 333 1058 b 886 521 768 1058 886 831 m 458 129 b 725 468 646 129 718 272 l 229 468 b 458 129 229 279 260 129 "},"a":{"ha":689,"x_min":0,"x_max":0,"o":"m 461 479 b 325 578 461 550 428 578 b 108 536 235 578 161 557 l 108 671 b 336 711 163 694 254 711 b 617 464 564 711 617 611 l 617 0 l 525 0 l 500 56 b 290 -17 444 10 367 -17 b 51 206 111 -17 51 94 b 306 432 51 356 149 419 l 461 444 l 461 479 m 315 321 b 206 214 246 313 206 286 b 313 111 206 161 228 111 b 461 157 375 111 418 129 l 461 338 "},"b":{"ha":753,"x_min":0,"x_max":0,"o":"m 418 711 b 696 347 621 711 696 574 b 418 -17 696 119 621 -17 b 193 56 325 -17 254 11 l 168 0 l 76 0 l 76 1042 l 232 1042 l 232 657 b 418 711 282 689 349 711 m 382 579 b 232 539 308 579 260 554 l 232 156 b 382 115 260 140 308 115 b 539 347 518 115 539 218 b 382 579 539 475 518 579 "},"c":{"ha":625,"x_min":0,"x_max":0,"o":"m 214 347 b 388 121 214 213 253 121 b 569 153 468 121 519 133 l 569 18 b 378 -17 515 -6 450 -17 b 57 347 132 -17 57 131 b 378 711 57 564 132 711 b 569 676 450 711 515 700 l 569 542 b 388 574 519 561 468 574 b 214 347 253 574 214 482 "},"d":{"ha":753,"x_min":0,"x_max":0,"o":"m 335 711 b 521 657 404 711 471 689 l 521 1042 l 676 1042 l 676 0 l 585 0 l 560 56 b 335 -17 499 11 428 -17 b 57 347 132 -17 57 119 b 335 711 57 574 132 711 m 371 579 b 214 347 235 579 214 475 b 371 115 214 218 235 115 b 521 156 444 115 493 140 l 521 539 b 371 579 493 554 444 579 "},"e":{"ha":708,"x_min":0,"x_max":0,"o":"m 57 347 b 365 711 57 571 139 711 b 649 358 610 711 649 550 b 646 290 649 335 647 313 l 214 290 b 396 118 217 186 254 118 b 617 160 483 118 556 133 l 617 26 b 372 -17 538 -7 447 -17 b 57 347 140 -17 57 122 m 365 576 b 214 399 251 576 219 503 l 492 399 b 365 576 492 493 486 576 "},"f":{"ha":531,"x_min":0,"x_max":0,"o":"m 531 910 b 428 924 506 918 476 924 b 303 818 358 924 303 897 l 303 694 l 499 694 l 499 563 l 303 563 l 303 0 l 147 0 l 147 563 l 21 563 l 21 658 l 147 694 l 147 832 b 417 1058 147 981 231 1058 b 531 1042 463 1058 504 1051 "},"g":{"ha":728,"x_min":0,"x_max":0,"o":"m 631 447 b 340 183 631 289 553 183 b 260 189 311 183 283 185 b 240 149 249 178 240 163 b 282 108 240 125 253 113 l 533 78 b 719 -117 671 61 719 -1 b 329 -364 719 -296 531 -364 b 8 -161 143 -364 8 -304 b 153 11 8 -67 79 -11 l 153 13 b 99 108 118 32 99 71 b 161 221 99 160 129 196 b 50 447 82 265 50 346 b 340 711 50 606 128 711 b 468 694 390 711 432 706 l 708 694 l 708 596 l 610 568 b 631 447 624 532 631 492 m 292 -21 b 157 -132 221 -33 157 -65 b 340 -240 157 -210 213 -240 b 569 -121 463 -240 569 -204 b 489 -46 569 -74 546 -53 m 197 447 b 340 307 197 368 224 307 b 483 447 457 307 483 368 b 340 588 483 526 457 588 b 197 447 224 588 197 526 "},"h":{"ha":728,"x_min":0,"x_max":0,"o":"m 501 476 b 392 579 501 547 465 579 b 232 539 319 579 269 560 l 232 0 l 76 0 l 76 1042 l 232 1042 l 232 660 b 418 711 286 692 347 711 b 657 490 594 711 657 624 l 657 0 l 501 0 l 501 476 "},"i":{"ha":357,"x_min":0,"x_max":0,"o":"m 274 -10 b 90 171 147 -10 90 51 l 90 694 l 246 694 l 246 172 b 304 119 246 133 260 119 l 304 -7 b 274 -10 304 -7 290 -10 m 67 900 b 168 1001 67 956 113 1001 b 269 900 224 1001 269 956 b 168 799 269 844 224 799 b 67 900 113 799 67 844 "},"j":{"ha":336,"x_min":0,"x_max":0,"o":"m -71 -219 b 90 -81 28 -219 90 -167 l 90 694 l 246 694 l 246 -111 b -71 -364 246 -282 83 -364 m 67 900 b 168 1001 67 956 113 1001 b 269 900 224 1001 269 956 b 168 799 269 844 224 799 b 67 900 113 799 67 844 "},"k":{"ha":725,"x_min":0,"x_max":0,"o":"m 397 408 l 708 0 l 515 0 l 299 308 l 232 240 l 232 0 l 76 0 l 76 1042 l 232 1042 l 232 425 l 478 694 l 679 694 "},"l":{"ha":357,"x_min":0,"x_max":0,"o":"m 274 -10 b 90 171 147 -10 90 51 l 90 1042 l 246 1042 l 246 172 b 304 119 246 133 260 119 l 304 -7 b 274 -10 304 -7 290 -10 "},"m":{"ha":1103,"x_min":0,"x_max":0,"o":"m 876 490 b 778 579 876 556 839 579 b 628 536 710 579 664 558 b 632 460 631 511 632 488 l 632 0 l 476 0 l 476 490 b 378 579 476 556 440 579 b 232 539 314 579 268 560 l 232 0 l 76 0 l 76 694 l 168 694 l 193 639 b 403 711 251 685 335 711 b 581 642 496 711 551 685 b 803 711 643 686 726 711 b 1032 490 967 711 1032 622 l 1032 0 l 876 0 "},"n":{"ha":728,"x_min":0,"x_max":0,"o":"m 501 0 l 501 476 b 392 579 501 547 465 579 b 232 539 319 579 269 560 l 232 0 l 76 0 l 76 694 l 168 694 l 193 639 b 418 711 264 688 343 711 b 657 490 594 711 657 624 l 657 0 "},"o":{"ha":731,"x_min":0,"x_max":0,"o":"m 365 114 b 517 347 497 114 517 199 b 365 581 517 496 497 581 b 214 347 233 581 214 496 b 365 114 214 199 233 114 m 365 -17 b 57 347 118 -17 57 133 b 365 711 57 561 118 711 b 674 347 613 711 674 561 b 365 -17 674 133 613 -17 "},"p":{"ha":753,"x_min":0,"x_max":0,"o":"m 418 -17 b 232 38 349 -17 282 6 l 232 -347 l 76 -347 l 76 694 l 168 694 l 193 639 b 418 711 254 683 325 711 b 696 347 621 711 696 575 b 418 -17 696 121 621 -17 m 382 115 b 539 347 518 115 539 219 b 382 579 539 476 518 579 b 232 539 308 579 260 554 l 232 156 b 382 115 260 140 308 115 "},"q":{"ha":753,"x_min":0,"x_max":0,"o":"m 335 -17 b 57 347 132 -17 57 121 b 335 711 57 575 132 711 b 560 639 428 711 499 683 l 585 694 l 676 694 l 676 -347 l 521 -347 l 521 38 b 335 -17 471 6 404 -17 m 371 115 b 521 156 444 115 493 140 l 521 539 b 371 579 493 554 444 579 b 214 347 235 579 214 476 b 371 115 214 219 235 115 "},"r":{"ha":508,"x_min":0,"x_max":0,"o":"m 486 569 b 410 578 469 575 442 578 b 232 536 328 578 267 558 l 232 0 l 76 0 l 76 694 l 168 694 l 193 639 b 413 711 244 681 322 711 b 486 703 442 711 467 707 "},"s":{"ha":646,"x_min":0,"x_max":0,"o":"m 210 494 b 325 417 210 446 235 425 b 588 207 533 399 588 336 b 292 -17 588 88 514 -17 b 63 21 196 -17 110 1 l 63 154 b 269 115 108 138 182 115 b 435 201 381 115 435 140 b 319 288 435 253 413 279 b 58 490 110 306 58 371 b 340 711 58 610 136 711 b 556 676 435 711 501 700 l 556 542 b 343 581 496 564 431 581 b 210 494 261 581 210 557 "},"t":{"ha":528,"x_min":0,"x_max":0,"o":"m 475 -7 b 389 -17 451 -12 413 -17 b 144 200 235 -17 144 50 l 144 563 l 18 563 l 18 658 l 144 694 l 144 860 l 300 904 l 300 694 l 496 694 l 496 563 l 300 563 l 300 218 b 414 115 300 149 335 115 b 475 121 438 115 458 118 "},"u":{"ha":728,"x_min":0,"x_max":0,"o":"m 226 694 l 226 218 b 336 115 226 147 263 115 b 496 156 408 115 458 135 l 496 694 l 651 694 l 651 0 l 560 0 l 535 56 b 310 -17 464 7 385 -17 b 71 204 133 -17 71 71 l 71 694 "},"v":{"ha":694,"x_min":0,"x_max":0,"o":"m 186 694 l 347 192 l 508 694 l 676 694 l 411 -12 l 283 -12 l 18 694 "},"w":{"ha":967,"x_min":0,"x_max":0,"o":"m 339 -12 l 207 -12 l 25 694 l 183 694 l 278 217 l 413 694 l 554 694 l 689 217 l 783 694 l 942 694 l 760 -12 l 628 -12 l 483 511 "},"x":{"ha":708,"x_min":0,"x_max":0,"o":"m 354 257 l 200 0 l 21 0 l 257 357 l 36 694 l 213 694 l 354 453 l 496 694 l 672 694 l 451 357 l 688 0 l 508 0 "},"y":{"ha":694,"x_min":0,"x_max":0,"o":"m 190 694 l 347 199 l 504 694 l 676 694 l 279 -347 l 106 -347 l 278 24 l 18 694 "},"z":{"ha":610,"x_min":0,"x_max":0,"o":"m 24 0 l 24 110 l 376 558 l 49 557 l 49 694 l 576 694 l 576 585 l 224 136 l 592 138 l 592 0 "},"á":{"ha":689,"x_min":0,"x_max":0,"o":"m 461 479 b 325 578 461 550 428 578 b 108 536 235 578 161 557 l 108 671 b 336 711 163 694 254 711 b 617 464 564 711 617 611 l 617 0 l 525 0 l 500 56 b 290 -17 444 10 367 -17 b 51 206 111 -17 51 94 b 306 432 51 356 149 419 l 461 444 l 461 479 m 315 321 b 206 214 246 313 206 286 b 313 111 206 161 228 111 b 461 157 375 111 418 129 l 461 338 m 275 764 l 356 1042 l 543 1042 l 406 764 "},"à":{"ha":689,"x_min":0,"x_max":0,"o":"m 461 479 b 325 578 461 550 428 578 b 108 536 235 578 161 557 l 108 671 b 336 711 163 694 254 711 b 617 464 564 711 617 611 l 617 0 l 525 0 l 500 56 b 290 -17 444 10 367 -17 b 51 206 111 -17 51 94 b 306 432 51 356 149 419 l 461 444 l 461 479 m 315 321 b 206 214 246 313 206 286 b 313 111 206 161 228 111 b 461 157 375 111 418 129 l 461 338 m 275 764 l 138 1042 l 325 1042 l 406 764 "},"â":{"ha":689,"x_min":0,"x_max":0,"o":"m 461 479 b 325 578 461 550 428 578 b 108 536 235 578 161 557 l 108 671 b 336 711 163 694 254 711 b 617 464 564 711 617 611 l 617 0 l 525 0 l 500 56 b 290 -17 444 10 367 -17 b 51 206 111 -17 51 94 b 306 432 51 356 149 419 l 461 444 l 461 479 m 340 921 l 211 764 l 79 764 l 261 1042 l 419 1042 l 601 764 l 469 764 m 315 321 b 206 214 246 313 206 286 b 313 111 206 161 228 111 b 461 157 375 111 418 129 l 461 338 "},"ä":{"ha":689,"x_min":0,"x_max":0,"o":"m 461 479 b 325 578 461 550 428 578 b 108 536 235 578 161 557 l 108 671 b 336 711 163 694 254 711 b 617 464 564 711 617 611 l 617 0 l 525 0 l 500 56 b 290 -17 444 10 367 -17 b 51 206 111 -17 51 94 b 306 432 51 356 149 419 l 461 444 l 461 479 m 315 321 b 206 214 246 313 206 286 b 313 111 206 161 228 111 b 461 157 375 111 418 129 l 461 338 m 92 900 b 193 1001 92 956 138 1001 b 294 900 249 1001 294 956 b 193 799 294 844 249 799 b 92 900 138 799 92 844 m 386 900 b 488 1001 386 956 432 1001 b 589 900 543 1001 589 956 b 488 799 589 844 543 799 b 386 900 432 799 386 844 "},"ã":{"ha":689,"x_min":0,"x_max":0,"o":"m 461 479 b 325 578 461 550 428 578 b 108 536 235 578 161 557 l 108 671 b 336 711 163 694 254 711 b 617 464 564 711 617 611 l 617 0 l 525 0 l 500 56 b 290 -17 444 10 367 -17 b 51 206 111 -17 51 94 b 306 432 51 356 149 419 l 461 444 l 461 479 m 315 321 b 206 214 246 313 206 286 b 313 111 206 161 228 111 b 461 157 375 111 418 129 l 461 338 m 622 982 b 453 788 622 869 579 788 b 229 890 331 788 303 890 b 163 815 169 890 163 850 l 58 815 b 228 1010 58 928 101 1010 b 451 907 350 1010 378 907 b 518 982 511 907 518 947 "},"å":{"ha":689,"x_min":0,"x_max":0,"o":"m 461 479 b 325 578 461 550 428 578 b 108 536 235 578 161 557 l 108 671 b 336 711 163 694 254 711 b 617 464 564 711 617 611 l 617 0 l 525 0 l 500 56 b 290 -17 444 10 367 -17 b 51 206 111 -17 51 94 b 306 432 51 356 149 419 l 461 444 l 461 479 m 315 321 b 206 214 246 313 206 286 b 313 111 206 161 228 111 b 461 157 375 111 418 129 l 461 338 m 486 903 b 340 760 486 806 426 760 b 194 903 256 760 194 806 b 340 1046 194 1000 256 1046 b 486 903 426 1046 486 1000 m 288 903 b 340 851 288 865 308 851 b 394 903 372 851 394 865 b 340 954 394 940 372 954 b 288 903 308 954 288 940 "},"ǎ":{"ha":689,"x_min":0,"x_max":0,"o":"m 461 479 b 325 578 461 550 428 578 b 108 536 235 578 161 557 l 108 671 b 336 711 163 694 254 711 b 617 464 564 711 617 611 l 617 0 l 525 0 l 500 56 b 290 -17 444 10 367 -17 b 51 206 111 -17 51 94 b 306 432 51 356 149 419 l 461 444 l 461 479 m 469 1042 l 601 1042 l 419 764 l 261 764 l 79 1042 l 211 1042 l 340 885 m 315 321 b 206 214 246 313 206 286 b 313 111 206 161 228 111 b 461 157 375 111 418 129 l 461 338 "},"ā":{"ha":689,"x_min":0,"x_max":0,"o":"m 461 479 b 325 578 461 550 428 578 b 108 536 235 578 161 557 l 108 671 b 336 711 163 694 254 711 b 617 464 564 711 617 611 l 617 0 l 525 0 l 500 56 b 290 -17 444 10 367 -17 b 51 206 111 -17 51 94 b 306 432 51 356 149 419 l 461 444 l 461 479 m 315 321 b 206 214 246 313 206 286 b 313 111 206 161 228 111 b 461 157 375 111 418 129 l 461 338 m 138 964 l 543 964 l 543 840 l 138 840 "},"ă":{"ha":689,"x_min":0,"x_max":0,"o":"m 461 479 b 325 578 461 550 428 578 b 108 536 235 578 161 557 l 108 671 b 336 711 163 694 254 711 b 617 464 564 711 617 611 l 617 0 l 525 0 l 500 56 b 290 -17 444 10 367 -17 b 51 206 111 -17 51 94 b 306 432 51 356 149 419 l 461 444 l 461 479 m 315 321 b 206 214 246 313 206 286 b 313 111 206 161 228 111 b 461 157 375 111 418 129 l 461 338 m 340 764 b 86 1042 157 764 89 842 l 193 1042 b 340 888 194 936 231 888 b 488 1042 450 888 486 936 l 594 1042 b 340 764 592 842 524 764 "},"ȃ":{"ha":689,"x_min":0,"x_max":0,"o":"m 461 479 b 325 578 461 550 428 578 b 108 536 235 578 161 557 l 108 671 b 336 711 163 694 254 711 b 617 464 564 711 617 611 l 617 0 l 525 0 l 500 56 b 290 -17 444 10 367 -17 b 51 206 111 -17 51 94 b 306 432 51 356 149 419 l 461 444 l 461 479 m 315 321 b 206 214 246 313 206 286 b 313 111 206 161 228 111 b 461 157 375 111 418 129 l 461 338 m 340 1042 b 594 764 524 1042 592 964 l 488 764 b 340 918 486 869 450 918 b 193 764 231 918 194 869 l 86 764 b 340 1042 89 964 157 1042 "},"":{"ha":689,"x_min":0,"x_max":0,"o":"m 461 479 b 325 578 461 550 428 578 b 108 536 235 578 161 557 l 108 671 b 336 711 163 694 254 711 b 617 464 564 711 617 611 l 617 0 l 525 0 l 500 56 b 290 -17 444 10 367 -17 b 51 206 111 -17 51 94 b 306 432 51 356 149 419 l 461 444 l 461 479 m 315 321 b 206 214 246 313 206 286 b 313 111 206 161 228 111 b 461 157 375 111 418 129 l 461 338 m 393 764 l 256 1042 l 443 1042 l 524 764 m 157 764 l 19 1042 l 207 1042 l 288 764 "},"":{"ha":689,"x_min":0,"x_max":0,"o":"m 239 900 b 340 1001 239 956 285 1001 b 442 900 396 1001 442 956 b 340 799 442 844 396 799 b 239 900 285 799 239 844 m 461 479 b 325 578 461 550 428 578 b 108 536 235 578 161 557 l 108 671 b 336 711 163 694 254 711 b 617 464 564 711 617 611 l 617 0 l 525 0 l 500 56 b 290 -17 444 10 367 -17 b 51 206 111 -17 51 94 b 306 432 51 356 149 419 l 461 444 l 461 479 m 315 321 b 206 214 246 313 206 286 b 313 111 206 161 228 111 b 461 157 375 111 418 129 l 461 338 "},"ǻ":{"ha":689,"x_min":0,"x_max":0,"o":"m 461 479 b 325 578 461 550 428 578 b 108 536 235 578 161 557 l 108 671 b 336 711 163 694 254 711 b 617 464 564 711 617 611 l 617 0 l 525 0 l 500 56 b 290 -17 444 10 367 -17 b 51 206 111 -17 51 94 b 306 432 51 356 149 419 l 461 444 l 461 479 m 486 903 b 340 760 486 806 426 760 b 194 903 256 760 194 806 b 200 950 194 922 197 940 l 269 1164 l 408 1164 l 347 1046 b 486 903 439 1042 486 990 m 315 321 b 206 214 246 313 206 286 b 313 111 206 161 228 111 b 461 157 375 111 418 129 l 461 338 m 288 903 b 340 851 288 865 308 851 b 394 903 372 851 394 865 b 340 954 394 940 372 954 b 288 903 308 954 288 940 "},"ǟ":{"ha":689,"x_min":0,"x_max":0,"o":"m 461 479 b 325 578 461 550 428 578 b 108 536 235 578 161 557 l 108 671 b 336 711 163 694 254 711 b 617 464 564 711 617 611 l 617 0 l 525 0 l 500 56 b 290 -17 444 10 367 -17 b 51 206 111 -17 51 94 b 306 432 51 356 149 419 l 461 444 l 461 479 m 315 321 b 206 214 246 313 206 286 b 313 111 206 161 228 111 b 461 157 375 111 418 129 l 461 338 m 138 1124 l 543 1124 l 543 1000 l 138 1000 m 92 860 b 193 961 92 915 138 961 b 294 860 249 961 294 915 b 193 758 294 804 249 758 b 92 860 138 758 92 804 m 386 860 b 488 961 386 915 432 961 b 589 860 543 961 589 915 b 488 758 589 804 543 758 b 386 860 432 758 386 804 "},"ą":{"ha":689,"x_min":0,"x_max":0,"o":"m 461 479 b 325 578 461 550 428 578 b 108 536 235 578 161 557 l 108 671 b 336 711 163 694 254 711 b 617 464 564 711 617 611 l 617 0 b 469 -174 540 -35 469 -89 b 547 -244 469 -215 497 -244 b 635 -232 586 -244 618 -237 l 635 -326 b 517 -347 613 -335 576 -347 b 346 -196 424 -347 346 -296 b 511 29 346 -125 383 -40 l 500 56 b 290 -17 444 10 367 -17 b 51 206 111 -17 51 94 b 306 432 51 356 149 419 l 461 444 l 461 479 m 315 321 b 206 214 246 313 206 286 b 313 111 206 161 228 111 b 461 157 375 111 418 129 l 461 338 "},"æ":{"ha":1113,"x_min":0,"x_max":0,"o":"m 322 294 b 206 203 233 294 206 258 b 313 111 206 150 225 111 b 482 175 375 111 432 132 b 461 294 471 207 463 242 m 776 -17 b 540 69 665 -17 589 14 b 290 -17 463 4 375 -17 b 51 197 111 -17 51 89 b 310 403 51 343 142 403 l 461 403 l 461 479 b 325 578 461 549 432 578 b 108 536 236 578 161 557 l 108 671 b 336 711 163 694 254 711 b 561 643 450 711 522 686 b 769 711 613 694 696 710 b 1053 358 1014 711 1053 550 b 1050 290 1053 335 1051 313 l 618 290 b 800 118 621 186 658 118 b 1021 160 888 118 960 133 l 1021 26 b 776 -17 942 -7 851 -17 m 769 576 b 618 399 656 576 624 503 l 896 399 b 769 576 896 493 890 576 "},"ǽ":{"ha":1113,"x_min":0,"x_max":0,"o":"m 322 294 b 206 203 233 294 206 258 b 313 111 206 150 225 111 b 482 175 375 111 432 132 b 461 294 471 207 463 242 m 776 -17 b 540 69 665 -17 589 14 b 290 -17 463 4 375 -17 b 51 197 111 -17 51 89 b 310 403 51 343 142 403 l 461 403 l 461 479 b 325 578 461 549 432 578 b 108 536 236 578 161 557 l 108 671 b 336 711 163 694 254 711 b 561 643 450 711 522 686 b 769 711 613 694 696 710 b 1053 358 1014 711 1053 550 b 1050 290 1053 335 1051 313 l 618 290 b 800 118 621 186 658 118 b 1021 160 888 118 960 133 l 1021 26 b 776 -17 942 -7 851 -17 m 769 576 b 618 399 656 576 624 503 l 896 399 b 769 576 896 493 890 576 m 494 764 l 575 1042 l 763 1042 l 625 764 "},"ǣ":{"ha":1113,"x_min":0,"x_max":0,"o":"m 322 294 b 206 203 233 294 206 258 b 313 111 206 150 225 111 b 482 175 375 111 432 132 b 461 294 471 207 463 242 m 776 -17 b 540 69 665 -17 589 14 b 290 -17 463 4 375 -17 b 51 197 111 -17 51 89 b 310 403 51 343 142 403 l 461 403 l 461 479 b 325 578 461 549 432 578 b 108 536 236 578 161 557 l 108 671 b 336 711 163 694 254 711 b 561 643 450 711 522 686 b 769 711 613 694 696 710 b 1053 358 1014 711 1053 550 b 1050 290 1053 335 1051 313 l 618 290 b 800 118 621 186 658 118 b 1021 160 888 118 960 133 l 1021 26 b 776 -17 942 -7 851 -17 m 769 576 b 618 399 656 576 624 503 l 896 399 b 769 576 896 493 890 576 m 357 964 l 763 964 l 763 840 l 357 840 "},"ć":{"ha":625,"x_min":0,"x_max":0,"o":"m 214 347 b 388 121 214 213 253 121 b 569 153 468 121 519 133 l 569 18 b 378 -17 515 -6 450 -17 b 57 347 132 -17 57 131 b 378 711 57 564 132 711 b 569 676 450 711 515 700 l 569 542 b 388 574 519 561 468 574 b 214 347 253 574 214 482 m 292 764 l 372 1042 l 560 1042 l 422 764 "},"ĉ":{"ha":625,"x_min":0,"x_max":0,"o":"m 214 347 b 388 121 214 213 253 121 b 569 153 468 121 519 133 l 569 18 b 378 -17 515 -6 450 -17 b 57 347 132 -17 57 131 b 378 711 57 564 132 711 b 569 676 450 711 515 700 l 569 542 b 388 574 519 561 468 574 b 214 347 253 574 214 482 m 365 921 l 236 764 l 104 764 l 286 1042 l 444 1042 l 626 764 l 494 764 "},"č":{"ha":625,"x_min":0,"x_max":0,"o":"m 214 347 b 388 121 214 213 253 121 b 569 153 468 121 519 133 l 569 18 b 378 -17 515 -6 450 -17 b 57 347 132 -17 57 131 b 378 711 57 564 132 711 b 569 676 450 711 515 700 l 569 542 b 388 574 519 561 468 574 b 214 347 253 574 214 482 m 486 1042 l 618 1042 l 436 764 l 278 764 l 96 1042 l 228 1042 l 357 885 "},"ċ":{"ha":625,"x_min":0,"x_max":0,"o":"m 256 900 b 357 1001 256 956 301 1001 b 458 900 413 1001 458 956 b 357 799 458 844 413 799 b 256 900 301 799 256 844 m 214 347 b 388 121 214 213 253 121 b 569 153 468 121 519 133 l 569 18 b 378 -17 515 -6 450 -17 b 57 347 132 -17 57 131 b 378 711 57 564 132 711 b 569 676 450 711 515 700 l 569 542 b 388 574 519 561 468 574 b 214 347 253 574 214 482 "},"ç":{"ha":625,"x_min":0,"x_max":0,"o":"m 214 347 b 388 121 214 213 253 121 b 569 153 468 121 519 133 l 569 18 b 389 -17 518 -4 457 -15 l 393 -83 b 522 -212 464 -100 522 -136 b 357 -347 522 -301 454 -347 b 222 -321 289 -347 242 -331 l 222 -215 b 336 -240 236 -221 283 -240 b 411 -199 383 -240 411 -229 b 299 -131 411 -156 375 -140 l 311 -12 b 57 347 118 13 57 151 b 378 711 57 564 132 711 b 569 676 450 711 515 700 l 569 542 b 388 574 519 561 468 574 b 214 347 253 574 214 482 "},"ď":{"ha":767,"x_min":0,"x_max":0,"o":"m 883 1042 l 817 764 l 739 764 l 761 1042 m 335 711 b 521 657 404 711 471 689 l 521 1042 l 676 1042 l 676 0 l 585 0 l 560 56 b 335 -17 499 11 428 -17 b 57 347 132 -17 57 119 b 335 711 57 574 132 711 m 371 579 b 214 347 235 579 214 475 b 371 115 214 218 235 115 b 521 156 444 115 493 140 l 521 539 b 371 579 493 554 444 579 "},"ḑ":{"ha":753,"x_min":0,"x_max":0,"o":"m 335 711 b 521 657 404 711 471 689 l 521 1042 l 676 1042 l 676 0 l 585 0 l 560 56 b 335 -17 499 11 428 -17 b 57 347 132 -17 57 119 b 335 711 57 574 132 711 m 371 579 b 214 347 235 579 214 475 b 371 115 214 218 235 115 b 521 156 444 115 493 140 l 521 539 b 371 579 493 554 444 579 m 324 -61 b 540 -212 485 -75 540 -137 b 375 -347 540 -301 472 -347 b 240 -321 307 -347 260 -331 l 240 -215 b 354 -240 254 -221 301 -240 b 429 -199 401 -240 429 -229 b 317 -131 429 -156 393 -140 "},"ḍ":{"ha":753,"x_min":0,"x_max":0,"o":"m 335 711 b 521 657 404 711 471 689 l 521 1042 l 676 1042 l 676 0 l 585 0 l 560 56 b 335 -17 499 11 428 -17 b 57 347 132 -17 57 119 b 335 711 57 574 132 711 m 371 579 b 214 347 235 579 214 475 b 371 115 214 218 235 115 b 521 156 444 115 493 140 l 521 539 b 371 579 493 554 444 579 m 476 -206 b 375 -307 476 -261 431 -307 b 274 -206 319 -307 274 -261 b 375 -104 274 -150 319 -104 b 476 -206 431 -104 476 -150 "},"đ":{"ha":753,"x_min":0,"x_max":0,"o":"m 800 801 l 676 801 l 676 0 l 585 0 l 560 56 b 335 -17 499 11 428 -17 b 57 347 132 -17 57 119 b 335 711 57 574 132 711 b 521 657 404 711 471 689 l 521 801 l 351 801 l 351 918 l 521 918 l 521 1042 l 676 1042 l 676 918 l 800 918 m 371 579 b 214 347 235 579 214 475 b 371 115 214 218 235 115 b 521 156 444 115 493 140 l 521 539 b 371 579 493 554 444 579 "},"é":{"ha":708,"x_min":0,"x_max":0,"o":"m 57 347 b 365 711 57 571 139 711 b 649 358 610 711 649 550 b 646 290 649 335 647 313 l 214 290 b 396 118 217 186 254 118 b 617 160 483 118 556 133 l 617 26 b 372 -17 538 -7 447 -17 b 57 347 140 -17 57 122 m 365 576 b 214 399 251 576 219 503 l 492 399 b 365 576 492 493 486 576 m 300 764 l 381 1042 l 568 1042 l 431 764 "},"è":{"ha":708,"x_min":0,"x_max":0,"o":"m 57 347 b 365 711 57 571 139 711 b 649 358 610 711 649 550 b 646 290 649 335 647 313 l 214 290 b 396 118 217 186 254 118 b 617 160 483 118 556 133 l 617 26 b 372 -17 538 -7 447 -17 b 57 347 140 -17 57 122 m 365 576 b 214 399 251 576 219 503 l 492 399 b 365 576 492 493 486 576 m 300 764 l 163 1042 l 350 1042 l 431 764 "},"ê":{"ha":708,"x_min":0,"x_max":0,"o":"m 57 347 b 365 711 57 571 139 711 b 649 358 610 711 649 550 b 646 290 649 335 647 313 l 214 290 b 396 118 217 186 254 118 b 617 160 483 118 556 133 l 617 26 b 372 -17 538 -7 447 -17 b 57 347 140 -17 57 122 m 365 921 l 236 764 l 104 764 l 286 1042 l 444 1042 l 626 764 l 494 764 m 365 576 b 214 399 251 576 219 503 l 492 399 b 365 576 492 493 486 576 "},"ë":{"ha":708,"x_min":0,"x_max":0,"o":"m 57 347 b 365 711 57 571 139 711 b 649 358 610 711 649 550 b 646 290 649 335 647 313 l 214 290 b 396 118 217 186 254 118 b 617 160 483 118 556 133 l 617 26 b 372 -17 538 -7 447 -17 b 57 347 140 -17 57 122 m 365 576 b 214 399 251 576 219 503 l 492 399 b 365 576 492 493 486 576 m 117 900 b 218 1001 117 956 163 1001 b 319 900 274 1001 319 956 b 218 799 319 844 274 799 b 117 900 163 799 117 844 m 411 900 b 513 1001 411 956 457 1001 b 614 900 568 1001 614 956 b 513 799 614 844 568 799 b 411 900 457 799 411 844 "},"ě":{"ha":708,"x_min":0,"x_max":0,"o":"m 57 347 b 365 711 57 571 139 711 b 649 358 610 711 649 550 b 646 290 649 335 647 313 l 214 290 b 396 118 217 186 254 118 b 617 160 483 118 556 133 l 617 26 b 372 -17 538 -7 447 -17 b 57 347 140 -17 57 122 m 494 1042 l 626 1042 l 444 764 l 286 764 l 104 1042 l 236 1042 l 365 885 m 365 576 b 214 399 251 576 219 503 l 492 399 b 365 576 492 493 486 576 "},"ē":{"ha":708,"x_min":0,"x_max":0,"o":"m 57 347 b 365 711 57 571 139 711 b 649 358 610 711 649 550 b 646 290 649 335 647 313 l 214 290 b 396 118 217 186 254 118 b 617 160 483 118 556 133 l 617 26 b 372 -17 538 -7 447 -17 b 57 347 140 -17 57 122 m 365 576 b 214 399 251 576 219 503 l 492 399 b 365 576 492 493 486 576 m 163 964 l 568 964 l 568 840 l 163 840 "},"ĕ":{"ha":708,"x_min":0,"x_max":0,"o":"m 57 347 b 365 711 57 571 139 711 b 649 358 610 711 649 550 b 646 290 649 335 647 313 l 214 290 b 396 118 217 186 254 118 b 617 160 483 118 556 133 l 617 26 b 372 -17 538 -7 447 -17 b 57 347 140 -17 57 122 m 365 576 b 214 399 251 576 219 503 l 492 399 b 365 576 492 493 486 576 m 365 764 b 111 1042 182 764 114 842 l 218 1042 b 365 888 219 936 256 888 b 513 1042 475 888 511 936 l 619 1042 b 365 764 617 842 549 764 "},"ȇ":{"ha":708,"x_min":0,"x_max":0,"o":"m 57 347 b 365 711 57 571 139 711 b 649 358 610 711 649 550 b 646 290 649 335 647 313 l 214 290 b 396 118 217 186 254 118 b 617 160 483 118 556 133 l 617 26 b 372 -17 538 -7 447 -17 b 57 347 140 -17 57 122 m 365 576 b 214 399 251 576 219 503 l 492 399 b 365 576 492 493 486 576 m 365 1042 b 619 764 549 1042 617 964 l 513 764 b 365 918 511 869 475 918 b 218 764 256 918 219 869 l 111 764 b 365 1042 114 964 182 1042 "},"":{"ha":708,"x_min":0,"x_max":0,"o":"m 57 347 b 365 711 57 571 139 711 b 649 358 610 711 649 550 b 646 290 649 335 647 313 l 214 290 b 396 118 217 186 254 118 b 617 160 483 118 556 133 l 617 26 b 372 -17 538 -7 447 -17 b 57 347 140 -17 57 122 m 365 576 b 214 399 251 576 219 503 l 492 399 b 365 576 492 493 486 576 m 418 764 l 281 1042 l 468 1042 l 549 764 m 182 764 l 44 1042 l 232 1042 l 313 764 "},"ė":{"ha":708,"x_min":0,"x_max":0,"o":"m 57 347 b 365 711 57 571 139 711 b 649 358 610 711 649 550 b 646 290 649 335 647 313 l 214 290 b 396 118 217 186 254 118 b 617 160 483 118 556 133 l 617 26 b 372 -17 538 -7 447 -17 b 57 347 140 -17 57 122 m 365 576 b 214 399 251 576 219 503 l 492 399 b 365 576 492 493 486 576 m 264 900 b 365 1001 264 956 310 1001 b 467 900 421 1001 467 956 b 365 799 467 844 421 799 b 264 900 310 799 264 844 "},"":{"ha":708,"x_min":0,"x_max":0,"o":"m 57 347 b 365 711 57 571 139 711 b 649 358 610 711 649 550 b 646 290 649 335 647 313 l 214 290 b 396 118 217 186 254 118 b 617 160 483 118 556 133 l 617 26 b 372 -17 538 -7 447 -17 b 57 347 140 -17 57 122 m 365 576 b 214 399 251 576 219 503 l 492 399 b 365 576 492 493 486 576 m 467 -206 b 365 -307 467 -261 421 -307 b 264 -206 310 -307 264 -261 b 365 -104 264 -150 310 -104 b 467 -206 421 -104 467 -150 m 300 764 l 381 1042 l 568 1042 l 431 764 "},"":{"ha":708,"x_min":0,"x_max":0,"o":"m 57 347 b 365 711 57 571 139 711 b 649 358 610 711 649 550 b 646 290 649 335 647 313 l 214 290 b 396 118 217 186 254 118 b 617 160 483 118 556 133 l 617 26 b 372 -17 538 -7 447 -17 b 57 347 140 -17 57 122 m 365 576 b 214 399 251 576 219 503 l 492 399 b 365 576 492 493 486 576 m 467 -206 b 365 -307 467 -261 421 -307 b 264 -206 310 -307 264 -261 b 365 -104 264 -150 310 -104 b 467 -206 421 -104 467 -150 m 300 764 l 163 1042 l 350 1042 l 431 764 "},"ę":{"ha":708,"x_min":0,"x_max":0,"o":"m 57 347 b 365 711 57 571 139 711 b 649 358 610 711 649 550 b 646 290 649 335 647 313 l 214 290 b 396 118 217 186 254 118 b 617 160 483 118 556 133 l 617 26 b 531 0 589 14 560 6 b 385 -174 454 -35 385 -89 b 463 -244 385 -215 413 -244 b 550 -232 501 -244 533 -237 l 550 -326 b 432 -347 528 -335 492 -347 b 261 -196 339 -347 261 -296 b 357 -17 261 -140 285 -75 b 57 347 136 -11 57 126 m 365 576 b 214 399 251 576 219 503 l 492 399 b 365 576 492 493 486 576 "},"ǵ":{"ha":728,"x_min":0,"x_max":0,"o":"m 631 447 b 340 183 631 289 553 183 b 260 189 311 183 283 185 b 240 149 249 178 240 163 b 282 108 240 125 253 113 l 533 78 b 719 -117 671 61 719 -1 b 329 -364 719 -296 531 -364 b 8 -161 143 -364 8 -304 b 153 11 8 -67 79 -11 l 153 13 b 99 108 118 32 99 71 b 161 221 99 160 129 196 b 50 447 82 265 50 346 b 340 711 50 606 128 711 b 468 694 390 711 432 706 l 708 694 l 708 596 l 610 568 b 631 447 624 532 631 492 m 292 -21 b 157 -132 221 -33 157 -65 b 340 -240 157 -210 213 -240 b 569 -121 463 -240 569 -204 b 489 -46 569 -74 546 -53 m 197 447 b 340 307 197 368 224 307 b 483 447 457 307 483 368 b 340 588 483 526 457 588 b 197 447 224 588 197 526 m 275 764 l 356 1042 l 543 1042 l 406 764 "},"ĝ":{"ha":728,"x_min":0,"x_max":0,"o":"m 631 447 b 340 183 631 289 553 183 b 260 189 311 183 283 185 b 240 149 249 178 240 163 b 282 108 240 125 253 113 l 533 78 b 719 -117 671 61 719 -1 b 329 -364 719 -296 531 -364 b 8 -161 143 -364 8 -304 b 153 11 8 -67 79 -11 l 153 13 b 99 108 118 32 99 71 b 161 221 99 160 129 196 b 50 447 82 265 50 346 b 340 711 50 606 128 711 b 468 694 390 711 432 706 l 708 694 l 708 596 l 610 568 b 631 447 624 532 631 492 m 340 921 l 211 764 l 79 764 l 261 1042 l 419 1042 l 601 764 l 469 764 m 292 -21 b 157 -132 221 -33 157 -65 b 340 -240 157 -210 213 -240 b 569 -121 463 -240 569 -204 b 489 -46 569 -74 546 -53 m 197 447 b 340 307 197 368 224 307 b 483 447 457 307 483 368 b 340 588 483 526 457 588 b 197 447 224 588 197 526 "},"":{"ha":728,"x_min":0,"x_max":0,"o":"m 631 447 b 340 183 631 289 553 183 b 260 189 311 183 283 185 b 240 149 249 178 240 163 b 282 108 240 125 253 113 l 533 78 b 719 -117 671 61 719 -1 b 329 -364 719 -296 531 -364 b 8 -161 143 -364 8 -304 b 153 11 8 -67 79 -11 l 153 13 b 99 108 118 32 99 71 b 161 221 99 160 129 196 b 50 447 82 265 50 346 b 340 711 50 606 128 711 b 468 694 390 711 432 706 l 708 694 l 708 596 l 610 568 b 631 447 624 532 631 492 m 622 982 b 453 788 622 869 579 788 b 229 890 331 788 303 890 b 163 815 169 890 163 850 l 58 815 b 228 1010 58 928 101 1010 b 451 907 350 1010 378 907 b 518 982 511 907 518 947 m 292 -21 b 157 -132 221 -33 157 -65 b 340 -240 157 -210 213 -240 b 569 -121 463 -240 569 -204 b 489 -46 569 -74 546 -53 m 197 447 b 340 307 197 368 224 307 b 483 447 457 307 483 368 b 340 588 483 526 457 588 b 197 447 224 588 197 526 "},"ǧ":{"ha":728,"x_min":0,"x_max":0,"o":"m 631 447 b 340 183 631 289 553 183 b 260 189 311 183 283 185 b 240 149 249 178 240 163 b 282 108 240 125 253 113 l 533 78 b 719 -117 671 61 719 -1 b 329 -364 719 -296 531 -364 b 8 -161 143 -364 8 -304 b 153 11 8 -67 79 -11 l 153 13 b 99 108 118 32 99 71 b 161 221 99 160 129 196 b 50 447 82 265 50 346 b 340 711 50 606 128 711 b 468 694 390 711 432 706 l 708 694 l 708 596 l 610 568 b 631 447 624 532 631 492 m 469 1042 l 601 1042 l 419 764 l 261 764 l 79 1042 l 211 1042 l 340 885 m 292 -21 b 157 -132 221 -33 157 -65 b 340 -240 157 -210 213 -240 b 569 -121 463 -240 569 -204 b 489 -46 569 -74 546 -53 m 197 447 b 340 307 197 368 224 307 b 483 447 457 307 483 368 b 340 588 483 526 457 588 b 197 447 224 588 197 526 "},"ğ":{"ha":728,"x_min":0,"x_max":0,"o":"m 631 447 b 340 183 631 289 553 183 b 260 189 311 183 283 185 b 240 149 249 178 240 163 b 282 108 240 125 253 113 l 533 78 b 719 -117 671 61 719 -1 b 329 -364 719 -296 531 -364 b 8 -161 143 -364 8 -304 b 153 11 8 -67 79 -11 l 153 13 b 99 108 118 32 99 71 b 161 221 99 160 129 196 b 50 447 82 265 50 346 b 340 711 50 606 128 711 b 468 694 390 711 432 706 l 708 694 l 708 596 l 610 568 b 631 447 624 532 631 492 m 340 764 b 86 1042 157 764 89 842 l 193 1042 b 340 888 194 936 231 888 b 488 1042 450 888 486 936 l 594 1042 b 340 764 592 842 524 764 m 292 -21 b 157 -132 221 -33 157 -65 b 340 -240 157 -210 213 -240 b 569 -121 463 -240 569 -204 b 489 -46 569 -74 546 -53 m 197 447 b 340 307 197 368 224 307 b 483 447 457 307 483 368 b 340 588 483 526 457 588 b 197 447 224 588 197 526 "},"ġ":{"ha":728,"x_min":0,"x_max":0,"o":"m 631 447 b 340 183 631 289 553 183 b 260 189 311 183 283 185 b 240 149 249 178 240 163 b 282 108 240 125 253 113 l 533 78 b 719 -117 671 61 719 -1 b 329 -364 719 -296 531 -364 b 8 -161 143 -364 8 -304 b 153 11 8 -67 79 -11 l 153 13 b 99 108 118 32 99 71 b 161 221 99 160 129 196 b 50 447 82 265 50 346 b 340 711 50 606 128 711 b 468 694 390 711 432 706 l 708 694 l 708 596 l 610 568 b 631 447 624 532 631 492 m 292 -21 b 157 -132 221 -33 157 -65 b 340 -240 157 -210 213 -240 b 569 -121 463 -240 569 -204 b 489 -46 569 -74 546 -53 m 197 447 b 340 307 197 368 224 307 b 483 447 457 307 483 368 b 340 588 483 526 457 588 b 197 447 224 588 197 526 m 239 900 b 340 1001 239 956 285 1001 b 442 900 396 1001 442 956 b 340 799 442 844 396 799 b 239 900 285 799 239 844 "},"ģ":{"ha":728,"x_min":0,"x_max":0,"o":"m 631 447 b 340 183 631 289 553 183 b 260 189 311 183 283 185 b 240 149 249 178 240 163 b 282 108 240 125 253 113 l 533 78 b 719 -117 671 61 719 -1 b 329 -364 719 -296 531 -364 b 8 -161 143 -364 8 -304 b 153 11 8 -67 79 -11 l 153 13 b 99 108 118 32 99 71 b 161 221 99 160 129 196 b 50 447 82 265 50 346 b 340 711 50 606 128 711 b 468 694 390 711 432 706 l 708 694 l 708 596 l 610 568 b 631 447 624 532 631 492 m 292 -21 b 157 -132 221 -33 157 -65 b 340 -240 157 -210 213 -240 b 569 -121 463 -240 569 -204 b 489 -46 569 -74 546 -53 m 197 447 b 340 307 197 368 224 307 b 483 447 457 307 483 368 b 340 588 483 526 457 588 b 197 447 224 588 197 526 m 242 764 l 332 1042 l 456 1042 l 426 764 "},"":{"ha":728,"x_min":0,"x_max":0,"o":"m 631 447 b 340 183 631 289 553 183 b 260 189 311 183 283 185 b 240 149 249 178 240 163 b 282 108 240 125 253 113 l 533 78 b 719 -117 671 61 719 -1 b 329 -364 719 -296 531 -364 b 8 -161 143 -364 8 -304 b 153 11 8 -67 79 -11 l 153 13 b 99 108 118 32 99 71 b 161 221 99 160 129 196 b 50 447 82 265 50 346 b 340 711 50 606 128 711 b 468 694 390 711 432 706 l 708 694 l 708 596 l 610 568 b 631 447 624 532 631 492 m 292 -21 b 157 -132 221 -33 157 -65 b 340 -240 157 -210 213 -240 b 569 -121 463 -240 569 -204 b 489 -46 569 -74 546 -53 m 197 447 b 340 307 197 368 224 307 b 483 447 457 307 483 368 b 340 588 483 526 457 588 b 197 447 224 588 197 526 m 242 764 l 332 1042 l 456 1042 l 426 764 "},"ǥ":{"ha":735,"x_min":0,"x_max":0,"o":"m 789 -192 l 706 -192 b 329 -364 660 -315 499 -364 b 10 -192 157 -364 28 -312 l -61 -192 l -61 -75 l 32 -75 b 153 11 58 -31 106 -3 l 153 13 b 99 108 118 32 99 71 b 161 221 99 160 129 196 b 50 447 82 265 50 346 b 340 711 50 606 128 711 b 468 694 390 711 432 706 l 708 694 l 708 596 l 610 568 b 631 447 624 532 631 492 b 340 183 631 289 553 183 b 260 189 311 183 283 185 b 240 149 249 178 240 163 b 282 108 240 125 253 113 l 533 78 b 717 -75 653 63 706 14 l 789 -75 m 197 447 b 340 307 197 368 224 307 b 483 447 457 307 483 368 b 340 588 483 526 457 588 b 197 447 224 588 197 526 m 292 -21 b 176 -75 244 -29 201 -46 l 557 -75 b 489 -46 544 -58 522 -50 m 340 -240 b 533 -192 419 -240 492 -225 l 174 -192 b 340 -240 199 -225 253 -240 "},"ĥ":{"ha":728,"x_min":0,"x_max":0,"o":"m 501 476 b 392 579 501 547 465 579 b 232 539 319 579 269 560 l 232 0 l 76 0 l 76 1042 l 232 1042 l 232 660 b 418 711 286 692 347 711 b 657 490 594 711 657 624 l 657 0 l 501 0 l 501 476 m 274 1104 l 154 1174 l 35 1104 l -101 1104 l 75 1257 l 233 1257 l 410 1104 "},"":{"ha":728,"x_min":0,"x_max":0,"o":"m 501 476 b 392 579 501 547 465 579 b 232 539 319 579 269 560 l 232 0 l 76 0 l 76 1042 l 232 1042 l 232 660 b 418 711 286 692 347 711 b 657 490 594 711 657 624 l 657 0 l 501 0 l 501 476 m 35 1257 l 154 1188 l 274 1257 l 410 1257 l 233 1104 l 75 1104 l -101 1257 "},"ḥ":{"ha":728,"x_min":0,"x_max":0,"o":"m 501 476 b 392 579 501 547 465 579 b 232 539 319 579 269 560 l 232 0 l 76 0 l 76 1042 l 232 1042 l 232 660 b 418 711 286 692 347 711 b 657 490 594 711 657 624 l 657 0 l 501 0 l 501 476 m 468 -206 b 367 -307 468 -261 422 -307 b 265 -206 311 -307 265 -261 b 367 -104 265 -150 311 -104 b 468 -206 422 -104 468 -150 "},"":{"ha":728,"x_min":0,"x_max":0,"o":"m 501 476 b 392 579 501 547 465 579 b 232 539 319 579 269 560 l 232 0 l 76 0 l 76 1042 l 232 1042 l 232 660 b 418 711 286 692 347 711 b 657 490 594 711 657 624 l 657 0 l 501 0 l 501 476 m 569 -269 l 164 -269 l 164 -146 l 569 -146 "},"ħ":{"ha":728,"x_min":0,"x_max":0,"o":"m -47 918 l 76 918 l 76 1042 l 232 1042 l 232 918 l 401 918 l 401 801 l 232 801 l 232 660 b 418 711 286 692 347 711 b 657 490 594 711 657 624 l 657 0 l 501 0 l 501 476 b 392 579 501 547 465 579 b 232 539 319 579 269 560 l 232 0 l 76 0 l 76 801 l -47 801 "},"ı":{"ha":357,"x_min":0,"x_max":0,"o":"m 274 -10 b 90 171 147 -10 90 51 l 90 694 l 246 694 l 246 172 b 304 119 246 133 260 119 l 304 -7 b 274 -10 304 -7 290 -10 "},"í":{"ha":357,"x_min":0,"x_max":0,"o":"m 103 764 l 183 1042 l 371 1042 l 233 764 m 274 -10 b 90 171 147 -10 90 51 l 90 694 l 246 694 l 246 172 b 304 119 246 133 260 119 l 304 -7 b 274 -10 304 -7 290 -10 "},"ì":{"ha":357,"x_min":0,"x_max":0,"o":"m 103 764 l -35 1042 l 153 1042 l 233 764 m 274 -10 b 90 171 147 -10 90 51 l 90 694 l 246 694 l 246 172 b 304 119 246 133 260 119 l 304 -7 b 274 -10 304 -7 290 -10 "},"î":{"ha":357,"x_min":0,"x_max":0,"o":"m 274 -10 b 90 171 147 -10 90 51 l 90 694 l 246 694 l 246 172 b 304 119 246 133 260 119 l 304 -7 b 274 -10 304 -7 290 -10 m 168 921 l 39 764 l -93 764 l 89 1042 l 247 1042 l 429 764 l 297 764 "},"ï":{"ha":357,"x_min":0,"x_max":0,"o":"m 274 -10 b 90 171 147 -10 90 51 l 90 694 l 246 694 l 246 172 b 304 119 246 133 260 119 l 304 -7 b 274 -10 304 -7 290 -10 m -67 900 b 35 1001 -67 956 -21 1001 b 136 900 90 1001 136 956 b 35 799 136 844 90 799 b -67 900 -21 799 -67 844 m 200 900 b 301 1001 200 956 246 1001 b 403 900 357 1001 403 956 b 301 799 403 844 357 799 b 200 900 246 799 200 844 "},"ĩ":{"ha":357,"x_min":0,"x_max":0,"o":"m 450 982 b 281 788 450 869 407 788 b 57 890 158 788 131 890 b -10 815 -3 890 -10 850 l -114 815 b 56 1010 -114 928 -71 1010 b 279 907 178 1010 206 907 b 346 982 339 907 346 947 m 274 -10 b 90 171 147 -10 90 51 l 90 694 l 246 694 l 246 172 b 304 119 246 133 260 119 l 304 -7 b 274 -10 304 -7 290 -10 "},"ǐ":{"ha":357,"x_min":0,"x_max":0,"o":"m 274 -10 b 90 171 147 -10 90 51 l 90 694 l 246 694 l 246 172 b 304 119 246 133 260 119 l 304 -7 b 274 -10 304 -7 290 -10 m 297 1042 l 429 1042 l 247 764 l 89 764 l -93 1042 l 39 1042 l 168 885 "},"ī":{"ha":357,"x_min":0,"x_max":0,"o":"m -35 964 l 371 964 l 371 840 l -35 840 m 274 -10 b 90 171 147 -10 90 51 l 90 694 l 246 694 l 246 172 b 304 119 246 133 260 119 l 304 -7 b 274 -10 304 -7 290 -10 "},"":{"ha":357,"x_min":0,"x_max":0,"o":"m 168 764 b -86 1042 -15 764 -83 842 l 21 1042 b 168 888 22 936 58 888 b 315 1042 278 888 314 936 l 422 1042 b 168 764 419 842 351 764 m 274 -10 b 90 171 147 -10 90 51 l 90 694 l 246 694 l 246 172 b 304 119 246 133 260 119 l 304 -7 b 274 -10 304 -7 290 -10 "},"ȋ":{"ha":357,"x_min":0,"x_max":0,"o":"m 168 1042 b 422 764 351 1042 419 964 l 315 764 b 168 918 314 869 278 918 b 21 764 58 918 22 869 l -86 764 b 168 1042 -83 964 -15 1042 m 274 -10 b 90 171 147 -10 90 51 l 90 694 l 246 694 l 246 172 b 304 119 246 133 260 119 l 304 -7 b 274 -10 304 -7 290 -10 "},"":{"ha":357,"x_min":0,"x_max":0,"o":"m 207 764 l 69 1042 l 257 1042 l 338 764 m -1 764 l -139 1042 l 49 1042 l 129 764 m 274 -10 b 90 171 147 -10 90 51 l 90 694 l 246 694 l 246 172 b 304 119 246 133 260 119 l 304 -7 b 274 -10 304 -7 290 -10 "},"":{"ha":357,"x_min":0,"x_max":0,"o":"m 67 900 b 168 1001 67 956 113 1001 b 269 900 224 1001 269 956 b 168 799 269 844 224 799 b 67 900 113 799 67 844 m 274 -10 b 90 171 147 -10 90 51 l 90 694 l 246 694 l 246 172 b 304 119 246 133 260 119 l 304 -7 b 274 -10 304 -7 290 -10 "},"ị":{"ha":357,"x_min":0,"x_max":0,"o":"m 67 900 b 168 1001 67 956 113 1001 b 269 900 224 1001 269 956 b 168 799 269 844 224 799 b 67 900 113 799 67 844 m 274 -10 b 90 171 147 -10 90 51 l 90 694 l 246 694 l 246 172 b 304 119 246 133 260 119 l 304 -7 b 274 -10 304 -7 290 -10 m 283 -206 b 182 -307 283 -261 238 -307 b 81 -206 126 -307 81 -261 b 182 -104 81 -150 126 -104 b 283 -206 238 -104 283 -150 "},"į":{"ha":357,"x_min":0,"x_max":0,"o":"m 304 -7 b 168 -174 231 -35 168 -114 b 246 -244 168 -215 196 -244 b 333 -232 285 -244 317 -237 l 333 -326 b 215 -347 311 -335 275 -347 b 44 -196 122 -347 44 -296 b 165 13 44 -132 72 -64 b 90 171 114 40 90 93 l 90 694 l 246 694 l 246 172 b 304 119 246 133 260 119 m 67 900 b 168 1001 67 956 113 1001 b 269 900 224 1001 269 956 b 168 799 269 844 224 799 b 67 900 113 799 67 844 "},"ȷ":{"ha":336,"x_min":0,"x_max":0,"o":"m -71 -219 b 90 -81 28 -219 90 -167 l 90 694 l 246 694 l 246 -111 b -71 -364 246 -282 83 -364 "},"ĵ":{"ha":336,"x_min":0,"x_max":0,"o":"m -71 -219 b 90 -81 28 -219 90 -167 l 90 694 l 246 694 l 246 -111 b -71 -364 246 -282 83 -364 m 167 921 l 38 764 l -94 764 l 88 1042 l 246 1042 l 428 764 l 296 764 "},"ǰ":{"ha":336,"x_min":0,"x_max":0,"o":"m -71 -219 b 90 -81 28 -219 90 -167 l 90 694 l 246 694 l 246 -111 b -71 -364 246 -282 83 -364 m 167 885 l 296 1042 l 428 1042 l 246 764 l 88 764 l -94 1042 l 38 1042 "},"ǩ":{"ha":725,"x_min":0,"x_max":0,"o":"m 35 1257 l 154 1188 l 274 1257 l 410 1257 l 233 1104 l 75 1104 l -101 1257 m 397 408 l 708 0 l 515 0 l 299 308 l 232 240 l 232 0 l 76 0 l 76 1042 l 232 1042 l 232 425 l 478 694 l 679 694 "},"ķ":{"ha":725,"x_min":0,"x_max":0,"o":"m 397 408 l 708 0 l 515 0 l 299 308 l 232 240 l 232 0 l 76 0 l 76 1042 l 232 1042 l 232 425 l 478 694 l 679 694 m 464 -69 l 374 -347 l 250 -347 l 279 -69 "},"":{"ha":725,"x_min":0,"x_max":0,"o":"m 397 408 l 708 0 l 515 0 l 299 308 l 232 240 l 232 0 l 76 0 l 76 1042 l 232 1042 l 232 425 l 478 694 l 679 694 m 300 -61 b 517 -212 461 -75 517 -137 b 351 -347 517 -301 449 -347 b 217 -321 283 -347 236 -331 l 217 -215 b 331 -240 231 -221 278 -240 b 406 -199 378 -240 406 -229 b 293 -131 406 -156 369 -140 "},"ƙ":{"ha":725,"x_min":0,"x_max":0,"o":"m 393 914 b 232 775 294 914 232 861 l 232 425 l 478 694 l 679 694 l 397 408 l 708 0 l 515 0 l 299 308 l 232 240 l 232 0 l 76 0 l 76 806 b 393 1058 76 976 239 1058 "},"ĸ":{"ha":725,"x_min":0,"x_max":0,"o":"m 397 408 l 708 0 l 515 0 l 299 308 l 232 240 l 232 0 l 76 0 l 76 694 l 232 694 l 232 425 l 478 694 l 679 694 "},"ĺ":{"ha":357,"x_min":0,"x_max":0,"o":"m 274 -10 b 90 171 147 -10 90 51 l 90 1042 l 246 1042 l 246 172 b 304 119 246 133 260 119 l 304 -7 b 274 -10 304 -7 290 -10 m 103 1104 l 183 1257 l 371 1257 l 233 1104 "},"ľ":{"ha":371,"x_min":0,"x_max":0,"o":"m 274 -10 b 90 171 147 -10 90 51 l 90 1042 l 246 1042 l 246 172 b 304 119 246 133 260 119 l 304 -7 b 274 -10 304 -7 290 -10 m 453 1042 l 386 764 l 308 764 l 331 1042 "},"ļ":{"ha":357,"x_min":0,"x_max":0,"o":"m 274 -10 b 90 171 147 -10 90 51 l 90 1042 l 246 1042 l 246 172 b 304 119 246 133 260 119 l 304 -7 b 274 -10 304 -7 290 -10 m 294 -69 l 204 -347 l 81 -347 l 110 -69 "},"":{"ha":357,"x_min":0,"x_max":0,"o":"m 274 -10 b 90 171 147 -10 90 51 l 90 1042 l 246 1042 l 246 172 b 304 119 246 133 260 119 l 304 -7 b 274 -10 304 -7 290 -10 m 131 -61 b 347 -212 292 -75 347 -137 b 182 -347 347 -301 279 -347 b 47 -321 114 -347 67 -331 l 47 -215 b 161 -240 61 -221 108 -240 b 236 -199 208 -240 236 -229 b 124 -131 236 -156 200 -140 "},"ḷ":{"ha":357,"x_min":0,"x_max":0,"o":"m 274 -10 b 90 171 147 -10 90 51 l 90 1042 l 246 1042 l 246 172 b 304 119 246 133 260 119 l 304 -7 b 274 -10 304 -7 290 -10 m 297 -206 b 196 -307 297 -261 251 -307 b 94 -206 140 -307 94 -261 b 196 -104 94 -150 140 -104 b 297 -206 251 -104 297 -150 "},"ḹ":{"ha":357,"x_min":0,"x_max":0,"o":"m 274 -10 b 90 171 147 -10 90 51 l 90 1042 l 246 1042 l 246 172 b 304 119 246 133 260 119 l 304 -7 b 274 -10 304 -7 290 -10 m 297 -206 b 196 -307 297 -261 251 -307 b 94 -206 140 -307 94 -261 b 196 -104 94 -150 140 -104 b 297 -206 251 -104 297 -150 m -35 1242 l 371 1242 l 371 1118 l -35 1118 "},"ŀ":{"ha":533,"x_min":0,"x_max":0,"o":"m 274 -10 b 90 171 147 -10 90 51 l 90 1042 l 246 1042 l 246 172 b 304 119 246 133 260 119 l 304 -7 b 274 -10 304 -7 290 -10 m 333 425 b 435 526 333 481 379 526 b 536 425 490 526 536 481 b 435 324 536 369 490 324 b 333 425 379 324 333 369 "},"ł":{"ha":422,"x_min":0,"x_max":0,"o":"m 299 -10 b 115 171 172 -10 115 51 l 115 408 l 15 349 l 15 476 l 115 536 l 115 1042 l 271 1042 l 271 628 l 410 711 l 410 583 l 271 500 l 271 172 b 329 119 271 133 285 119 l 329 -7 b 299 -10 329 -7 315 -10 "},"":{"ha":1103,"x_min":0,"x_max":0,"o":"m 876 490 b 778 579 876 556 839 579 b 628 536 710 579 664 558 b 632 460 631 511 632 488 l 632 0 l 476 0 l 476 490 b 378 579 476 556 440 579 b 232 539 314 579 268 560 l 232 0 l 76 0 l 76 694 l 168 694 l 193 639 b 403 711 251 685 335 711 b 581 642 496 711 551 685 b 803 711 643 686 726 711 b 1032 490 967 711 1032 622 l 1032 0 l 876 0 m 349 964 l 754 964 l 754 840 l 349 840 "},"":{"ha":1103,"x_min":0,"x_max":0,"o":"m 876 490 b 778 579 876 556 839 579 b 628 536 710 579 664 558 b 632 460 631 511 632 488 l 632 0 l 476 0 l 476 490 b 378 579 476 556 440 579 b 232 539 314 579 268 560 l 232 0 l 76 0 l 76 694 l 168 694 l 193 639 b 403 711 251 685 335 711 b 581 642 496 711 551 685 b 803 711 643 686 726 711 b 1032 490 967 711 1032 622 l 1032 0 l 876 0 m 501 -61 b 718 -212 663 -75 718 -137 b 553 -347 718 -301 650 -347 b 418 -321 485 -347 438 -331 l 418 -215 b 532 -240 432 -221 479 -240 b 607 -199 579 -240 607 -229 b 494 -131 607 -156 571 -140 "},"ṃ":{"ha":1103,"x_min":0,"x_max":0,"o":"m 876 490 b 778 579 876 556 839 579 b 628 536 710 579 664 558 b 632 460 631 511 632 488 l 632 0 l 476 0 l 476 490 b 378 579 476 556 440 579 b 232 539 314 579 268 560 l 232 0 l 76 0 l 76 694 l 168 694 l 193 639 b 403 711 251 685 335 711 b 581 642 496 711 551 685 b 803 711 643 686 726 711 b 1032 490 967 711 1032 622 l 1032 0 l 876 0 m 656 -206 b 554 -307 656 -261 610 -307 b 453 -206 499 -307 453 -261 b 554 -104 453 -150 499 -104 b 656 -206 610 -104 656 -150 "},"ń":{"ha":728,"x_min":0,"x_max":0,"o":"m 501 0 l 501 476 b 392 579 501 547 465 579 b 232 539 319 579 269 560 l 232 0 l 76 0 l 76 694 l 168 694 l 193 639 b 418 711 264 688 343 711 b 657 490 594 711 657 624 l 657 0 m 304 764 l 385 1042 l 572 1042 l 435 764 "},"":{"ha":728,"x_min":0,"x_max":0,"o":"m 501 0 l 501 476 b 392 579 501 547 465 579 b 232 539 319 579 269 560 l 232 0 l 76 0 l 76 694 l 168 694 l 193 639 b 418 711 264 688 343 711 b 657 490 594 711 657 624 l 657 0 m 304 764 l 167 1042 l 354 1042 l 435 764 "},"":{"ha":728,"x_min":0,"x_max":0,"o":"m 501 0 l 501 476 b 392 579 501 547 465 579 b 232 539 319 579 269 560 l 232 0 l 76 0 l 76 694 l 168 694 l 193 639 b 418 711 264 688 343 711 b 657 490 594 711 657 624 l 657 0 m 121 900 b 222 1001 121 956 167 1001 b 324 900 278 1001 324 956 b 222 799 324 844 278 799 b 121 900 167 799 121 844 m 415 900 b 517 1001 415 956 461 1001 b 618 900 572 1001 618 956 b 517 799 618 844 572 799 b 415 900 461 799 415 844 "},"ñ":{"ha":728,"x_min":0,"x_max":0,"o":"m 501 0 l 501 476 b 392 579 501 547 465 579 b 232 539 319 579 269 560 l 232 0 l 76 0 l 76 694 l 168 694 l 193 639 b 418 711 264 688 343 711 b 657 490 594 711 657 624 l 657 0 m 651 982 b 482 788 651 869 608 788 b 258 890 360 788 332 890 b 192 815 199 890 192 850 l 88 815 b 257 1010 88 928 131 1010 b 481 907 379 1010 407 907 b 547 982 540 907 547 947 "},"ň":{"ha":728,"x_min":0,"x_max":0,"o":"m 501 0 l 501 476 b 392 579 501 547 465 579 b 232 539 319 579 269 560 l 232 0 l 76 0 l 76 694 l 168 694 l 193 639 b 418 711 264 688 343 711 b 657 490 594 711 657 624 l 657 0 m 499 1042 l 631 1042 l 449 764 l 290 764 l 108 1042 l 240 1042 l 369 885 "},"":{"ha":728,"x_min":0,"x_max":0,"o":"m 501 0 l 501 476 b 392 579 501 547 465 579 b 232 539 319 579 269 560 l 232 0 l 76 0 l 76 694 l 168 694 l 193 639 b 418 711 264 688 343 711 b 657 490 594 711 657 624 l 657 0 m 167 964 l 572 964 l 572 840 l 167 840 "},"ṅ":{"ha":728,"x_min":0,"x_max":0,"o":"m 501 0 l 501 476 b 392 579 501 547 465 579 b 232 539 319 579 269 560 l 232 0 l 76 0 l 76 694 l 168 694 l 193 639 b 418 711 264 688 343 711 b 657 490 594 711 657 624 l 657 0 m 268 900 b 369 1001 268 956 314 1001 b 471 900 425 1001 471 956 b 369 799 471 844 425 799 b 268 900 314 799 268 844 "},"ņ":{"ha":728,"x_min":0,"x_max":0,"o":"m 501 0 l 501 476 b 392 579 501 547 465 579 b 232 539 319 579 269 560 l 232 0 l 76 0 l 76 694 l 168 694 l 193 639 b 418 711 264 688 343 711 b 657 490 594 711 657 624 l 657 0 m 465 -69 l 375 -347 l 251 -347 l 281 -69 "},"":{"ha":728,"x_min":0,"x_max":0,"o":"m 501 0 l 501 476 b 392 579 501 547 465 579 b 232 539 319 579 269 560 l 232 0 l 76 0 l 76 694 l 168 694 l 193 639 b 418 711 264 688 343 711 b 657 490 594 711 657 624 l 657 0 m 315 -61 b 532 -212 476 -75 532 -137 b 367 -347 532 -301 464 -347 b 232 -321 299 -347 251 -331 l 232 -215 b 346 -240 246 -221 293 -240 b 421 -199 393 -240 421 -229 b 308 -131 421 -156 385 -140 "},"ṇ":{"ha":728,"x_min":0,"x_max":0,"o":"m 501 0 l 501 476 b 392 579 501 547 465 579 b 232 539 319 579 269 560 l 232 0 l 76 0 l 76 694 l 168 694 l 193 639 b 418 711 264 688 343 711 b 657 490 594 711 657 624 l 657 0 m 468 -206 b 367 -307 468 -261 422 -307 b 265 -206 311 -307 265 -261 b 367 -104 265 -150 311 -104 b 468 -206 422 -104 468 -150 "},"":{"ha":761,"x_min":0,"x_max":0,"o":"m 501 0 l 501 476 b 392 579 501 547 465 579 b 232 539 319 579 269 560 l 232 0 l 76 0 l 76 694 l 168 694 l 193 639 b 418 711 264 688 343 711 b 657 490 594 711 657 624 l 657 110 l 771 110 l 771 -174 l 657 -174 l 657 0 "},"ó":{"ha":731,"x_min":0,"x_max":0,"o":"m 300 764 l 381 1042 l 568 1042 l 431 764 m 365 114 b 517 347 497 114 517 199 b 365 581 517 496 497 581 b 214 347 233 581 214 496 b 365 114 214 199 233 114 m 365 -17 b 57 347 118 -17 57 133 b 365 711 57 561 118 711 b 674 347 613 711 674 561 b 365 -17 674 133 613 -17 "},"ò":{"ha":731,"x_min":0,"x_max":0,"o":"m 300 764 l 163 1042 l 350 1042 l 431 764 m 365 114 b 517 347 497 114 517 199 b 365 581 517 496 497 581 b 214 347 233 581 214 496 b 365 114 214 199 233 114 m 365 -17 b 57 347 118 -17 57 133 b 365 711 57 561 118 711 b 674 347 613 711 674 561 b 365 -17 674 133 613 -17 "},"ô":{"ha":731,"x_min":0,"x_max":0,"o":"m 365 -17 b 57 347 118 -17 57 133 b 365 711 57 561 118 711 b 674 347 613 711 674 561 b 365 -17 674 133 613 -17 m 365 114 b 517 347 497 114 517 199 b 365 581 517 496 497 581 b 214 347 233 581 214 496 b 365 114 214 199 233 114 m 365 921 l 236 764 l 104 764 l 286 1042 l 444 1042 l 626 764 l 494 764 "},"ö":{"ha":731,"x_min":0,"x_max":0,"o":"m 365 114 b 517 347 497 114 517 199 b 365 581 517 496 497 581 b 214 347 233 581 214 496 b 365 114 214 199 233 114 m 365 -17 b 57 347 118 -17 57 133 b 365 711 57 561 118 711 b 674 347 613 711 674 561 b 365 -17 674 133 613 -17 m 117 900 b 218 1001 117 956 163 1001 b 319 900 274 1001 319 956 b 218 799 319 844 274 799 b 117 900 163 799 117 844 m 411 900 b 513 1001 411 956 457 1001 b 614 900 568 1001 614 956 b 513 799 614 844 568 799 b 411 900 457 799 411 844 "},"õ":{"ha":731,"x_min":0,"x_max":0,"o":"m 647 982 b 478 788 647 869 604 788 b 254 890 356 788 328 890 b 188 815 194 890 188 850 l 83 815 b 253 1010 83 928 126 1010 b 476 907 375 1010 403 907 b 543 982 536 907 543 947 m 365 114 b 517 347 497 114 517 199 b 365 581 517 496 497 581 b 214 347 233 581 214 496 b 365 114 214 199 233 114 m 365 -17 b 57 347 118 -17 57 133 b 365 711 57 561 118 711 b 674 347 613 711 674 561 b 365 -17 674 133 613 -17 "},"ǒ":{"ha":731,"x_min":0,"x_max":0,"o":"m 365 -17 b 57 347 118 -17 57 133 b 365 711 57 561 118 711 b 674 347 613 711 674 561 b 365 -17 674 133 613 -17 m 365 114 b 517 347 497 114 517 199 b 365 581 517 496 497 581 b 214 347 233 581 214 496 b 365 114 214 199 233 114 m 494 1042 l 626 1042 l 444 764 l 286 764 l 104 1042 l 236 1042 l 365 885 "},"ō":{"ha":731,"x_min":0,"x_max":0,"o":"m 365 114 b 517 347 497 114 517 199 b 365 581 517 496 497 581 b 214 347 233 581 214 496 b 365 114 214 199 233 114 m 365 -17 b 57 347 118 -17 57 133 b 365 711 57 561 118 711 b 674 347 613 711 674 561 b 365 -17 674 133 613 -17 m 163 964 l 568 964 l 568 840 l 163 840 "},"ŏ":{"ha":731,"x_min":0,"x_max":0,"o":"m 365 114 b 517 347 497 114 517 199 b 365 581 517 496 497 581 b 214 347 233 581 214 496 b 365 114 214 199 233 114 m 365 -17 b 57 347 118 -17 57 133 b 365 711 57 561 118 711 b 674 347 613 711 674 561 b 365 -17 674 133 613 -17 m 365 764 b 111 1042 182 764 114 842 l 218 1042 b 365 888 219 936 256 888 b 513 1042 475 888 511 936 l 619 1042 b 365 764 617 842 549 764 "},"ȏ":{"ha":731,"x_min":0,"x_max":0,"o":"m 365 114 b 517 347 497 114 517 199 b 365 581 517 496 497 581 b 214 347 233 581 214 496 b 365 114 214 199 233 114 m 365 -17 b 57 347 118 -17 57 133 b 365 711 57 561 118 711 b 674 347 613 711 674 561 b 365 -17 674 133 613 -17 m 365 1042 b 619 764 549 1042 617 964 l 513 764 b 365 918 511 869 475 918 b 218 764 256 918 219 869 l 111 764 b 365 1042 114 964 182 1042 "},"ő":{"ha":731,"x_min":0,"x_max":0,"o":"m 365 -17 b 57 347 118 -17 57 133 b 365 711 57 561 118 711 b 674 347 613 711 674 561 b 365 -17 674 133 613 -17 m 365 581 b 214 347 233 581 214 496 b 365 114 214 199 233 114 b 515 347 496 114 515 199 b 365 581 515 496 496 581 m 182 764 l 263 1042 l 450 1042 l 313 764 m 418 764 l 499 1042 l 686 1042 l 549 764 "},"":{"ha":731,"x_min":0,"x_max":0,"o":"m 365 -17 b 57 347 118 -17 57 133 b 365 711 57 561 118 711 b 674 347 613 711 674 561 b 365 -17 674 133 613 -17 m 365 581 b 215 347 235 581 215 496 b 365 114 215 199 235 114 b 517 347 497 114 517 199 b 365 581 517 496 497 581 m 418 764 l 281 1042 l 468 1042 l 549 764 m 182 764 l 44 1042 l 232 1042 l 313 764 "},"":{"ha":731,"x_min":0,"x_max":0,"o":"m 267 764 l 357 1042 l 481 1042 l 451 764 m 365 114 b 517 347 497 114 517 199 b 365 581 517 496 497 581 b 214 347 233 581 214 496 b 365 114 214 199 233 114 m 365 -17 b 57 347 118 -17 57 133 b 365 711 57 561 118 711 b 674 347 613 711 674 561 b 365 -17 674 133 613 -17 "},"":{"ha":731,"x_min":0,"x_max":0,"o":"m 365 114 b 517 347 497 114 517 199 b 365 581 517 496 497 581 b 214 347 233 581 214 496 b 365 114 214 199 233 114 m 365 -17 b 57 347 118 -17 57 133 b 365 711 57 561 118 711 b 674 347 613 711 674 561 b 365 -17 674 133 613 -17 m 163 1126 l 568 1126 l 568 1003 l 163 1003 m 647 943 b 478 749 647 831 604 749 b 254 851 356 749 328 851 b 188 776 194 851 188 811 l 83 776 b 253 971 83 889 126 971 b 476 868 375 971 403 868 b 543 943 536 868 543 908 "},"":{"ha":731,"x_min":0,"x_max":0,"o":"m 365 114 b 517 347 497 114 517 199 b 365 581 517 496 497 581 b 214 347 233 581 214 496 b 365 114 214 199 233 114 m 365 -17 b 57 347 118 -17 57 133 b 365 711 57 561 118 711 b 674 347 613 711 674 561 b 365 -17 674 133 613 -17 m 264 900 b 365 1001 264 956 310 1001 b 467 900 421 1001 467 956 b 365 799 467 844 421 799 b 264 900 310 799 264 844 "},"":{"ha":731,"x_min":0,"x_max":0,"o":"m 365 114 b 517 347 497 114 517 199 b 365 581 517 496 497 581 b 214 347 233 581 214 496 b 365 114 214 199 233 114 m 365 -17 b 57 347 118 -17 57 133 b 365 711 57 561 118 711 b 674 347 613 711 674 561 b 365 -17 674 133 613 -17 m 163 1126 l 568 1126 l 568 1003 l 163 1003 m 264 860 b 365 961 264 915 310 961 b 467 860 421 961 467 915 b 365 758 467 804 421 758 b 264 860 310 758 264 804 "},"":{"ha":731,"x_min":0,"x_max":0,"o":"m 314 -61 b 531 -212 475 -75 531 -137 b 365 -347 531 -301 463 -347 b 231 -321 297 -347 250 -331 l 231 -215 b 344 -240 244 -221 292 -240 b 419 -199 392 -240 419 -229 b 307 -131 419 -156 383 -140 m 365 114 b 517 347 497 114 517 199 b 365 581 517 496 497 581 b 214 347 233 581 214 496 b 365 114 214 199 233 114 m 365 -17 b 57 347 118 -17 57 133 b 365 711 57 561 118 711 b 674 347 613 711 674 561 b 365 -17 674 133 613 -17 "},"ọ":{"ha":731,"x_min":0,"x_max":0,"o":"m 365 581 b 214 347 233 581 214 496 b 365 114 214 199 233 114 b 517 347 497 114 517 199 b 365 581 517 496 497 581 m 365 711 b 674 347 613 711 674 561 b 365 -17 674 133 613 -17 b 57 347 118 -17 57 133 b 365 711 57 561 118 711 m 467 -206 b 365 -307 467 -261 421 -307 b 264 -206 310 -307 264 -261 b 365 -104 264 -150 310 -104 b 467 -206 421 -104 467 -150 "},"ǫ":{"ha":731,"x_min":0,"x_max":0,"o":"m 229 -196 b 324 -14 229 -124 264 -61 b 57 347 111 1 57 146 b 365 711 57 561 118 711 b 674 347 613 711 674 561 b 486 0 674 174 633 43 b 353 -174 415 -36 353 -115 b 431 -244 353 -215 381 -244 b 518 -232 469 -244 501 -237 l 518 -326 b 400 -347 496 -335 460 -347 b 229 -196 307 -347 229 -296 m 365 114 b 517 347 497 114 517 199 b 365 581 517 496 497 581 b 214 347 233 581 214 496 b 365 114 214 199 233 114 "},"ǭ":{"ha":731,"x_min":0,"x_max":0,"o":"m 229 -196 b 324 -14 229 -124 264 -61 b 57 347 111 1 57 146 b 365 711 57 561 118 711 b 674 347 613 711 674 561 b 486 0 674 174 633 43 b 353 -174 415 -36 353 -115 b 431 -244 353 -215 381 -244 b 518 -232 469 -244 501 -237 l 518 -326 b 400 -347 496 -335 460 -347 b 229 -196 307 -347 229 -296 m 365 114 b 517 347 497 114 517 199 b 365 581 517 496 497 581 b 214 347 233 581 214 496 b 365 114 214 199 233 114 m 163 964 l 568 964 l 568 840 l 163 840 "},"":{"ha":731,"x_min":0,"x_max":0,"o":"m 419 -69 l 419 -347 l 311 -347 l 311 -69 m 365 114 b 517 347 497 114 517 199 b 365 581 517 496 497 581 b 214 347 233 581 214 496 b 365 114 214 199 233 114 m 365 -17 b 57 347 118 -17 57 133 b 365 711 57 561 118 711 b 674 347 613 711 674 561 b 365 -17 674 133 613 -17 "},"ø":{"ha":731,"x_min":0,"x_max":0,"o":"m 365 -17 b 185 24 289 -17 229 -1 l 168 0 l 64 0 l 122 81 b 57 347 74 144 57 238 b 365 711 57 561 118 711 b 544 669 442 711 500 696 l 563 694 l 667 694 l 608 614 b 674 347 657 549 674 457 b 365 -17 674 133 613 -17 m 214 347 b 224 221 214 297 215 256 l 461 554 b 365 581 439 571 408 581 b 214 347 233 581 214 496 m 365 114 b 517 347 497 114 517 199 b 507 472 517 396 514 438 l 268 140 b 365 114 290 122 322 114 "},"ǿ":{"ha":731,"x_min":0,"x_max":0,"o":"m 365 -17 b 185 24 289 -17 229 -1 l 168 0 l 64 0 l 122 81 b 57 347 74 144 57 238 b 365 711 57 561 118 711 b 544 669 442 711 500 696 l 563 694 l 667 694 l 608 614 b 674 347 657 549 674 457 b 365 -17 674 133 613 -17 m 300 764 l 381 1042 l 568 1042 l 431 764 m 214 347 b 224 221 214 297 215 256 l 461 554 b 365 581 439 571 408 581 b 214 347 233 581 214 496 m 365 114 b 517 347 497 114 517 199 b 507 472 517 396 514 438 l 268 140 b 365 114 290 122 322 114 "},"":{"ha":731,"x_min":0,"x_max":0,"o":"m 365 -17 b 57 347 118 -17 57 133 b 365 711 57 561 118 711 b 674 347 613 711 674 561 b 365 -17 674 133 613 -17 m 365 114 b 515 296 481 114 510 179 l 214 296 b 365 114 219 179 249 114 m 365 581 b 215 404 251 581 221 517 l 515 404 b 365 581 508 517 479 581 "},"œ":{"ha":1169,"x_min":0,"x_max":0,"o":"m 365 114 b 517 347 497 114 517 199 b 365 581 517 496 497 581 b 214 347 233 581 214 496 b 365 114 214 199 233 114 m 826 576 b 675 399 713 576 681 503 l 953 399 b 826 576 953 493 947 576 m 365 -17 b 57 347 118 -17 57 133 b 365 711 57 561 118 711 b 599 610 478 711 551 676 b 826 711 647 678 721 711 b 1110 358 1071 711 1110 550 b 1107 290 1110 335 1108 313 l 675 290 b 857 118 678 186 715 118 b 1078 160 944 118 1017 133 l 1078 26 b 833 -17 999 -7 908 -17 b 599 85 725 -17 649 17 b 365 -17 551 17 478 -17 "},"":{"ha":753,"x_min":0,"x_max":0,"o":"m 418 -17 b 232 38 349 -17 282 6 l 232 -347 l 76 -347 l 76 694 l 168 694 l 193 639 b 418 711 254 683 325 711 b 696 347 621 711 696 575 b 418 -17 696 121 621 -17 m 382 115 b 539 347 518 115 539 219 b 382 579 539 476 518 579 b 232 539 308 579 260 554 l 232 156 b 382 115 260 140 308 115 m 174 964 l 579 964 l 579 840 l 174 840 "},"ŕ":{"ha":508,"x_min":0,"x_max":0,"o":"m 486 569 b 410 578 469 575 442 578 b 232 536 328 578 267 558 l 232 0 l 76 0 l 76 694 l 168 694 l 193 639 b 413 711 244 681 322 711 b 486 703 442 711 467 707 m 224 764 l 304 1042 l 492 1042 l 354 764 "},"ř":{"ha":508,"x_min":0,"x_max":0,"o":"m 486 569 b 410 578 469 575 442 578 b 232 536 328 578 267 558 l 232 0 l 76 0 l 76 694 l 168 694 l 193 639 b 413 711 244 681 322 711 b 486 703 442 711 467 707 m 418 1042 l 550 1042 l 368 764 l 210 764 l 28 1042 l 160 1042 l 289 885 "},"ȓ":{"ha":508,"x_min":0,"x_max":0,"o":"m 486 569 b 410 578 469 575 442 578 b 232 536 328 578 267 558 l 232 0 l 76 0 l 76 694 l 168 694 l 193 639 b 413 711 244 681 322 711 b 486 703 442 711 467 707 m 289 1042 b 543 764 472 1042 540 964 l 436 764 b 289 918 435 869 399 918 b 142 764 179 918 143 869 l 35 764 b 289 1042 38 964 106 1042 "},"":{"ha":508,"x_min":0,"x_max":0,"o":"m 486 569 b 410 578 469 575 442 578 b 232 536 328 578 267 558 l 232 0 l 76 0 l 76 694 l 168 694 l 193 639 b 413 711 244 681 322 711 b 486 703 442 711 467 707 m 342 764 l 204 1042 l 392 1042 l 472 764 m 106 764 l -32 1042 l 156 1042 l 236 764 "},"ŗ":{"ha":508,"x_min":0,"x_max":0,"o":"m 486 569 b 410 578 469 575 442 578 b 232 536 328 578 267 558 l 232 0 l 76 0 l 76 694 l 168 694 l 193 639 b 413 711 244 681 322 711 b 486 703 442 711 467 707 m 246 -69 l 156 -347 l 32 -347 l 61 -69 "},"":{"ha":508,"x_min":0,"x_max":0,"o":"m 486 569 b 410 578 469 575 442 578 b 232 536 328 578 267 558 l 232 0 l 76 0 l 76 694 l 168 694 l 193 639 b 413 711 244 681 322 711 b 486 703 442 711 467 707 m 103 -61 b 319 -212 264 -75 319 -137 b 154 -347 319 -301 251 -347 b 19 -321 86 -347 39 -331 l 19 -215 b 133 -240 33 -221 81 -240 b 208 -199 181 -240 208 -229 b 96 -131 208 -156 172 -140 "},"ṛ":{"ha":508,"x_min":0,"x_max":0,"o":"m 486 569 b 410 578 469 575 442 578 b 232 536 328 578 267 558 l 232 0 l 76 0 l 76 694 l 168 694 l 193 639 b 413 711 244 681 322 711 b 486 703 442 711 467 707 m 256 -206 b 154 -307 256 -261 210 -307 b 53 -206 99 -307 53 -261 b 154 -104 53 -150 99 -104 b 256 -206 210 -104 256 -150 "},"ṝ":{"ha":508,"x_min":0,"x_max":0,"o":"m 486 569 b 410 578 469 575 442 578 b 232 536 328 578 267 558 l 232 0 l 76 0 l 76 694 l 168 694 l 193 639 b 413 711 244 681 322 711 b 486 703 442 711 467 707 m 256 -206 b 154 -307 256 -261 210 -307 b 53 -206 99 -307 53 -261 b 154 -104 53 -150 99 -104 b 256 -206 210 -104 256 -150 m 86 964 l 492 964 l 492 840 l 86 840 "},"ś":{"ha":646,"x_min":0,"x_max":0,"o":"m 210 494 b 325 417 210 446 235 425 b 588 207 533 399 588 336 b 292 -17 588 88 514 -17 b 63 21 196 -17 110 1 l 63 154 b 269 115 108 138 182 115 b 435 201 381 115 435 140 b 319 288 435 253 413 279 b 58 490 110 306 58 371 b 340 711 58 610 136 711 b 556 676 435 711 501 700 l 556 542 b 343 581 496 564 431 581 b 210 494 261 581 210 557 m 250 764 l 331 1042 l 518 1042 l 381 764 "},"ŝ":{"ha":646,"x_min":0,"x_max":0,"o":"m 210 494 b 325 417 210 446 235 425 b 588 207 533 399 588 336 b 292 -17 588 88 514 -17 b 63 21 196 -17 110 1 l 63 154 b 269 115 108 138 182 115 b 435 201 381 115 435 140 b 319 288 435 253 413 279 b 58 490 110 306 58 371 b 340 711 58 610 136 711 b 556 676 435 711 501 700 l 556 542 b 343 581 496 564 431 581 b 210 494 261 581 210 557 m 315 921 l 186 764 l 54 764 l 236 1042 l 394 1042 l 576 764 l 444 764 "},"š":{"ha":646,"x_min":0,"x_max":0,"o":"m 210 494 b 325 417 210 446 235 425 b 588 207 533 399 588 336 b 292 -17 588 88 514 -17 b 63 21 196 -17 110 1 l 63 154 b 269 115 108 138 182 115 b 435 201 381 115 435 140 b 319 288 435 253 413 279 b 58 490 110 306 58 371 b 340 711 58 610 136 711 b 556 676 435 711 501 700 l 556 542 b 343 581 496 564 431 581 b 210 494 261 581 210 557 m 444 1042 l 576 1042 l 394 764 l 236 764 l 54 1042 l 186 1042 l 315 885 "},"ș":{"ha":646,"x_min":0,"x_max":0,"o":"m 210 494 b 325 417 210 446 235 425 b 588 207 533 399 588 336 b 292 -17 588 88 514 -17 b 63 21 196 -17 110 1 l 63 154 b 269 115 108 138 182 115 b 435 201 381 115 435 140 b 319 288 435 253 413 279 b 58 490 110 306 58 371 b 340 711 58 610 136 711 b 556 676 435 711 501 700 l 556 542 b 343 581 496 564 431 581 b 210 494 261 581 210 557 m 414 -69 l 324 -347 l 200 -347 l 229 -69 "},"ş":{"ha":646,"x_min":0,"x_max":0,"o":"m 268 -17 b 63 21 182 -14 106 3 l 63 154 b 269 115 108 138 182 115 b 435 201 381 115 435 140 b 319 288 435 253 413 279 b 58 490 110 306 58 371 b 340 711 58 610 136 711 b 556 676 435 711 501 700 l 556 542 b 343 581 496 564 431 581 b 210 494 261 581 210 557 b 325 417 210 446 235 425 b 588 207 533 399 588 336 b 346 -14 588 97 526 1 l 351 -83 b 481 -212 422 -100 481 -136 b 315 -347 481 -301 413 -347 b 181 -321 247 -347 200 -331 l 181 -215 b 294 -240 194 -221 242 -240 b 369 -199 342 -240 369 -229 b 257 -131 369 -156 333 -140 "},"ṣ":{"ha":646,"x_min":0,"x_max":0,"o":"m 210 494 b 325 417 210 446 235 425 b 588 207 533 399 588 336 b 292 -17 588 88 514 -17 b 63 21 196 -17 110 1 l 63 154 b 269 115 108 138 182 115 b 435 201 381 115 435 140 b 319 288 435 253 413 279 b 58 490 110 306 58 371 b 340 711 58 610 136 711 b 556 676 435 711 501 700 l 556 542 b 343 581 496 564 431 581 b 210 494 261 581 210 557 m 417 -206 b 315 -307 417 -261 371 -307 b 214 -206 260 -307 214 -261 b 315 -104 214 -150 260 -104 b 417 -206 371 -104 417 -150 "},"ß":{"ha":782,"x_min":0,"x_max":0,"o":"m 308 517 b 490 826 308 694 490 688 b 367 924 490 894 436 924 b 242 824 294 924 242 892 l 242 0 l 86 0 l 86 832 b 367 1058 86 981 178 1058 b 642 831 554 1058 642 975 b 460 532 642 653 460 642 b 558 435 460 482 482 461 b 756 210 704 385 756 333 b 499 -17 756 75 663 -17 b 310 24 421 -17 353 0 l 310 160 b 483 115 343 144 411 115 b 603 210 569 115 603 151 b 485 321 603 274 556 299 b 308 517 356 363 308 411 "},"ť":{"ha":528,"x_min":0,"x_max":0,"o":"m 475 -7 b 389 -17 451 -12 413 -17 b 144 200 235 -17 144 50 l 144 563 l 18 563 l 18 658 l 144 694 l 144 860 l 300 904 l 300 694 l 496 694 l 496 563 l 300 563 l 300 218 b 414 115 300 149 335 115 b 475 121 438 115 458 118 m 514 1042 l 447 764 l 369 764 l 392 1042 "},"ţ":{"ha":528,"x_min":0,"x_max":0,"o":"m 475 -7 b 389 -17 451 -12 413 -17 b 144 200 235 -17 144 50 l 144 563 l 18 563 l 18 658 l 144 694 l 144 860 l 300 904 l 300 694 l 496 694 l 496 563 l 300 563 l 300 218 b 414 115 300 149 335 115 b 475 121 438 115 458 118 m 410 -69 l 319 -347 l 196 -347 l 225 -69 "},"":{"ha":528,"x_min":0,"x_max":0,"o":"m 475 -7 b 389 -17 451 -12 413 -17 b 144 200 235 -17 144 50 l 144 563 l 18 563 l 18 658 l 144 694 l 144 860 l 300 904 l 300 694 l 496 694 l 496 563 l 300 563 l 300 218 b 414 115 300 149 335 115 b 475 121 438 115 458 118 m 232 -61 b 449 -212 393 -75 449 -137 b 283 -347 449 -301 381 -347 b 149 -321 215 -347 168 -331 l 149 -215 b 263 -240 163 -221 210 -240 b 338 -199 310 -240 338 -229 b 225 -131 338 -156 301 -140 "},"ṭ":{"ha":528,"x_min":0,"x_max":0,"o":"m 475 -7 b 389 -17 451 -12 413 -17 b 144 200 235 -17 144 50 l 144 563 l 18 563 l 18 658 l 144 694 l 144 860 l 300 904 l 300 694 l 496 694 l 496 563 l 300 563 l 300 218 b 414 115 300 149 335 115 b 475 121 438 115 458 118 m 413 -206 b 311 -307 413 -261 367 -307 b 210 -206 256 -307 210 -261 b 311 -104 210 -150 256 -104 b 413 -206 367 -104 413 -150 "},"ŧ":{"ha":528,"x_min":0,"x_max":0,"o":"m 475 -7 b 389 -17 451 -12 413 -17 b 144 200 235 -17 144 50 l 144 315 l 18 315 l 18 435 l 144 435 l 144 563 l 18 563 l 18 658 l 144 694 l 144 860 l 300 904 l 300 694 l 496 694 l 496 563 l 300 563 l 300 435 l 454 435 l 454 315 l 300 315 l 300 218 b 414 115 300 149 335 115 b 475 121 438 115 458 118 "},"ú":{"ha":728,"x_min":0,"x_max":0,"o":"m 296 764 l 376 1042 l 564 1042 l 426 764 m 226 694 l 226 218 b 336 115 226 147 263 115 b 496 156 408 115 458 135 l 496 694 l 651 694 l 651 0 l 560 0 l 535 56 b 310 -17 464 7 385 -17 b 71 204 133 -17 71 71 l 71 694 "},"ù":{"ha":728,"x_min":0,"x_max":0,"o":"m 296 764 l 158 1042 l 346 1042 l 426 764 m 226 694 l 226 218 b 336 115 226 147 263 115 b 496 156 408 115 458 135 l 496 694 l 651 694 l 651 0 l 560 0 l 535 56 b 310 -17 464 7 385 -17 b 71 204 133 -17 71 71 l 71 694 "},"û":{"ha":728,"x_min":0,"x_max":0,"o":"m 226 694 l 226 218 b 336 115 226 147 263 115 b 496 156 408 115 458 135 l 496 694 l 651 694 l 651 0 l 560 0 l 535 56 b 310 -17 464 7 385 -17 b 71 204 133 -17 71 71 l 71 694 m 361 921 l 232 764 l 100 764 l 282 1042 l 440 1042 l 622 764 l 490 764 "},"ü":{"ha":728,"x_min":0,"x_max":0,"o":"m 113 900 b 214 1001 113 956 158 1001 b 315 900 269 1001 315 956 b 214 799 315 844 269 799 b 113 900 158 799 113 844 m 407 900 b 508 1001 407 956 453 1001 b 610 900 564 1001 610 956 b 508 799 610 844 564 799 b 407 900 453 799 407 844 m 226 694 l 226 218 b 336 115 226 147 263 115 b 496 156 408 115 458 135 l 496 694 l 651 694 l 651 0 l 560 0 l 535 56 b 310 -17 464 7 385 -17 b 71 204 133 -17 71 71 l 71 694 "},"ũ":{"ha":728,"x_min":0,"x_max":0,"o":"m 643 982 b 474 788 643 869 600 788 b 250 890 351 788 324 890 b 183 815 190 890 183 850 l 79 815 b 249 1010 79 928 122 1010 b 472 907 371 1010 399 907 b 539 982 532 907 539 947 m 226 694 l 226 218 b 336 115 226 147 263 115 b 496 156 408 115 458 135 l 496 694 l 651 694 l 651 0 l 560 0 l 535 56 b 310 -17 464 7 385 -17 b 71 204 133 -17 71 71 l 71 694 "},"ů":{"ha":728,"x_min":0,"x_max":0,"o":"m 507 903 b 361 760 507 806 447 760 b 215 903 276 760 215 806 b 361 1046 215 1000 276 1046 b 507 903 447 1046 507 1000 m 308 903 b 361 851 308 865 329 851 b 415 903 393 851 415 865 b 361 954 415 940 393 954 b 308 903 329 954 308 940 m 226 694 l 226 218 b 336 115 226 147 263 115 b 496 156 408 115 458 135 l 496 694 l 651 694 l 651 0 l 560 0 l 535 56 b 310 -17 464 7 385 -17 b 71 204 133 -17 71 71 l 71 694 "},"ǔ":{"ha":728,"x_min":0,"x_max":0,"o":"m 226 694 l 226 218 b 336 115 226 147 263 115 b 496 156 408 115 458 135 l 496 694 l 651 694 l 651 0 l 560 0 l 535 56 b 310 -17 464 7 385 -17 b 71 204 133 -17 71 71 l 71 694 m 490 1042 l 622 1042 l 440 764 l 282 764 l 100 1042 l 232 1042 l 361 885 "},"ū":{"ha":728,"x_min":0,"x_max":0,"o":"m 158 964 l 564 964 l 564 840 l 158 840 m 226 694 l 226 218 b 336 115 226 147 263 115 b 496 156 408 115 458 135 l 496 694 l 651 694 l 651 0 l 560 0 l 535 56 b 310 -17 464 7 385 -17 b 71 204 133 -17 71 71 l 71 694 "},"ŭ":{"ha":728,"x_min":0,"x_max":0,"o":"m 361 764 b 107 1042 178 764 110 842 l 214 1042 b 361 888 215 936 251 888 b 508 1042 471 888 507 936 l 615 1042 b 361 764 613 842 544 764 m 226 694 l 226 218 b 336 115 226 147 263 115 b 496 156 408 115 458 135 l 496 694 l 651 694 l 651 0 l 560 0 l 535 56 b 310 -17 464 7 385 -17 b 71 204 133 -17 71 71 l 71 694 "},"ȗ":{"ha":728,"x_min":0,"x_max":0,"o":"m 361 1042 b 615 764 544 1042 613 964 l 508 764 b 361 918 507 869 471 918 b 214 764 251 918 215 869 l 107 764 b 361 1042 110 964 178 1042 m 226 694 l 226 218 b 336 115 226 147 263 115 b 496 156 408 115 458 135 l 496 694 l 651 694 l 651 0 l 560 0 l 535 56 b 310 -17 464 7 385 -17 b 71 204 133 -17 71 71 l 71 694 "},"ű":{"ha":728,"x_min":0,"x_max":0,"o":"m 178 764 l 258 1042 l 446 1042 l 308 764 m 414 764 l 494 1042 l 682 1042 l 544 764 m 226 694 l 226 218 b 336 115 226 147 263 115 b 496 156 408 115 458 135 l 496 694 l 651 694 l 651 0 l 560 0 l 535 56 b 310 -17 464 7 385 -17 b 71 204 133 -17 71 71 l 71 694 "},"":{"ha":728,"x_min":0,"x_max":0,"o":"m 414 764 l 276 1042 l 464 1042 l 544 764 m 178 764 l 40 1042 l 228 1042 l 308 764 m 226 694 l 226 218 b 336 115 226 147 263 115 b 496 156 408 115 458 135 l 496 694 l 651 694 l 651 0 l 560 0 l 535 56 b 310 -17 464 7 385 -17 b 71 204 133 -17 71 71 l 71 694 "},"ų":{"ha":728,"x_min":0,"x_max":0,"o":"m 226 694 l 226 218 b 336 115 226 147 263 115 b 496 156 408 115 458 135 l 496 694 l 651 694 l 651 0 b 504 -174 575 -35 504 -89 b 582 -244 504 -215 532 -244 b 669 -232 621 -244 653 -237 l 669 -326 b 551 -347 647 -335 611 -347 b 381 -196 458 -347 381 -296 b 546 29 381 -125 418 -40 l 535 56 b 310 -17 464 7 385 -17 b 71 204 133 -17 71 71 l 71 694 "},"ụ":{"ha":728,"x_min":0,"x_max":0,"o":"m 226 694 l 226 218 b 336 115 226 147 263 115 b 496 156 408 115 458 135 l 496 694 l 651 694 l 651 0 l 560 0 l 535 56 b 310 -17 464 7 385 -17 b 71 204 133 -17 71 71 l 71 694 m 463 -206 b 361 -307 463 -261 417 -307 b 260 -206 306 -307 260 -261 b 361 -104 260 -150 306 -104 b 463 -206 417 -104 463 -150 "},"":{"ha":728,"x_min":0,"x_max":0,"o":"m 226 694 l 226 218 b 336 115 226 147 263 115 b 496 156 408 115 458 135 l 496 694 l 651 694 l 651 0 l 560 0 l 535 56 b 310 -17 464 7 385 -17 b 71 204 133 -17 71 71 l 71 694 m 564 -269 l 158 -269 l 158 -146 l 564 -146 "},"ẃ":{"ha":967,"x_min":0,"x_max":0,"o":"m 339 -12 l 207 -12 l 25 694 l 183 694 l 278 217 l 413 694 l 554 694 l 689 217 l 783 694 l 942 694 l 760 -12 l 628 -12 l 483 511 m 418 764 l 499 1042 l 686 1042 l 549 764 "},"ẁ":{"ha":967,"x_min":0,"x_max":0,"o":"m 339 -12 l 207 -12 l 25 694 l 183 694 l 278 217 l 413 694 l 554 694 l 689 217 l 783 694 l 942 694 l 760 -12 l 628 -12 l 483 511 m 418 764 l 281 1042 l 468 1042 l 549 764 "},"ŵ":{"ha":967,"x_min":0,"x_max":0,"o":"m 339 -12 l 207 -12 l 25 694 l 183 694 l 278 217 l 413 694 l 554 694 l 689 217 l 783 694 l 942 694 l 760 -12 l 628 -12 l 483 511 m 483 921 l 354 764 l 222 764 l 404 1042 l 563 1042 l 744 764 l 613 764 "},"ẅ":{"ha":967,"x_min":0,"x_max":0,"o":"m 339 -12 l 207 -12 l 25 694 l 183 694 l 278 217 l 413 694 l 554 694 l 689 217 l 783 694 l 942 694 l 760 -12 l 628 -12 l 483 511 m 529 900 b 631 1001 529 956 575 1001 b 732 900 686 1001 732 956 b 631 799 732 844 686 799 b 529 900 575 799 529 844 m 235 900 b 336 1001 235 956 281 1001 b 438 900 392 1001 438 956 b 336 799 438 844 392 799 b 235 900 281 799 235 844 "},"ý":{"ha":694,"x_min":0,"x_max":0,"o":"m 190 694 l 347 199 l 504 694 l 676 694 l 279 -347 l 106 -347 l 278 24 l 18 694 m 282 764 l 363 1042 l 550 1042 l 413 764 "},"ỳ":{"ha":694,"x_min":0,"x_max":0,"o":"m 282 764 l 144 1042 l 332 1042 l 413 764 m 190 694 l 347 199 l 504 694 l 676 694 l 279 -347 l 106 -347 l 278 24 l 18 694 "},"ŷ":{"ha":694,"x_min":0,"x_max":0,"o":"m 190 694 l 347 199 l 504 694 l 676 694 l 279 -347 l 106 -347 l 278 24 l 18 694 m 347 921 l 218 764 l 86 764 l 268 1042 l 426 1042 l 608 764 l 476 764 "},"ÿ":{"ha":694,"x_min":0,"x_max":0,"o":"m 190 694 l 347 199 l 504 694 l 676 694 l 279 -347 l 106 -347 l 278 24 l 18 694 m 99 900 b 200 1001 99 956 144 1001 b 301 900 256 1001 301 956 b 200 799 301 844 256 799 b 99 900 144 799 99 844 m 393 900 b 494 1001 393 956 439 1001 b 596 900 550 1001 596 956 b 494 799 596 844 550 799 b 393 900 439 799 393 844 "},"ỹ":{"ha":694,"x_min":0,"x_max":0,"o":"m 190 694 l 347 199 l 504 694 l 676 694 l 279 -347 l 106 -347 l 278 24 l 18 694 m 629 982 b 460 788 629 869 586 788 b 236 890 338 788 310 890 b 169 815 176 890 169 850 l 65 815 b 235 1010 65 928 108 1010 b 458 907 357 1010 385 907 b 525 982 518 907 525 947 "},"":{"ha":694,"x_min":0,"x_max":0,"o":"m 190 694 l 347 199 l 504 694 l 676 694 l 279 -347 l 106 -347 l 278 24 l 18 694 m 144 964 l 550 964 l 550 840 l 144 840 "},"ĳ":{"ha":631,"x_min":0,"x_max":0,"o":"m 274 -10 b 90 171 147 -10 90 51 l 90 694 l 246 694 l 246 172 b 304 119 246 133 260 119 l 304 -7 b 274 -10 304 -7 290 -10 m 67 900 b 168 1001 67 956 113 1001 b 269 900 224 1001 269 956 b 168 799 269 844 224 799 b 67 900 113 799 67 844 m 224 -219 b 385 -81 322 -219 385 -167 l 385 694 l 540 694 l 540 -111 b 224 -364 540 -282 378 -364 m 361 900 b 463 1001 361 956 407 1001 b 564 900 518 1001 564 956 b 463 799 564 844 518 799 b 361 900 407 799 361 844 "},"ź":{"ha":651,"x_min":0,"x_max":0,"o":"m 46 0 l 46 110 l 399 558 l 71 557 l 71 694 l 599 694 l 599 585 l 246 136 l 614 138 l 614 0 m 264 764 l 344 1042 l 532 1042 l 394 764 "},"ž":{"ha":651,"x_min":0,"x_max":0,"o":"m 46 0 l 46 110 l 399 558 l 71 557 l 71 694 l 599 694 l 599 585 l 246 136 l 614 138 l 614 0 m 458 1042 l 590 1042 l 408 764 l 250 764 l 68 1042 l 200 1042 l 329 885 "},"ż":{"ha":651,"x_min":0,"x_max":0,"o":"m 46 0 l 46 110 l 399 558 l 71 557 l 71 694 l 599 694 l 599 585 l 246 136 l 614 138 l 614 0 m 228 900 b 329 1001 228 956 274 1001 b 431 900 385 1001 431 956 b 329 799 431 844 385 799 b 228 900 274 799 228 844 "},"ŋ":{"ha":728,"x_min":0,"x_max":0,"o":"m 340 -219 b 501 -81 439 -219 501 -167 l 501 476 b 392 579 501 547 465 579 b 232 539 319 579 269 560 l 232 0 l 76 0 l 76 694 l 168 694 l 193 639 b 418 711 264 688 343 711 b 657 490 594 711 657 624 l 657 -111 b 340 -364 657 -282 494 -364 "},"ð":{"ha":731,"x_min":0,"x_max":0,"o":"m 300 906 b 99 1042 231 967 157 1011 l 326 1042 b 425 969 354 1024 389 1001 l 583 1050 l 583 944 l 496 900 b 674 347 589 792 669 621 b 365 -17 674 133 613 -17 b 57 347 118 -17 57 133 b 351 711 57 575 132 711 b 468 686 401 711 444 701 b 368 835 442 743 404 794 l 164 731 l 164 836 m 365 114 b 517 347 497 114 517 199 b 365 581 517 496 497 581 b 214 347 233 581 214 496 b 365 114 214 199 233 114 "},"þ":{"ha":753,"x_min":0,"x_max":0,"o":"m 76 1042 l 232 1042 l 232 657 b 418 711 282 689 349 711 b 696 347 621 711 696 574 b 418 -17 696 121 621 -17 b 232 38 349 -17 282 6 l 232 -347 l 76 -347 m 539 347 b 382 579 539 475 518 579 b 232 539 308 579 260 554 l 232 156 b 382 115 260 140 308 115 b 539 347 518 115 539 219 "},"ʒ":{"ha":699,"x_min":0,"x_max":0,"o":"m 508 -19 b 244 168 508 146 397 168 l 151 168 l 151 271 l 419 558 l 46 557 l 46 694 l 615 694 l 615 582 l 344 289 b 661 -19 522 275 661 208 b 271 -364 661 -296 467 -364 b 39 -322 171 -364 88 -344 l 39 -190 b 261 -232 83 -208 163 -232 b 508 -19 389 -232 508 -192 "},"ǯ":{"ha":699,"x_min":0,"x_max":0,"o":"m 508 -19 b 244 168 508 146 397 168 l 151 168 l 151 271 l 419 558 l 46 557 l 46 694 l 615 694 l 615 582 l 344 289 b 661 -19 522 275 661 208 b 271 -364 661 -296 467 -364 b 39 -322 171 -364 88 -344 l 39 -190 b 261 -232 83 -208 163 -232 b 508 -19 389 -232 508 -192 m 461 1042 l 593 1042 l 411 764 l 253 764 l 71 1042 l 203 1042 l 332 885 "},"ə":{"ha":708,"x_min":0,"x_max":0,"o":"m 651 347 b 343 -17 651 124 569 -17 b 60 336 99 -17 60 144 b 63 404 60 360 61 382 l 494 404 b 313 576 492 508 454 576 b 92 535 225 576 153 561 l 92 668 b 336 711 171 701 261 711 b 651 347 568 711 651 572 m 343 118 b 494 296 457 118 489 192 l 217 296 b 343 118 217 201 222 118 "},"ª":{"ha":538,"x_min":0,"x_max":0,"o":"m 346 872 b 256 944 346 919 326 944 b 79 911 192 944 128 929 l 79 1025 b 271 1058 131 1046 207 1058 b 481 872 442 1058 481 983 l 481 522 l 382 522 l 369 553 b 219 506 329 526 275 506 b 38 676 90 506 38 568 b 235 844 38 782 104 836 l 346 851 m 247 757 b 165 683 197 751 165 726 b 246 613 165 643 189 613 b 346 640 278 613 319 625 l 346 765 "},"º":{"ha":586,"x_min":0,"x_max":0,"o":"m 540 782 b 293 506 540 599 471 506 b 46 782 115 506 46 599 b 293 1058 46 965 115 1058 b 540 782 471 1058 540 965 m 178 782 b 293 622 178 665 213 622 b 408 782 374 622 408 665 b 293 942 408 899 374 942 b 178 782 213 942 178 899 "},"":{"ha":478,"x_min":0,"x_max":0,"o":"m 46 782 b 296 1058 46 960 121 1058 b 436 1042 347 1058 394 1053 l 436 926 b 322 942 406 935 375 942 b 178 782 228 942 178 892 b 322 622 178 672 228 622 b 436 638 375 622 406 629 l 436 522 b 300 506 394 511 351 506 b 46 782 125 506 46 604 "},"":{"ha":753,"x_min":0,"x_max":0,"o":"m 521 539 b 371 579 493 554 444 579 b 214 347 235 579 214 476 b 371 115 214 218 235 115 b 521 156 444 115 493 140 m 676 0 l 585 0 l 560 56 b 335 -17 499 11 428 -17 b 57 347 132 -17 57 119 b 335 711 57 575 132 711 b 560 639 428 711 499 683 l 585 694 l 676 694 "},"":{"ha":753,"x_min":0,"x_max":0,"o":"m 521 539 b 371 579 493 554 444 579 b 214 347 235 579 214 476 b 371 115 214 218 235 115 b 521 156 444 115 493 140 m 676 0 l 585 0 l 560 56 b 335 -17 499 11 428 -17 b 57 347 132 -17 57 119 b 335 711 57 575 132 711 b 560 639 428 711 499 683 l 585 694 l 676 694 m 301 764 l 382 1042 l 569 1042 l 432 764 "},"":{"ha":753,"x_min":0,"x_max":0,"o":"m 521 539 b 371 579 493 554 444 579 b 214 347 235 579 214 476 b 371 115 214 218 235 115 b 521 156 444 115 493 140 m 676 0 l 585 0 l 560 56 b 335 -17 499 11 428 -17 b 57 347 132 -17 57 119 b 335 711 57 575 132 711 b 560 639 428 711 499 683 l 585 694 l 676 694 m 301 764 l 164 1042 l 351 1042 l 432 764 "},"":{"ha":753,"x_min":0,"x_max":0,"o":"m 676 0 l 585 0 l 560 56 b 335 -17 499 11 428 -17 b 57 347 132 -17 57 119 b 335 711 57 575 132 711 b 560 639 428 711 499 683 l 585 694 l 676 694 m 521 539 b 371 579 493 554 444 579 b 214 347 235 579 214 476 b 371 115 214 218 235 115 b 521 156 444 115 493 140 m 367 921 l 238 764 l 106 764 l 288 1042 l 446 1042 l 628 764 l 496 764 "},"":{"ha":753,"x_min":0,"x_max":0,"o":"m 521 539 b 371 579 493 554 444 579 b 214 347 235 579 214 476 b 371 115 214 218 235 115 b 521 156 444 115 493 140 m 676 0 l 585 0 l 560 56 b 335 -17 499 11 428 -17 b 57 347 132 -17 57 119 b 335 711 57 575 132 711 b 560 639 428 711 499 683 l 585 694 l 676 694 m 118 900 b 219 1001 118 956 164 1001 b 321 900 275 1001 321 956 b 219 799 321 844 275 799 b 118 900 164 799 118 844 m 413 900 b 514 1001 413 956 458 1001 b 615 900 569 1001 615 956 b 514 799 615 844 569 799 b 413 900 458 799 413 844 "},"":{"ha":753,"x_min":0,"x_max":0,"o":"m 521 539 b 371 579 493 554 444 579 b 214 347 235 579 214 476 b 371 115 214 218 235 115 b 521 156 444 115 493 140 m 676 0 l 585 0 l 560 56 b 335 -17 499 11 428 -17 b 57 347 132 -17 57 119 b 335 711 57 575 132 711 b 560 639 428 711 499 683 l 585 694 l 676 694 m 649 982 b 479 788 649 869 606 788 b 256 890 357 788 329 890 b 189 815 196 890 189 850 l 85 815 b 254 1010 85 928 128 1010 b 478 907 376 1010 404 907 b 544 982 538 907 544 947 "},"":{"ha":753,"x_min":0,"x_max":0,"o":"m 521 539 b 371 579 493 554 444 579 b 214 347 235 579 214 476 b 371 115 214 218 235 115 b 521 156 444 115 493 140 m 676 0 l 585 0 l 560 56 b 335 -17 499 11 428 -17 b 57 347 132 -17 57 119 b 335 711 57 575 132 711 b 560 639 428 711 499 683 l 585 694 l 676 694 m 513 903 b 367 760 513 806 453 760 b 221 903 282 760 221 806 b 367 1046 221 1000 282 1046 b 513 903 453 1046 513 1000 m 314 903 b 367 851 314 865 335 851 b 421 903 399 851 421 865 b 367 954 421 940 399 954 b 314 903 335 954 314 940 "},"":{"ha":753,"x_min":0,"x_max":0,"o":"m 676 0 l 585 0 l 560 56 b 335 -17 499 11 428 -17 b 57 347 132 -17 57 119 b 335 711 57 575 132 711 b 560 639 428 711 499 683 l 585 694 l 676 694 m 521 539 b 371 579 493 554 444 579 b 214 347 235 579 214 476 b 371 115 214 218 235 115 b 521 156 444 115 493 140 m 496 1042 l 628 1042 l 446 764 l 288 764 l 106 1042 l 238 1042 l 367 885 "},"":{"ha":753,"x_min":0,"x_max":0,"o":"m 521 539 b 371 579 493 554 444 579 b 214 347 235 579 214 476 b 371 115 214 218 235 115 b 521 156 444 115 493 140 m 676 0 l 585 0 l 560 56 b 335 -17 499 11 428 -17 b 57 347 132 -17 57 119 b 335 711 57 575 132 711 b 560 639 428 711 499 683 l 585 694 l 676 694 m 164 964 l 569 964 l 569 840 l 164 840 "},"":{"ha":753,"x_min":0,"x_max":0,"o":"m 521 539 b 371 579 493 554 444 579 b 214 347 235 579 214 476 b 371 115 214 218 235 115 b 521 156 444 115 493 140 m 676 0 l 585 0 l 560 56 b 335 -17 499 11 428 -17 b 57 347 132 -17 57 119 b 335 711 57 575 132 711 b 560 639 428 711 499 683 l 585 694 l 676 694 m 367 764 b 113 1042 183 764 115 842 l 219 1042 b 367 888 221 936 257 888 b 514 1042 476 888 513 936 l 621 1042 b 367 764 618 842 550 764 "},"":{"ha":753,"x_min":0,"x_max":0,"o":"m 521 539 b 371 579 493 554 444 579 b 214 347 235 579 214 476 b 371 115 214 218 235 115 b 521 156 444 115 493 140 m 676 0 l 585 0 l 560 56 b 335 -17 499 11 428 -17 b 57 347 132 -17 57 119 b 335 711 57 575 132 711 b 560 639 428 711 499 683 l 585 694 l 676 694 m 367 1042 b 621 764 550 1042 618 964 l 514 764 b 367 918 513 869 476 918 b 219 764 257 918 221 869 l 113 764 b 367 1042 115 964 183 1042 "},"":{"ha":753,"x_min":0,"x_max":0,"o":"m 521 539 b 371 579 493 554 444 579 b 214 347 235 579 214 476 b 371 115 214 218 235 115 b 521 156 444 115 493 140 m 676 0 l 585 0 l 560 56 b 335 -17 499 11 428 -17 b 57 347 132 -17 57 119 b 335 711 57 575 132 711 b 560 639 428 711 499 683 l 585 694 l 676 694 m 419 764 l 282 1042 l 469 1042 l 550 764 m 183 764 l 46 1042 l 233 1042 l 314 764 "},"":{"ha":753,"x_min":0,"x_max":0,"o":"m 521 539 b 371 579 493 554 444 579 b 214 347 235 579 214 476 b 371 115 214 218 235 115 b 521 156 444 115 493 140 m 676 0 l 585 0 l 560 56 b 335 -17 499 11 428 -17 b 57 347 132 -17 57 119 b 335 711 57 575 132 711 b 560 639 428 711 499 683 l 585 694 l 676 694 m 265 900 b 367 1001 265 956 311 1001 b 468 900 422 1001 468 956 b 367 799 468 844 422 799 b 265 900 311 799 265 844 "},"":{"ha":753,"x_min":0,"x_max":0,"o":"m 676 0 l 585 0 l 560 56 b 335 -17 499 11 428 -17 b 57 347 132 -17 57 119 b 335 711 57 575 132 711 b 560 639 428 711 499 683 l 585 694 l 676 694 m 521 539 b 371 579 493 554 444 579 b 214 347 235 579 214 476 b 371 115 214 218 235 115 b 521 156 444 115 493 140 m 513 903 b 367 760 513 806 453 760 b 221 903 282 760 221 806 b 226 950 221 922 224 940 l 296 1164 l 435 1164 l 374 1046 b 513 903 465 1042 513 990 m 314 903 b 367 851 314 865 335 851 b 421 903 399 851 421 865 b 367 954 421 940 399 954 b 314 903 335 954 314 940 "},"":{"ha":753,"x_min":0,"x_max":0,"o":"m 521 539 b 371 579 493 554 444 579 b 214 347 235 579 214 476 b 371 115 214 218 235 115 b 521 156 444 115 493 140 m 676 0 l 585 0 l 560 56 b 335 -17 499 11 428 -17 b 57 347 132 -17 57 119 b 335 711 57 575 132 711 b 560 639 428 711 499 683 l 585 694 l 676 694 m 164 1124 l 569 1124 l 569 1000 l 164 1000 m 118 860 b 219 961 118 915 164 961 b 321 860 275 961 321 915 b 219 758 321 804 275 758 b 118 860 164 758 118 804 m 413 860 b 514 961 413 915 458 961 b 615 860 569 961 615 915 b 514 758 615 804 569 758 b 413 860 458 758 413 804 "},"":{"ha":753,"x_min":0,"x_max":0,"o":"m 676 0 b 529 -174 600 -35 529 -89 b 607 -244 529 -215 557 -244 b 694 -232 646 -244 678 -237 l 694 -326 b 576 -347 672 -335 636 -347 b 406 -196 483 -347 406 -296 b 571 29 406 -125 443 -40 l 560 56 b 335 -17 499 11 428 -17 b 57 347 132 -17 57 119 b 335 711 57 575 132 711 b 560 639 428 711 499 683 l 585 694 l 676 694 m 521 539 b 371 579 493 554 444 579 b 214 347 235 579 214 476 b 371 115 214 218 235 115 b 521 156 444 115 493 140 "},"":{"ha":753,"x_min":0,"x_max":0,"o":"m 676 -49 b 338 -364 676 -219 628 -364 b 90 -318 253 -364 156 -349 l 90 -179 b 338 -232 174 -217 258 -232 b 521 -68 492 -232 521 -158 l 521 31 b 335 -17 468 0 408 -17 b 57 347 132 -17 57 119 b 335 711 57 575 132 711 b 560 639 428 711 499 683 l 585 694 l 676 694 m 521 539 b 371 579 493 554 444 579 b 214 347 235 579 214 476 b 371 115 214 218 235 115 b 521 156 444 115 493 140 "},"":{"ha":753,"x_min":0,"x_max":0,"o":"m 676 -49 b 338 -364 676 -219 628 -364 b 90 -318 253 -364 156 -349 l 90 -179 b 338 -232 174 -217 258 -232 b 521 -68 492 -232 521 -158 l 521 31 b 335 -17 468 0 408 -17 b 57 347 132 -17 57 119 b 335 711 57 575 132 711 b 560 639 428 711 499 683 l 585 694 l 676 694 m 521 539 b 371 579 493 554 444 579 b 214 347 235 579 214 476 b 371 115 214 218 235 115 b 521 156 444 115 493 140 m 301 764 l 382 1042 l 569 1042 l 432 764 "},"":{"ha":753,"x_min":0,"x_max":0,"o":"m 676 -49 b 338 -364 676 -219 628 -364 b 90 -318 253 -364 156 -349 l 90 -179 b 338 -232 174 -217 258 -232 b 521 -68 492 -232 521 -158 l 521 31 b 335 -17 468 0 408 -17 b 57 347 132 -17 57 119 b 335 711 57 575 132 711 b 560 639 428 711 499 683 l 585 694 l 676 694 m 521 539 b 371 579 493 554 444 579 b 214 347 235 579 214 476 b 371 115 214 218 235 115 b 521 156 444 115 493 140 m 367 921 l 238 764 l 106 764 l 288 1042 l 446 1042 l 628 764 l 496 764 "},"":{"ha":753,"x_min":0,"x_max":0,"o":"m 676 -49 b 338 -364 676 -219 628 -364 b 90 -318 253 -364 156 -349 l 90 -179 b 338 -232 174 -217 258 -232 b 521 -68 492 -232 521 -158 l 521 31 b 335 -17 468 0 408 -17 b 57 347 132 -17 57 119 b 335 711 57 575 132 711 b 560 639 428 711 499 683 l 585 694 l 676 694 m 521 539 b 371 579 493 554 444 579 b 214 347 235 579 214 476 b 371 115 214 218 235 115 b 521 156 444 115 493 140 m 649 982 b 479 788 649 869 606 788 b 256 890 357 788 329 890 b 189 815 196 890 189 850 l 85 815 b 254 1010 85 928 128 1010 b 478 907 376 1010 404 907 b 544 982 538 907 544 947 "},"":{"ha":753,"x_min":0,"x_max":0,"o":"m 676 -49 b 338 -364 676 -219 628 -364 b 90 -318 253 -364 156 -349 l 90 -179 b 338 -232 174 -217 258 -232 b 521 -68 492 -232 521 -158 l 521 31 b 335 -17 468 0 408 -17 b 57 347 132 -17 57 119 b 335 711 57 575 132 711 b 560 639 428 711 499 683 l 585 694 l 676 694 m 521 539 b 371 579 493 554 444 579 b 214 347 235 579 214 476 b 371 115 214 218 235 115 b 521 156 444 115 493 140 m 496 1042 l 628 1042 l 446 764 l 288 764 l 106 1042 l 238 1042 l 367 885 "},"":{"ha":753,"x_min":0,"x_max":0,"o":"m 676 -49 b 338 -364 676 -219 628 -364 b 90 -318 253 -364 156 -349 l 90 -179 b 338 -232 174 -217 258 -232 b 521 -68 492 -232 521 -158 l 521 31 b 335 -17 468 0 408 -17 b 57 347 132 -17 57 119 b 335 711 57 575 132 711 b 560 639 428 711 499 683 l 585 694 l 676 694 m 521 539 b 371 579 493 554 444 579 b 214 347 235 579 214 476 b 371 115 214 218 235 115 b 521 156 444 115 493 140 m 367 764 b 113 1042 183 764 115 842 l 219 1042 b 367 888 221 936 257 888 b 514 1042 476 888 513 936 l 621 1042 b 367 764 618 842 550 764 "},"":{"ha":753,"x_min":0,"x_max":0,"o":"m 676 -49 b 338 -364 676 -219 628 -364 b 90 -318 253 -364 156 -349 l 90 -179 b 338 -232 174 -217 258 -232 b 521 -68 492 -232 521 -158 l 521 31 b 335 -17 468 0 408 -17 b 57 347 132 -17 57 119 b 335 711 57 575 132 711 b 560 639 428 711 499 683 l 585 694 l 676 694 m 521 539 b 371 579 493 554 444 579 b 214 347 235 579 214 476 b 371 115 214 218 235 115 b 521 156 444 115 493 140 m 265 900 b 367 1001 265 956 311 1001 b 468 900 422 1001 468 956 b 367 799 468 844 422 799 b 265 900 311 799 265 844 "},"":{"ha":753,"x_min":0,"x_max":0,"o":"m 676 -49 b 338 -364 676 -219 628 -364 b 90 -318 253 -364 156 -349 l 90 -179 b 338 -232 174 -217 258 -232 b 521 -68 492 -232 521 -158 l 521 31 b 335 -17 468 0 408 -17 b 57 347 132 -17 57 119 b 335 711 57 575 132 711 b 560 639 428 711 499 683 l 585 694 l 676 694 m 521 539 b 371 579 493 554 444 579 b 214 347 235 579 214 476 b 371 115 214 218 235 115 b 521 156 444 115 493 140 m 268 764 l 358 1042 l 482 1042 l 453 764 "},"":{"ha":753,"x_min":0,"x_max":0,"o":"m 676 -49 b 338 -364 676 -219 628 -364 b 90 -318 253 -364 156 -349 l 90 -179 b 338 -232 174 -217 258 -232 b 521 -68 492 -232 521 -158 l 521 31 b 335 -17 468 0 408 -17 b 57 347 132 -17 57 119 b 335 711 57 575 132 711 b 560 639 428 711 499 683 l 585 694 l 676 694 m 521 539 b 371 579 493 554 444 579 b 214 347 235 579 214 476 b 371 115 214 218 235 115 b 521 156 444 115 493 140 m 268 764 l 358 1042 l 482 1042 l 453 764 "},"":{"ha":753,"x_min":0,"x_max":0,"o":"m 800 -165 l 665 -165 b 338 -364 639 -281 558 -364 b 90 -318 253 -364 156 -349 l 90 -179 b 338 -232 174 -217 258 -232 b 500 -165 429 -232 476 -206 l 351 -165 l 351 -49 l 521 -49 l 521 31 b 335 -17 468 0 408 -17 b 57 347 132 -17 57 119 b 335 711 57 575 132 711 b 560 639 428 711 499 683 l 585 694 l 676 694 l 676 -49 l 800 -49 m 521 539 b 371 579 493 554 444 579 b 214 347 235 579 214 476 b 371 115 214 218 235 115 b 521 156 444 115 493 140 "},"":{"ha":728,"x_min":0,"x_max":0,"o":"m 93 -192 b 313 -232 168 -218 242 -232 b 496 -68 467 -232 496 -158 l 496 31 b 310 -17 435 -1 371 -17 b 71 204 133 -17 71 71 l 71 694 l 226 694 l 226 218 b 336 115 226 147 263 115 b 496 156 408 115 458 135 l 496 694 l 651 694 l 651 -49 b 313 -364 651 -219 603 -364 b 93 -329 239 -364 157 -351 "},"":{"ha":728,"x_min":0,"x_max":0,"o":"m 93 -192 b 313 -232 168 -218 242 -232 b 496 -68 467 -232 496 -158 l 496 31 b 310 -17 435 -1 371 -17 b 71 204 133 -17 71 71 l 71 694 l 226 694 l 226 218 b 336 115 226 147 263 115 b 496 156 408 115 458 135 l 496 694 l 651 694 l 651 -49 b 313 -364 651 -219 603 -364 b 93 -329 239 -364 157 -351 m 296 764 l 376 1042 l 564 1042 l 426 764 "},"":{"ha":728,"x_min":0,"x_max":0,"o":"m 93 -192 b 313 -232 168 -218 242 -232 b 496 -68 467 -232 496 -158 l 496 31 b 310 -17 435 -1 371 -17 b 71 204 133 -17 71 71 l 71 694 l 226 694 l 226 218 b 336 115 226 147 263 115 b 496 156 408 115 458 135 l 496 694 l 651 694 l 651 -49 b 313 -364 651 -219 603 -364 b 93 -329 239 -364 157 -351 m 296 764 l 158 1042 l 346 1042 l 426 764 "},"":{"ha":728,"x_min":0,"x_max":0,"o":"m 93 -192 b 313 -232 168 -218 242 -232 b 496 -68 467 -232 496 -158 l 496 31 b 310 -17 435 -1 371 -17 b 71 204 133 -17 71 71 l 71 694 l 226 694 l 226 218 b 336 115 226 147 263 115 b 496 156 408 115 458 135 l 496 694 l 651 694 l 651 -49 b 313 -364 651 -219 603 -364 b 93 -329 239 -364 157 -351 m 361 921 l 232 764 l 100 764 l 282 1042 l 440 1042 l 622 764 l 490 764 "},"":{"ha":728,"x_min":0,"x_max":0,"o":"m 93 -192 b 313 -232 168 -218 242 -232 b 496 -68 467 -232 496 -158 l 496 31 b 310 -17 435 -1 371 -17 b 71 204 133 -17 71 71 l 71 694 l 226 694 l 226 218 b 336 115 226 147 263 115 b 496 156 408 115 458 135 l 496 694 l 651 694 l 651 -49 b 313 -364 651 -219 603 -364 b 93 -329 239 -364 157 -351 m 407 900 b 508 1001 407 956 453 1001 b 610 900 564 1001 610 956 b 508 799 610 844 564 799 b 407 900 453 799 407 844 m 113 900 b 214 1001 113 956 158 1001 b 315 900 269 1001 315 956 b 214 799 315 844 269 799 b 113 900 158 799 113 844 "},"":{"ha":728,"x_min":0,"x_max":0,"o":"m 93 -192 b 313 -232 168 -218 242 -232 b 496 -68 467 -232 496 -158 l 496 31 b 310 -17 435 -1 371 -17 b 71 204 133 -17 71 71 l 71 694 l 226 694 l 226 218 b 336 115 226 147 263 115 b 496 156 408 115 458 135 l 496 694 l 651 694 l 651 -49 b 313 -364 651 -219 603 -364 b 93 -329 239 -364 157 -351 m 643 982 b 474 788 643 869 600 788 b 250 890 351 788 324 890 b 183 815 190 890 183 850 l 79 815 b 249 1010 79 928 122 1010 b 472 907 371 1010 399 907 b 539 982 532 907 539 947 "},"":{"ha":728,"x_min":0,"x_max":0,"o":"m 93 -192 b 313 -232 168 -218 242 -232 b 496 -68 467 -232 496 -158 l 496 31 b 310 -17 435 -1 371 -17 b 71 204 133 -17 71 71 l 71 694 l 226 694 l 226 218 b 336 115 226 147 263 115 b 496 156 408 115 458 135 l 496 694 l 651 694 l 651 -49 b 313 -364 651 -219 603 -364 b 93 -329 239 -364 157 -351 m 158 964 l 564 964 l 564 840 l 158 840 "},"":{"ha":590,"x_min":0,"x_max":0,"o":"m 533 1042 l 533 522 l 435 522 l 422 553 b 268 506 371 518 313 506 b 46 782 118 506 46 596 b 268 1058 46 968 118 1058 b 422 1011 313 1058 371 1046 l 435 1042 m 181 782 b 300 619 181 664 225 619 b 399 647 343 619 376 633 l 399 917 b 300 944 376 931 343 944 b 181 782 225 944 181 900 "},"":{"ha":761,"x_min":0,"x_max":0,"o":"m 517 140 l 244 140 l 194 0 l 25 0 l 307 707 l 454 707 l 736 0 l 567 0 m 381 529 l 285 256 l 476 256 "},"":{"ha":710,"x_min":0,"x_max":0,"o":"m 90 694 l 403 694 b 636 511 574 694 636 626 b 572 386 636 450 604 406 b 667 222 631 363 667 292 b 425 0 667 96 607 0 l 90 0 m 501 221 b 408 304 501 265 483 304 l 246 304 l 246 138 l 413 138 b 501 221 488 138 501 176 m 478 489 b 404 557 478 526 467 557 l 246 557 l 246 421 l 399 421 b 478 489 465 421 478 450 "},"":{"ha":693,"x_min":0,"x_max":0,"o":"m 69 347 b 406 711 69 571 175 711 b 622 674 486 711 567 699 l 622 536 b 426 571 575 553 515 571 b 226 347 286 571 226 476 b 426 124 226 218 286 124 b 622 158 515 124 575 142 l 622 21 b 406 -17 567 -4 486 -17 b 69 347 175 -17 69 124 "},"":{"ha":765,"x_min":0,"x_max":0,"o":"m 90 0 l 90 694 l 360 694 b 699 347 600 694 699 560 b 360 0 699 135 600 0 m 356 138 b 543 347 500 138 543 224 b 356 557 543 471 500 557 l 246 557 l 246 138 "},"":{"ha":694,"x_min":0,"x_max":0,"o":"m 575 285 l 246 285 l 246 138 l 619 138 l 619 0 l 90 0 l 90 694 l 619 694 l 619 557 l 246 557 l 246 419 l 575 419 "},"":{"ha":661,"x_min":0,"x_max":0,"o":"m 561 279 l 246 279 l 246 0 l 90 0 l 90 694 l 606 694 l 606 557 l 246 557 l 246 414 l 561 414 "},"":{"ha":764,"x_min":0,"x_max":0,"o":"m 226 347 b 435 124 226 210 286 124 b 526 135 465 124 504 128 l 526 258 l 404 258 l 404 393 l 679 393 l 679 29 b 421 -17 615 0 508 -17 b 69 347 164 -17 69 132 b 421 711 69 563 164 711 b 664 671 522 711 610 696 l 664 533 b 435 571 610 553 538 571 b 226 347 286 571 226 485 "},"":{"ha":806,"x_min":0,"x_max":0,"o":"m 560 0 l 560 289 l 246 289 l 246 0 l 90 0 l 90 694 l 246 694 l 246 424 l 560 424 l 560 694 l 715 694 l 715 0 "},"":{"ha":364,"x_min":0,"x_max":0,"o":"m 104 0 l 104 694 l 260 694 l 260 0 "},"":{"ha":522,"x_min":0,"x_max":0,"o":"m 43 139 b 154 124 79 129 111 124 b 282 221 233 124 282 151 l 282 694 l 438 694 l 438 217 b 164 -17 438 74 353 -17 b 43 -1 126 -17 75 -11 "},"":{"ha":757,"x_min":0,"x_max":0,"o":"m 410 401 l 729 0 l 532 0 l 311 296 l 242 226 l 246 0 l 90 0 l 90 694 l 246 694 l 242 418 l 494 694 l 696 694 "},"":{"ha":661,"x_min":0,"x_max":0,"o":"m 246 138 l 619 138 l 619 0 l 90 0 l 90 694 l 246 694 "},"":{"ha":956,"x_min":0,"x_max":0,"o":"m 479 257 l 669 694 l 868 694 l 868 0 l 713 0 l 722 476 l 549 78 l 410 78 l 236 476 l 246 0 l 90 0 l 90 694 l 289 694 "},"":{"ha":811,"x_min":0,"x_max":0,"o":"m 592 0 l 239 442 l 246 0 l 90 0 l 90 694 l 219 694 l 574 253 l 565 694 l 721 694 l 721 0 "},"":{"ha":833,"x_min":0,"x_max":0,"o":"m 69 347 b 417 711 69 576 174 711 b 764 347 660 711 764 576 b 417 -17 764 118 660 -17 b 69 347 174 -17 69 118 m 607 347 b 417 576 607 489 563 576 b 226 347 271 576 226 489 b 417 118 226 206 271 118 b 607 347 563 118 607 206 "},"":{"ha":700,"x_min":0,"x_max":0,"o":"m 246 217 l 246 0 l 90 0 l 90 694 l 406 694 b 651 456 589 694 651 589 b 406 217 651 322 589 217 m 246 354 l 389 354 b 493 456 467 354 493 394 b 389 557 493 517 467 557 l 246 557 "},"":{"ha":833,"x_min":0,"x_max":0,"o":"m 69 347 b 417 711 69 576 174 711 b 764 347 660 711 764 576 b 610 29 764 188 715 82 l 610 28 l 931 -39 l 931 -197 l 285 0 b 69 347 135 46 69 163 m 607 347 b 417 576 607 489 563 576 b 226 347 271 576 226 489 b 417 118 226 206 271 118 b 607 347 563 118 607 206 "},"":{"ha":744,"x_min":0,"x_max":0,"o":"m 246 246 l 246 0 l 90 0 l 90 694 l 424 694 b 665 469 606 694 665 596 b 549 268 665 386 635 301 l 692 0 l 511 0 l 396 246 m 501 469 b 410 557 501 513 486 557 l 246 557 l 246 383 l 410 383 b 501 469 486 385 501 426 "},"":{"ha":701,"x_min":0,"x_max":0,"o":"m 363 572 b 224 489 260 572 224 547 b 363 418 224 438 263 426 b 633 208 571 400 633 356 b 324 -17 633 83 553 -17 b 83 24 254 -17 132 1 l 83 164 b 325 122 139 142 232 122 b 479 208 439 122 479 151 b 343 290 479 264 443 282 b 72 489 135 308 72 354 b 364 711 72 626 158 711 b 601 672 433 711 542 699 l 601 532 b 363 572 539 556 454 572 "},"":{"ha":694,"x_min":0,"x_max":0,"o":"m 425 557 l 425 0 l 269 0 l 269 557 l 49 557 l 49 694 l 646 694 l 646 557 "},"":{"ha":800,"x_min":0,"x_max":0,"o":"m 400 -17 b 85 229 188 -17 85 75 l 85 694 l 240 694 l 240 242 b 400 124 240 158 299 124 b 560 242 501 124 560 158 l 560 694 l 715 694 l 715 229 b 400 -17 715 75 613 -17 "},"":{"ha":761,"x_min":0,"x_max":0,"o":"m 446 -12 l 315 -12 l 25 694 l 196 694 l 381 189 l 565 694 l 736 694 "},"":{"ha":1033,"x_min":0,"x_max":0,"o":"m 1011 694 l 825 -12 l 671 -12 l 517 508 l 363 -12 l 208 -12 l 22 694 l 197 694 l 299 217 l 432 694 l 601 694 l 735 217 l 836 694 "},"":{"ha":775,"x_min":0,"x_max":0,"o":"m 28 0 l 292 358 l 42 694 l 233 694 l 388 456 l 542 694 l 733 694 l 483 358 l 747 0 l 553 0 l 388 247 l 222 0 "},"":{"ha":786,"x_min":0,"x_max":0,"o":"m 763 694 l 469 243 l 471 0 l 315 0 l 317 243 l 24 694 l 210 694 l 393 381 l 576 694 "},"":{"ha":736,"x_min":0,"x_max":0,"o":"m 60 0 l 60 103 l 454 554 l 88 553 l 88 694 l 668 694 l 668 592 l 274 140 l 681 142 l 681 0 "},"":{"ha":761,"x_min":0,"x_max":0,"o":"m 517 140 l 244 140 l 194 0 l 25 0 l 307 707 l 454 707 l 736 0 l 567 0 m 315 764 l 396 1042 l 583 1042 l 446 764 m 381 529 l 285 256 l 476 256 "},"":{"ha":761,"x_min":0,"x_max":0,"o":"m 517 140 l 244 140 l 194 0 l 25 0 l 307 707 l 454 707 l 736 0 l 567 0 m 315 764 l 178 1042 l 365 1042 l 446 764 m 381 529 l 285 256 l 476 256 "},"":{"ha":761,"x_min":0,"x_max":0,"o":"m 517 140 l 244 140 l 194 0 l 25 0 l 307 707 l 454 707 l 736 0 l 567 0 m 381 921 l 251 764 l 119 764 l 301 1042 l 460 1042 l 642 764 l 510 764 m 381 529 l 285 256 l 476 256 "},"":{"ha":761,"x_min":0,"x_max":0,"o":"m 517 140 l 244 140 l 194 0 l 25 0 l 307 707 l 454 707 l 736 0 l 567 0 m 426 900 b 528 1001 426 956 472 1001 b 629 900 583 1001 629 956 b 528 799 629 844 583 799 b 426 900 472 799 426 844 m 132 900 b 233 1001 132 956 178 1001 b 335 900 289 1001 335 956 b 233 799 335 844 289 799 b 132 900 178 799 132 844 m 381 529 l 285 256 l 476 256 "},"":{"ha":761,"x_min":0,"x_max":0,"o":"m 517 140 l 244 140 l 194 0 l 25 0 l 307 707 l 454 707 l 736 0 l 567 0 m 663 982 b 493 788 663 869 619 788 b 269 890 371 788 343 890 b 203 815 210 890 203 850 l 99 815 b 268 1010 99 928 142 1010 b 492 907 390 1010 418 907 b 558 982 551 907 558 947 m 381 529 l 285 256 l 476 256 "},"":{"ha":761,"x_min":0,"x_max":0,"o":"m 517 140 l 244 140 l 194 0 l 25 0 l 307 707 l 454 707 l 736 0 l 567 0 m 526 903 b 381 760 526 806 467 760 b 235 903 296 760 235 806 b 381 1046 235 1000 296 1046 b 526 903 467 1046 526 1000 m 381 529 l 285 256 l 476 256 m 328 903 b 381 851 328 865 349 851 b 435 903 413 851 435 865 b 381 954 435 940 413 954 b 328 903 349 954 328 940 "},"":{"ha":761,"x_min":0,"x_max":0,"o":"m 517 140 l 244 140 l 194 0 l 25 0 l 307 707 l 454 707 l 736 0 l 567 0 m 510 1042 l 642 1042 l 460 764 l 301 764 l 119 1042 l 251 1042 l 381 885 m 381 529 l 285 256 l 476 256 "},"":{"ha":761,"x_min":0,"x_max":0,"o":"m 517 140 l 244 140 l 194 0 l 25 0 l 307 707 l 454 707 l 736 0 l 567 0 m 178 964 l 583 964 l 583 840 l 178 840 m 381 529 l 285 256 l 476 256 "},"":{"ha":761,"x_min":0,"x_max":0,"o":"m 517 140 l 244 140 l 194 0 l 25 0 l 307 707 l 454 707 l 736 0 l 567 0 m 381 764 b 126 1042 197 764 129 842 l 233 1042 b 381 888 235 936 271 888 b 528 1042 490 888 526 936 l 635 1042 b 381 764 632 842 564 764 m 381 529 l 285 256 l 476 256 "},"":{"ha":761,"x_min":0,"x_max":0,"o":"m 517 140 l 244 140 l 194 0 l 25 0 l 307 707 l 454 707 l 736 0 l 567 0 m 381 1042 b 635 764 564 1042 632 964 l 528 764 b 381 918 526 869 490 918 b 233 764 271 918 235 869 l 126 764 b 381 1042 129 964 197 1042 m 381 529 l 285 256 l 476 256 "},"":{"ha":761,"x_min":0,"x_max":0,"o":"m 517 140 l 244 140 l 194 0 l 25 0 l 307 707 l 454 707 l 736 0 l 567 0 m 197 764 l 60 1042 l 247 1042 l 328 764 m 433 764 l 296 1042 l 483 1042 l 564 764 m 381 529 l 285 256 l 476 256 "},"":{"ha":761,"x_min":0,"x_max":0,"o":"m 517 140 l 244 140 l 194 0 l 25 0 l 307 707 l 454 707 l 736 0 l 567 0 m 279 900 b 381 1001 279 956 325 1001 b 482 900 436 1001 482 956 b 381 799 482 844 436 799 b 279 900 325 799 279 844 m 381 529 l 285 256 l 476 256 "},"":{"ha":761,"x_min":0,"x_max":0,"o":"m 517 140 l 244 140 l 194 0 l 25 0 l 307 707 l 454 707 l 736 0 l 567 0 m 381 529 l 285 256 l 476 256 m 526 903 b 381 760 526 806 467 760 b 235 903 296 760 235 806 b 240 950 235 922 238 940 l 310 1164 l 449 1164 l 388 1046 b 526 903 479 1042 526 990 m 328 903 b 381 851 328 865 349 851 b 435 903 413 851 435 865 b 381 954 435 940 413 954 b 328 903 349 954 328 940 "},"":{"ha":761,"x_min":0,"x_max":0,"o":"m 517 140 l 244 140 l 194 0 l 25 0 l 307 707 l 454 707 l 736 0 l 567 0 m 178 1124 l 583 1124 l 583 1000 l 178 1000 m 132 860 b 233 961 132 915 178 961 b 335 860 289 961 335 915 b 233 758 335 804 289 758 b 132 860 178 758 132 804 m 426 860 b 528 961 426 915 472 961 b 629 860 583 961 629 915 b 528 758 629 804 583 758 b 426 860 472 758 426 804 m 381 529 l 285 256 l 476 256 "},"":{"ha":761,"x_min":0,"x_max":0,"o":"m 244 140 l 194 0 l 25 0 l 307 707 l 454 707 l 736 0 b 589 -174 660 -35 589 -89 b 667 -244 589 -215 617 -244 b 754 -232 706 -244 738 -237 l 754 -326 b 636 -347 732 -335 696 -347 b 465 -196 543 -347 465 -296 b 569 -10 465 -139 490 -71 l 517 140 m 381 529 l 285 256 l 476 256 "},"":{"ha":760,"x_min":0,"x_max":0,"o":"m 381 529 l 194 0 l 25 0 l 307 707 l 454 707 l 736 0 l 567 0 "},"":{"ha":1065,"x_min":0,"x_max":0,"o":"m 951 285 l 636 285 l 667 138 l 996 138 l 996 0 l 532 0 l 504 140 l 253 140 l 188 0 l 14 0 l 367 694 l 996 694 l 996 557 l 579 557 l 607 419 l 951 419 m 304 256 l 481 256 l 429 521 "},"":{"ha":1065,"x_min":0,"x_max":0,"o":"m 951 285 l 636 285 l 667 138 l 996 138 l 996 0 l 532 0 l 504 140 l 253 140 l 188 0 l 14 0 l 367 694 l 996 694 l 996 557 l 579 557 l 607 419 l 951 419 m 304 256 l 481 256 l 429 521 m 426 764 l 507 1042 l 694 1042 l 557 764 "},"":{"ha":1065,"x_min":0,"x_max":0,"o":"m 951 285 l 636 285 l 667 138 l 996 138 l 996 0 l 532 0 l 504 140 l 253 140 l 188 0 l 14 0 l 367 694 l 996 694 l 996 557 l 579 557 l 607 419 l 951 419 m 304 256 l 481 256 l 429 521 m 289 964 l 694 964 l 694 840 l 289 840 "},"":{"ha":693,"x_min":0,"x_max":0,"o":"m 69 347 b 406 711 69 571 175 711 b 622 674 486 711 567 699 l 622 536 b 426 571 575 553 515 571 b 226 347 286 571 226 476 b 426 124 226 218 286 124 b 622 158 515 124 575 142 l 622 21 b 406 -17 567 -4 486 -17 b 69 347 175 -17 69 124 m 322 764 l 403 1042 l 590 1042 l 453 764 "},"":{"ha":693,"x_min":0,"x_max":0,"o":"m 69 347 b 406 711 69 571 175 711 b 622 674 486 711 567 699 l 622 536 b 426 571 575 553 515 571 b 226 347 286 571 226 476 b 426 124 226 218 286 124 b 622 158 515 124 575 142 l 622 21 b 406 -17 567 -4 486 -17 b 69 347 175 -17 69 124 m 388 921 l 258 764 l 126 764 l 308 1042 l 467 1042 l 649 764 l 517 764 "},"":{"ha":693,"x_min":0,"x_max":0,"o":"m 69 347 b 406 711 69 571 175 711 b 622 674 486 711 567 699 l 622 536 b 426 571 575 553 515 571 b 226 347 286 571 226 476 b 426 124 226 218 286 124 b 622 158 515 124 575 142 l 622 21 b 406 -17 567 -4 486 -17 b 69 347 175 -17 69 124 m 517 1042 l 649 1042 l 467 764 l 308 764 l 126 1042 l 258 1042 l 388 885 "},"":{"ha":693,"x_min":0,"x_max":0,"o":"m 69 347 b 406 711 69 571 175 711 b 622 674 486 711 567 699 l 622 536 b 426 571 575 553 515 571 b 226 347 286 571 226 476 b 426 124 226 218 286 124 b 622 158 515 124 575 142 l 622 21 b 406 -17 567 -4 486 -17 b 69 347 175 -17 69 124 m 286 900 b 388 1001 286 956 332 1001 b 489 900 443 1001 489 956 b 388 799 489 844 443 799 b 286 900 332 799 286 844 "},"":{"ha":693,"x_min":0,"x_max":0,"o":"m 328 -11 b 69 347 151 18 69 150 b 406 711 69 571 175 711 b 622 674 486 711 567 699 l 622 536 b 426 571 575 553 515 571 b 226 347 286 571 226 476 b 426 124 226 218 286 124 b 622 158 515 124 575 142 l 622 21 b 406 -17 567 -4 486 -17 l 410 -83 b 539 -212 481 -100 539 -136 b 374 -347 539 -301 471 -347 b 239 -321 306 -347 258 -331 l 239 -215 b 353 -240 253 -221 300 -240 b 428 -199 400 -240 428 -229 b 315 -131 428 -156 392 -140 "},"":{"ha":765,"x_min":0,"x_max":0,"o":"m 90 0 l 90 694 l 360 694 b 699 347 600 694 699 560 b 360 0 699 135 600 0 m 356 138 b 543 347 500 138 543 224 b 356 557 543 471 500 557 l 246 557 l 246 138 m 490 1042 l 622 1042 l 440 764 l 282 764 l 100 1042 l 232 1042 l 361 885 "},"":{"ha":765,"x_min":0,"x_max":0,"o":"m 90 0 l 90 694 l 360 694 b 699 347 600 694 699 560 b 360 0 699 135 600 0 m 356 138 b 543 347 500 138 543 224 b 356 557 543 471 500 557 l 246 557 l 246 138 m 300 -61 b 517 -212 461 -75 517 -137 b 351 -347 517 -301 449 -347 b 217 -321 283 -347 236 -331 l 217 -215 b 331 -240 231 -221 278 -240 b 406 -199 378 -240 406 -229 b 293 -131 406 -156 369 -140 "},"":{"ha":765,"x_min":0,"x_max":0,"o":"m 90 0 l 90 694 l 360 694 b 699 347 600 694 699 560 b 360 0 699 135 600 0 m 356 138 b 543 347 500 138 543 224 b 356 557 543 471 500 557 l 246 557 l 246 138 m 467 -206 b 365 -307 467 -261 421 -307 b 264 -206 310 -307 264 -261 b 365 -104 264 -150 310 -104 b 467 -206 421 -104 467 -150 "},"":{"ha":819,"x_min":0,"x_max":0,"o":"m 35 414 l 146 414 l 146 694 l 415 694 b 754 347 656 694 754 560 b 415 0 754 135 656 0 l 146 0 l 146 281 l 35 281 m 411 138 b 599 347 556 138 599 224 b 411 557 599 471 556 557 l 301 557 l 301 414 l 439 414 l 439 281 l 301 281 l 301 138 "},"":{"ha":694,"x_min":0,"x_max":0,"o":"m 575 285 l 246 285 l 246 138 l 619 138 l 619 0 l 90 0 l 90 694 l 619 694 l 619 557 l 246 557 l 246 419 l 575 419 m 297 764 l 378 1042 l 565 1042 l 428 764 "},"":{"ha":694,"x_min":0,"x_max":0,"o":"m 575 285 l 246 285 l 246 138 l 619 138 l 619 0 l 90 0 l 90 694 l 619 694 l 619 557 l 246 557 l 246 419 l 575 419 m 297 764 l 160 1042 l 347 1042 l 428 764 "},"":{"ha":694,"x_min":0,"x_max":0,"o":"m 575 285 l 246 285 l 246 138 l 619 138 l 619 0 l 90 0 l 90 694 l 619 694 l 619 557 l 246 557 l 246 419 l 575 419 m 363 921 l 233 764 l 101 764 l 283 1042 l 442 1042 l 624 764 l 492 764 "},"":{"ha":694,"x_min":0,"x_max":0,"o":"m 575 285 l 246 285 l 246 138 l 619 138 l 619 0 l 90 0 l 90 694 l 619 694 l 619 557 l 246 557 l 246 419 l 575 419 m 114 900 b 215 1001 114 956 160 1001 b 317 900 271 1001 317 956 b 215 799 317 844 271 799 b 114 900 160 799 114 844 m 408 900 b 510 1001 408 956 454 1001 b 611 900 565 1001 611 956 b 510 799 611 844 565 799 b 408 900 454 799 408 844 "},"":{"ha":694,"x_min":0,"x_max":0,"o":"m 575 285 l 246 285 l 246 138 l 619 138 l 619 0 l 90 0 l 90 694 l 619 694 l 619 557 l 246 557 l 246 419 l 575 419 m 492 1042 l 624 1042 l 442 764 l 283 764 l 101 1042 l 233 1042 l 363 885 "},"":{"ha":694,"x_min":0,"x_max":0,"o":"m 575 285 l 246 285 l 246 138 l 619 138 l 619 0 l 90 0 l 90 694 l 619 694 l 619 557 l 246 557 l 246 419 l 575 419 m 160 964 l 565 964 l 565 840 l 160 840 "},"":{"ha":694,"x_min":0,"x_max":0,"o":"m 575 285 l 246 285 l 246 138 l 619 138 l 619 0 l 90 0 l 90 694 l 619 694 l 619 557 l 246 557 l 246 419 l 575 419 m 363 764 b 108 1042 179 764 111 842 l 215 1042 b 363 888 217 936 253 888 b 510 1042 472 888 508 936 l 617 1042 b 363 764 614 842 546 764 "},"":{"ha":694,"x_min":0,"x_max":0,"o":"m 575 285 l 246 285 l 246 138 l 619 138 l 619 0 l 90 0 l 90 694 l 619 694 l 619 557 l 246 557 l 246 419 l 575 419 m 363 1042 b 617 764 546 1042 614 964 l 510 764 b 363 918 508 869 472 918 b 215 764 253 918 217 869 l 108 764 b 363 1042 111 964 179 1042 "},"":{"ha":694,"x_min":0,"x_max":0,"o":"m 575 285 l 246 285 l 246 138 l 619 138 l 619 0 l 90 0 l 90 694 l 619 694 l 619 557 l 246 557 l 246 419 l 575 419 m 415 764 l 278 1042 l 465 1042 l 546 764 m 179 764 l 42 1042 l 229 1042 l 310 764 "},"":{"ha":694,"x_min":0,"x_max":0,"o":"m 575 285 l 246 285 l 246 138 l 619 138 l 619 0 l 90 0 l 90 694 l 619 694 l 619 557 l 246 557 l 246 419 l 575 419 m 261 900 b 363 1001 261 956 307 1001 b 464 900 418 1001 464 956 b 363 799 464 844 418 799 b 261 900 307 799 261 844 "},"":{"ha":694,"x_min":0,"x_max":0,"o":"m 575 285 l 246 285 l 246 138 l 619 138 l 619 0 l 90 0 l 90 694 l 619 694 l 619 557 l 246 557 l 246 419 l 575 419 m 464 -206 b 363 -307 464 -261 418 -307 b 261 -206 307 -307 261 -261 b 363 -104 261 -150 307 -104 b 464 -206 418 -104 464 -150 m 297 764 l 378 1042 l 565 1042 l 428 764 "},"":{"ha":694,"x_min":0,"x_max":0,"o":"m 575 285 l 246 285 l 246 138 l 619 138 l 619 0 l 90 0 l 90 694 l 619 694 l 619 557 l 246 557 l 246 419 l 575 419 m 464 -206 b 363 -307 464 -261 418 -307 b 261 -206 307 -307 261 -261 b 363 -104 261 -150 307 -104 b 464 -206 418 -104 464 -150 m 297 764 l 160 1042 l 347 1042 l 428 764 "},"":{"ha":694,"x_min":0,"x_max":0,"o":"m 575 285 l 246 285 l 246 138 l 619 138 l 619 0 b 472 -174 543 -35 472 -89 b 550 -244 472 -215 500 -244 b 638 -232 589 -244 621 -237 l 638 -326 b 519 -347 615 -335 579 -347 b 349 -196 426 -347 349 -296 b 467 0 349 -135 376 -62 l 90 0 l 90 694 l 619 694 l 619 557 l 246 557 l 246 419 l 575 419 "},"":{"ha":764,"x_min":0,"x_max":0,"o":"m 226 347 b 435 124 226 210 286 124 b 526 135 465 124 504 128 l 526 258 l 404 258 l 404 393 l 679 393 l 679 29 b 421 -17 615 0 508 -17 b 69 347 164 -17 69 132 b 421 711 69 563 164 711 b 664 671 522 711 610 696 l 664 533 b 435 571 610 553 538 571 b 226 347 286 571 226 485 m 347 764 l 428 1042 l 615 1042 l 478 764 "},"":{"ha":764,"x_min":0,"x_max":0,"o":"m 226 347 b 435 124 226 210 286 124 b 526 135 465 124 504 128 l 526 258 l 404 258 l 404 393 l 679 393 l 679 29 b 421 -17 615 0 508 -17 b 69 347 164 -17 69 132 b 421 711 69 563 164 711 b 664 671 522 711 610 696 l 664 533 b 435 571 610 553 538 571 b 226 347 286 571 226 485 m 413 921 l 283 764 l 151 764 l 333 1042 l 492 1042 l 674 764 l 542 764 "},"":{"ha":764,"x_min":0,"x_max":0,"o":"m 226 347 b 435 124 226 210 286 124 b 526 135 465 124 504 128 l 526 258 l 404 258 l 404 393 l 679 393 l 679 29 b 421 -17 615 0 508 -17 b 69 347 164 -17 69 132 b 421 711 69 563 164 711 b 664 671 522 711 610 696 l 664 533 b 435 571 610 553 538 571 b 226 347 286 571 226 485 m 694 982 b 525 788 694 869 651 788 b 301 890 403 788 375 890 b 235 815 242 890 235 850 l 131 815 b 300 1010 131 928 174 1010 b 524 907 422 1010 450 907 b 590 982 583 907 590 947 "},"":{"ha":764,"x_min":0,"x_max":0,"o":"m 226 347 b 435 124 226 210 286 124 b 526 135 465 124 504 128 l 526 258 l 404 258 l 404 393 l 679 393 l 679 29 b 421 -17 615 0 508 -17 b 69 347 164 -17 69 132 b 421 711 69 563 164 711 b 664 671 522 711 610 696 l 664 533 b 435 571 610 553 538 571 b 226 347 286 571 226 485 m 542 1042 l 674 1042 l 492 764 l 333 764 l 151 1042 l 283 1042 l 413 885 "},"":{"ha":764,"x_min":0,"x_max":0,"o":"m 226 347 b 435 124 226 210 286 124 b 526 135 465 124 504 128 l 526 258 l 404 258 l 404 393 l 679 393 l 679 29 b 421 -17 615 0 508 -17 b 69 347 164 -17 69 132 b 421 711 69 563 164 711 b 664 671 522 711 610 696 l 664 533 b 435 571 610 553 538 571 b 226 347 286 571 226 485 m 413 764 b 158 1042 229 764 161 842 l 265 1042 b 413 888 267 936 303 888 b 560 1042 522 888 558 936 l 667 1042 b 413 764 664 842 596 764 "},"":{"ha":764,"x_min":0,"x_max":0,"o":"m 226 347 b 435 124 226 210 286 124 b 526 135 465 124 504 128 l 526 258 l 404 258 l 404 393 l 679 393 l 679 29 b 421 -17 615 0 508 -17 b 69 347 164 -17 69 132 b 421 711 69 563 164 711 b 664 671 522 711 610 696 l 664 533 b 435 571 610 553 538 571 b 226 347 286 571 226 485 m 311 900 b 413 1001 311 956 357 1001 b 514 900 468 1001 514 956 b 413 799 514 844 468 799 b 311 900 357 799 311 844 "},"":{"ha":764,"x_min":0,"x_max":0,"o":"m 226 347 b 435 124 226 210 286 124 b 526 135 465 124 504 128 l 526 258 l 404 258 l 404 393 l 679 393 l 679 29 b 421 -17 615 0 508 -17 b 69 347 164 -17 69 132 b 421 711 69 563 164 711 b 664 671 522 711 610 696 l 664 533 b 435 571 610 553 538 571 b 226 347 286 571 226 485 m 511 -69 l 421 -347 l 297 -347 l 326 -69 "},"":{"ha":764,"x_min":0,"x_max":0,"o":"m 226 347 b 435 124 226 210 286 124 b 526 135 465 124 504 128 l 526 258 l 404 258 l 404 393 l 679 393 l 679 29 b 421 -17 615 0 508 -17 b 69 347 164 -17 69 132 b 421 711 69 563 164 711 b 664 671 522 711 610 696 l 664 533 b 435 571 610 553 538 571 b 226 347 286 571 226 485 m 314 764 l 404 1042 l 528 1042 l 499 764 "},"":{"ha":796,"x_min":0,"x_max":0,"o":"m 226 347 b 435 124 226 210 286 124 b 526 135 465 124 504 128 l 526 258 l 404 258 l 404 393 l 679 393 l 679 258 l 765 258 l 765 139 l 679 139 l 679 29 b 421 -17 615 0 508 -17 b 69 347 164 -17 69 132 b 421 711 69 563 164 711 b 664 671 522 711 610 696 l 664 533 b 435 571 610 553 538 571 b 226 347 286 571 226 485 "},"":{"ha":806,"x_min":0,"x_max":0,"o":"m 560 0 l 560 289 l 246 289 l 246 0 l 90 0 l 90 694 l 246 694 l 246 424 l 560 424 l 560 694 l 715 694 l 715 0 m 403 921 l 274 764 l 142 764 l 324 1042 l 482 1042 l 664 764 l 532 764 "},"":{"ha":806,"x_min":0,"x_max":0,"o":"m 560 0 l 560 289 l 246 289 l 246 0 l 90 0 l 90 694 l 246 694 l 246 424 l 560 424 l 560 694 l 715 694 l 715 0 m 532 1042 l 664 1042 l 482 764 l 324 764 l 142 1042 l 274 1042 l 403 885 "},"":{"ha":806,"x_min":0,"x_max":0,"o":"m 560 0 l 560 289 l 246 289 l 246 0 l 90 0 l 90 694 l 246 694 l 246 424 l 560 424 l 560 694 l 715 694 l 715 0 m 504 -206 b 403 -307 504 -261 458 -307 b 301 -206 347 -307 301 -261 b 403 -104 301 -150 347 -104 b 504 -206 458 -104 504 -150 "},"":{"ha":806,"x_min":0,"x_max":0,"o":"m 560 0 l 560 289 l 246 289 l 246 0 l 90 0 l 90 694 l 246 694 l 246 424 l 560 424 l 560 694 l 715 694 l 715 0 m 606 -269 l 200 -269 l 200 -146 l 606 -146 "},"":{"ha":806,"x_min":0,"x_max":0,"o":"m 560 0 l 560 289 l 246 289 l 246 0 l 90 0 l 90 694 l 246 694 l 246 619 l 560 619 l 560 694 l 715 694 l 715 0 m 560 424 l 560 500 l 246 500 l 246 424 "},"":{"ha":368,"x_min":0,"x_max":0,"o":"m 104 0 l 104 694 l 260 694 l 260 0 m 117 764 l 197 1042 l 385 1042 l 247 764 "},"":{"ha":368,"x_min":0,"x_max":0,"o":"m 104 0 l 104 694 l 260 694 l 260 0 m 117 764 l -21 1042 l 167 1042 l 247 764 "},"":{"ha":368,"x_min":0,"x_max":0,"o":"m 104 0 l 104 694 l 260 694 l 260 0 m 53 764 l -79 764 l 103 1042 l 261 1042 l 443 764 l 311 764 l 182 921 "},"":{"ha":368,"x_min":0,"x_max":0,"o":"m 104 0 l 104 694 l 260 694 l 260 0 m -53 900 b 49 1001 -53 956 -7 1001 b 150 900 104 1001 150 956 b 49 799 150 844 104 799 b -53 900 -7 799 -53 844 m 214 900 b 315 1001 214 956 260 1001 b 417 900 371 1001 417 956 b 315 799 417 844 371 799 b 214 900 260 799 214 844 "},"":{"ha":368,"x_min":0,"x_max":0,"o":"m 104 0 l 104 694 l 260 694 l 260 0 m 464 982 b 294 788 464 869 421 788 b 71 890 172 788 144 890 b 4 815 11 890 4 850 l -100 815 b 69 1010 -100 928 -57 1010 b 293 907 192 1010 219 907 b 360 982 353 907 360 947 "},"":{"ha":368,"x_min":0,"x_max":0,"o":"m 104 0 l 104 694 l 260 694 l 260 0 m 311 1042 l 443 1042 l 261 764 l 103 764 l -79 1042 l 53 1042 l 182 885 "},"":{"ha":368,"x_min":0,"x_max":0,"o":"m 104 0 l 104 694 l 260 694 l 260 0 m -21 964 l 385 964 l 385 840 l -21 840 "},"":{"ha":368,"x_min":0,"x_max":0,"o":"m 104 0 l 104 694 l 260 694 l 260 0 m 182 764 b -72 1042 -1 764 -69 842 l 35 1042 b 182 888 36 936 72 888 b 329 1042 292 888 328 936 l 436 1042 b 182 764 433 842 365 764 "},"":{"ha":368,"x_min":0,"x_max":0,"o":"m 104 0 l 104 694 l 260 694 l 260 0 m 182 1042 b 436 764 365 1042 433 964 l 329 764 b 182 918 328 869 292 918 b 35 764 72 918 36 869 l -72 764 b 182 1042 -69 964 -1 1042 "},"":{"ha":368,"x_min":0,"x_max":0,"o":"m 104 0 l 104 694 l 260 694 l 260 0 m 221 764 l 83 1042 l 271 1042 l 351 764 m 13 764 l -125 1042 l 63 1042 l 143 764 "},"":{"ha":368,"x_min":0,"x_max":0,"o":"m 104 0 l 104 694 l 260 694 l 260 0 m 81 900 b 182 1001 81 956 126 1001 b 283 900 238 1001 283 956 b 182 799 283 844 238 799 b 81 900 126 799 81 844 "},"":{"ha":368,"x_min":0,"x_max":0,"o":"m 104 0 l 104 694 l 260 694 l 260 0 m 283 -206 b 182 -307 283 -261 238 -307 b 81 -206 126 -307 81 -261 b 182 -104 81 -150 126 -104 b 283 -206 238 -104 283 -150 "},"":{"ha":368,"x_min":0,"x_max":0,"o":"m 260 0 b 133 -174 190 -35 133 -89 b 211 -244 133 -215 161 -244 b 299 -232 250 -244 282 -237 l 299 -326 b 181 -347 276 -335 240 -347 b 10 -196 88 -347 10 -296 b 104 -7 10 -137 31 -69 l 104 694 l 260 694 l 260 0 "},"":{"ha":538,"x_min":0,"x_max":0,"o":"m 43 139 b 154 124 79 129 111 124 b 282 221 233 124 282 151 l 282 694 l 438 694 l 438 217 b 164 -17 438 74 353 -17 b 43 -1 126 -17 75 -11 m 231 764 l 99 764 l 281 1042 l 439 1042 l 621 764 l 489 764 l 360 921 "},"":{"ha":538,"x_min":0,"x_max":0,"o":"m 43 139 b 154 124 79 129 111 124 b 282 221 233 124 282 151 l 282 694 l 438 694 l 438 217 b 164 -17 438 74 353 -17 b 43 -1 126 -17 75 -11 m 489 1042 l 621 1042 l 439 764 l 281 764 l 99 1042 l 231 1042 l 360 885 "},"":{"ha":757,"x_min":0,"x_max":0,"o":"m 410 401 l 729 0 l 532 0 l 311 296 l 242 226 l 246 0 l 90 0 l 90 694 l 246 694 l 242 418 l 494 694 l 696 694 m 493 1042 l 625 1042 l 443 764 l 285 764 l 103 1042 l 235 1042 l 364 885 "},"":{"ha":757,"x_min":0,"x_max":0,"o":"m 410 401 l 729 0 l 532 0 l 311 296 l 242 226 l 246 0 l 90 0 l 90 694 l 246 694 l 242 418 l 494 694 l 696 694 m 476 -69 l 386 -347 l 263 -347 l 292 -69 "},"":{"ha":757,"x_min":0,"x_max":0,"o":"m 410 401 l 729 0 l 532 0 l 311 296 l 242 226 l 246 0 l 90 0 l 90 694 l 246 694 l 242 418 l 494 694 l 696 694 m 313 -61 b 529 -212 474 -75 529 -137 b 364 -347 529 -301 461 -347 b 229 -321 296 -347 249 -331 l 229 -215 b 343 -240 243 -221 290 -240 b 418 -199 390 -240 418 -229 b 306 -131 418 -156 382 -140 "},"":{"ha":757,"x_min":0,"x_max":0,"o":"m 90 0 l 90 694 l 240 694 l 240 389 b 353 510 283 403 314 440 b 686 700 417 639 492 700 l 686 558 b 450 388 568 558 515 515 l 436 364 l 728 0 l 531 0 l 329 265 b 240 222 301 246 271 229 l 240 0 "},"":{"ha":661,"x_min":0,"x_max":0,"o":"m 246 138 l 619 138 l 619 0 l 90 0 l 90 694 l 246 694 m 103 764 l 183 1042 l 371 1042 l 233 764 "},"":{"ha":661,"x_min":0,"x_max":0,"o":"m 246 138 l 619 138 l 619 0 l 90 0 l 90 694 l 246 694 m 488 868 l 421 590 l 343 590 l 365 868 "},"":{"ha":661,"x_min":0,"x_max":0,"o":"m 246 138 l 619 138 l 619 0 l 90 0 l 90 694 l 246 694 m 456 -69 l 365 -347 l 242 -347 l 271 -69 "},"":{"ha":661,"x_min":0,"x_max":0,"o":"m 246 138 l 619 138 l 619 0 l 90 0 l 90 694 l 246 694 m 292 -61 b 508 -212 453 -75 508 -137 b 343 -347 508 -301 440 -347 b 208 -321 275 -347 228 -331 l 208 -215 b 322 -240 222 -221 269 -240 b 397 -199 369 -240 397 -229 b 285 -131 397 -156 361 -140 "},"":{"ha":661,"x_min":0,"x_max":0,"o":"m 246 138 l 619 138 l 619 0 l 90 0 l 90 694 l 246 694 m 458 -206 b 357 -307 458 -261 413 -307 b 256 -206 301 -307 256 -261 b 357 -104 256 -150 301 -104 b 458 -206 413 -104 458 -150 "},"":{"ha":661,"x_min":0,"x_max":0,"o":"m 246 138 l 619 138 l 619 0 l 90 0 l 90 694 l 246 694 m 458 -206 b 357 -307 458 -261 413 -307 b 256 -206 301 -307 256 -261 b 357 -104 256 -150 301 -104 b 458 -206 413 -104 458 -150 m -35 964 l 371 964 l 371 840 l -35 840 "},"":{"ha":661,"x_min":0,"x_max":0,"o":"m 246 138 l 619 138 l 619 0 l 90 0 l 90 694 l 246 694 m 600 396 b 499 294 600 340 554 294 b 397 396 443 294 397 340 b 499 497 397 451 443 497 b 600 396 554 497 600 451 "},"":{"ha":726,"x_min":0,"x_max":0,"o":"m 311 275 l 311 138 l 685 138 l 685 0 l 156 0 l 156 189 l 29 119 l 29 246 l 156 315 l 156 694 l 311 694 l 311 401 l 578 549 l 578 422 "},"":{"ha":957,"x_min":0,"x_max":0,"o":"m 479 257 l 669 694 l 868 694 l 868 0 l 713 0 l 722 476 l 549 78 l 410 78 l 236 476 l 246 0 l 90 0 l 90 694 l 289 694 m 278 964 l 683 964 l 683 840 l 278 840 "},"":{"ha":957,"x_min":0,"x_max":0,"o":"m 479 257 l 669 694 l 868 694 l 868 0 l 713 0 l 722 476 l 549 78 l 410 78 l 236 476 l 246 0 l 90 0 l 90 694 l 289 694 m 415 -61 b 632 -212 576 -75 632 -137 b 467 -347 632 -301 564 -347 b 332 -321 399 -347 351 -331 l 332 -215 b 446 -240 346 -221 393 -240 b 521 -199 493 -240 521 -229 b 408 -131 521 -156 485 -140 "},"":{"ha":957,"x_min":0,"x_max":0,"o":"m 479 257 l 669 694 l 868 694 l 868 0 l 713 0 l 722 476 l 549 78 l 410 78 l 236 476 l 246 0 l 90 0 l 90 694 l 289 694 m 582 -206 b 481 -307 582 -261 536 -307 b 379 -206 425 -307 379 -261 b 481 -104 379 -150 425 -104 b 582 -206 536 -104 582 -150 "},"":{"ha":811,"x_min":0,"x_max":0,"o":"m 592 0 l 239 442 l 246 0 l 90 0 l 90 694 l 219 694 l 574 253 l 565 694 l 721 694 l 721 0 m 340 764 l 421 1042 l 608 1042 l 471 764 "},"":{"ha":811,"x_min":0,"x_max":0,"o":"m 592 0 l 239 442 l 246 0 l 90 0 l 90 694 l 219 694 l 574 253 l 565 694 l 721 694 l 721 0 m 340 764 l 203 1042 l 390 1042 l 471 764 "},"":{"ha":811,"x_min":0,"x_max":0,"o":"m 592 0 l 239 442 l 246 0 l 90 0 l 90 694 l 219 694 l 574 253 l 565 694 l 721 694 l 721 0 m 157 900 b 258 1001 157 956 203 1001 b 360 900 314 1001 360 956 b 258 799 360 844 314 799 b 157 900 203 799 157 844 m 451 900 b 553 1001 451 956 497 1001 b 654 900 608 1001 654 956 b 553 799 654 844 608 799 b 451 900 497 799 451 844 "},"":{"ha":811,"x_min":0,"x_max":0,"o":"m 592 0 l 239 442 l 246 0 l 90 0 l 90 694 l 219 694 l 574 253 l 565 694 l 721 694 l 721 0 m 688 982 b 518 788 688 869 644 788 b 294 890 396 788 368 890 b 228 815 235 890 228 850 l 124 815 b 293 1010 124 928 167 1010 b 517 907 415 1010 443 907 b 583 982 576 907 583 947 "},"":{"ha":811,"x_min":0,"x_max":0,"o":"m 592 0 l 239 442 l 246 0 l 90 0 l 90 694 l 219 694 l 574 253 l 565 694 l 721 694 l 721 0 m 535 1042 l 667 1042 l 485 764 l 326 764 l 144 1042 l 276 1042 l 406 885 "},"":{"ha":811,"x_min":0,"x_max":0,"o":"m 592 0 l 239 442 l 246 0 l 90 0 l 90 694 l 219 694 l 574 253 l 565 694 l 721 694 l 721 0 m 203 964 l 608 964 l 608 840 l 203 840 "},"":{"ha":811,"x_min":0,"x_max":0,"o":"m 592 0 l 239 442 l 246 0 l 90 0 l 90 694 l 219 694 l 574 253 l 565 694 l 721 694 l 721 0 m 304 900 b 406 1001 304 956 350 1001 b 507 900 461 1001 507 956 b 406 799 507 844 461 799 b 304 900 350 799 304 844 "},"":{"ha":811,"x_min":0,"x_max":0,"o":"m 592 0 l 239 442 l 246 0 l 90 0 l 90 694 l 219 694 l 574 253 l 565 694 l 721 694 l 721 0 m 504 -69 l 414 -347 l 290 -347 l 319 -69 "},"":{"ha":811,"x_min":0,"x_max":0,"o":"m 592 0 l 239 442 l 246 0 l 90 0 l 90 694 l 219 694 l 574 253 l 565 694 l 721 694 l 721 0 m 340 -61 b 557 -212 501 -75 557 -137 b 392 -347 557 -301 489 -347 b 257 -321 324 -347 276 -331 l 257 -215 b 371 -240 271 -221 318 -240 b 446 -199 418 -240 446 -229 b 333 -131 446 -156 410 -140 "},"":{"ha":811,"x_min":0,"x_max":0,"o":"m 592 0 l 239 442 l 246 0 l 90 0 l 90 694 l 219 694 l 574 253 l 565 694 l 721 694 l 721 0 m 507 -206 b 406 -307 507 -261 461 -307 b 304 -206 350 -307 304 -261 b 406 -104 304 -150 350 -104 b 507 -206 461 -104 507 -150 "},"":{"ha":835,"x_min":0,"x_max":0,"o":"m 592 0 l 239 442 l 246 0 l 90 0 l 90 694 l 219 694 l 574 253 l 565 694 l 721 694 l 721 110 l 835 110 l 835 -174 l 721 -174 l 721 0 "},"":{"ha":825,"x_min":0,"x_max":0,"o":"m 69 347 b 417 711 69 576 174 711 b 764 347 660 711 764 576 b 417 -17 764 118 660 -17 b 69 347 174 -17 69 118 m 607 347 b 417 576 607 489 563 576 b 226 347 271 576 226 489 b 417 118 226 206 271 118 b 607 347 563 118 607 206 m 351 764 l 432 1042 l 619 1042 l 482 764 "},"":{"ha":825,"x_min":0,"x_max":0,"o":"m 69 347 b 417 711 69 576 174 711 b 764 347 660 711 764 576 b 417 -17 764 118 660 -17 b 69 347 174 -17 69 118 m 607 347 b 417 576 607 489 563 576 b 226 347 271 576 226 489 b 417 118 226 206 271 118 b 607 347 563 118 607 206 m 351 764 l 214 1042 l 401 1042 l 482 764 "},"":{"ha":825,"x_min":0,"x_max":0,"o":"m 69 347 b 417 711 69 576 174 711 b 764 347 660 711 764 576 b 417 -17 764 118 660 -17 b 69 347 174 -17 69 118 m 607 347 b 417 576 607 489 563 576 b 226 347 271 576 226 489 b 417 118 226 206 271 118 b 607 347 563 118 607 206 m 417 921 l 288 764 l 156 764 l 338 1042 l 496 1042 l 678 764 l 546 764 "},"":{"ha":825,"x_min":0,"x_max":0,"o":"m 69 347 b 417 711 69 576 174 711 b 764 347 660 711 764 576 b 417 -17 764 118 660 -17 b 69 347 174 -17 69 118 m 607 347 b 417 576 607 489 563 576 b 226 347 271 576 226 489 b 417 118 226 206 271 118 b 607 347 563 118 607 206 m 168 900 b 269 1001 168 956 214 1001 b 371 900 325 1001 371 956 b 269 799 371 844 325 799 b 168 900 214 799 168 844 m 463 900 b 564 1001 463 956 508 1001 b 665 900 619 1001 665 956 b 564 799 665 844 619 799 b 463 900 508 799 463 844 "},"":{"ha":825,"x_min":0,"x_max":0,"o":"m 69 347 b 417 711 69 576 174 711 b 764 347 660 711 764 576 b 417 -17 764 118 660 -17 b 69 347 174 -17 69 118 m 607 347 b 417 576 607 489 563 576 b 226 347 271 576 226 489 b 417 118 226 206 271 118 b 607 347 563 118 607 206 m 699 982 b 529 788 699 869 656 788 b 306 890 407 788 379 890 b 239 815 246 890 239 850 l 135 815 b 304 1010 135 928 178 1010 b 528 907 426 1010 454 907 b 594 982 588 907 594 947 "},"":{"ha":825,"x_min":0,"x_max":0,"o":"m 69 347 b 417 711 69 576 174 711 b 764 347 660 711 764 576 b 417 -17 764 118 660 -17 b 69 347 174 -17 69 118 m 607 347 b 417 576 607 489 563 576 b 226 347 271 576 226 489 b 417 118 226 206 271 118 b 607 347 563 118 607 206 m 546 1042 l 678 1042 l 496 764 l 338 764 l 156 1042 l 288 1042 l 417 885 "},"":{"ha":825,"x_min":0,"x_max":0,"o":"m 69 347 b 417 711 69 576 174 711 b 764 347 660 711 764 576 b 417 -17 764 118 660 -17 b 69 347 174 -17 69 118 m 607 347 b 417 576 607 489 563 576 b 226 347 271 576 226 489 b 417 118 226 206 271 118 b 607 347 563 118 607 206 m 214 964 l 619 964 l 619 840 l 214 840 "},"":{"ha":825,"x_min":0,"x_max":0,"o":"m 69 347 b 417 711 69 576 174 711 b 764 347 660 711 764 576 b 417 -17 764 118 660 -17 b 69 347 174 -17 69 118 m 607 347 b 417 576 607 489 563 576 b 226 347 271 576 226 489 b 417 118 226 206 271 118 b 607 347 563 118 607 206 m 417 764 b 163 1042 233 764 165 842 l 269 1042 b 417 888 271 936 307 888 b 564 1042 526 888 563 936 l 671 1042 b 417 764 668 842 600 764 "},"":{"ha":825,"x_min":0,"x_max":0,"o":"m 69 347 b 417 711 69 576 174 711 b 764 347 660 711 764 576 b 417 -17 764 118 660 -17 b 69 347 174 -17 69 118 m 607 347 b 417 576 607 489 563 576 b 226 347 271 576 226 489 b 417 118 226 206 271 118 b 607 347 563 118 607 206 m 417 1042 b 671 764 600 1042 668 964 l 564 764 b 417 918 563 869 526 918 b 269 764 307 918 271 869 l 163 764 b 417 1042 165 964 233 1042 "},"":{"ha":825,"x_min":0,"x_max":0,"o":"m 69 347 b 417 711 69 576 174 711 b 764 347 660 711 764 576 b 417 -17 764 118 660 -17 b 69 347 174 -17 69 118 m 607 347 b 417 576 607 489 563 576 b 226 347 271 576 226 489 b 417 118 226 206 271 118 b 607 347 563 118 607 206 m 233 764 l 314 1042 l 501 1042 l 364 764 m 469 764 l 550 1042 l 738 1042 l 600 764 "},"":{"ha":825,"x_min":0,"x_max":0,"o":"m 69 347 b 417 711 69 576 174 711 b 764 347 660 711 764 576 b 417 -17 764 118 660 -17 b 69 347 174 -17 69 118 m 607 347 b 417 576 607 489 563 576 b 226 347 271 576 226 489 b 417 118 226 206 271 118 b 607 347 563 118 607 206 m 469 764 l 332 1042 l 519 1042 l 600 764 m 233 764 l 96 1042 l 283 1042 l 364 764 "},"":{"ha":825,"x_min":0,"x_max":0,"o":"m 69 347 b 417 711 69 576 174 711 b 764 347 660 711 764 576 b 417 -17 764 118 660 -17 b 69 347 174 -17 69 118 m 607 347 b 417 576 607 489 563 576 b 226 347 271 576 226 489 b 417 118 226 206 271 118 b 607 347 563 118 607 206 m 318 764 l 408 1042 l 532 1042 l 503 764 "},"":{"ha":825,"x_min":0,"x_max":0,"o":"m 69 347 b 417 711 69 576 174 711 b 764 347 660 711 764 576 b 417 -17 764 118 660 -17 b 69 347 174 -17 69 118 m 607 347 b 417 576 607 489 563 576 b 226 347 271 576 226 489 b 417 118 226 206 271 118 b 607 347 563 118 607 206 m 214 1126 l 619 1126 l 619 1003 l 214 1003 m 699 943 b 529 749 699 831 656 749 b 306 851 407 749 379 851 b 239 776 246 851 239 811 l 135 776 b 304 971 135 889 178 971 b 528 868 426 971 454 868 b 594 943 588 868 594 908 "},"":{"ha":825,"x_min":0,"x_max":0,"o":"m 69 347 b 417 711 69 576 174 711 b 764 347 660 711 764 576 b 417 -17 764 118 660 -17 b 69 347 174 -17 69 118 m 607 347 b 417 576 607 489 563 576 b 226 347 271 576 226 489 b 417 118 226 206 271 118 b 607 347 563 118 607 206 m 315 900 b 417 1001 315 956 361 1001 b 518 900 472 1001 518 956 b 417 799 518 844 472 799 b 315 900 361 799 315 844 "},"":{"ha":825,"x_min":0,"x_max":0,"o":"m 69 347 b 417 711 69 576 174 711 b 764 347 660 711 764 576 b 417 -17 764 118 660 -17 b 69 347 174 -17 69 118 m 607 347 b 417 576 607 489 563 576 b 226 347 271 576 226 489 b 417 118 226 206 271 118 b 607 347 563 118 607 206 m 214 1126 l 619 1126 l 619 1003 l 214 1003 m 315 860 b 417 961 315 915 361 961 b 518 860 472 961 518 915 b 417 758 518 804 472 758 b 315 860 361 758 315 804 "},"":{"ha":825,"x_min":0,"x_max":0,"o":"m 69 347 b 417 711 69 576 174 711 b 764 347 660 711 764 576 b 417 -17 764 118 660 -17 b 69 347 174 -17 69 118 m 607 347 b 417 576 607 489 563 576 b 226 347 271 576 226 489 b 417 118 226 206 271 118 b 607 347 563 118 607 206 m 351 -61 b 568 -212 513 -75 568 -137 b 403 -347 568 -301 500 -347 b 268 -321 335 -347 288 -331 l 268 -215 b 382 -240 282 -221 329 -240 b 457 -199 429 -240 457 -229 b 344 -131 457 -156 421 -140 "},"":{"ha":825,"x_min":0,"x_max":0,"o":"m 69 347 b 417 711 69 576 174 711 b 764 347 660 711 764 576 b 417 -17 764 118 660 -17 b 69 347 174 -17 69 118 m 607 347 b 417 576 607 489 563 576 b 226 347 271 576 226 489 b 417 118 226 206 271 118 b 607 347 563 118 607 206 m 518 -206 b 417 -307 518 -261 472 -307 b 315 -206 361 -307 315 -261 b 417 -104 315 -150 361 -104 b 518 -206 472 -104 518 -150 "},"":{"ha":825,"x_min":0,"x_max":0,"o":"m 69 347 b 417 711 69 576 174 711 b 764 347 660 711 764 576 b 549 0 764 165 697 42 b 401 -174 472 -35 401 -89 b 479 -244 401 -215 429 -244 b 567 -232 518 -244 550 -237 l 567 -326 b 449 -347 544 -335 508 -347 b 278 -196 356 -347 278 -296 b 375 -15 278 -140 301 -75 b 69 347 161 0 69 131 m 607 347 b 417 576 607 489 563 576 b 226 347 271 576 226 489 b 417 118 226 206 271 118 b 607 347 563 118 607 206 "},"":{"ha":825,"x_min":0,"x_max":0,"o":"m 549 0 b 401 -174 472 -35 401 -89 b 479 -244 401 -215 429 -244 b 567 -232 518 -244 550 -237 l 567 -326 b 449 -347 544 -335 508 -347 b 278 -196 356 -347 278 -296 b 375 -15 278 -140 301 -75 b 69 347 161 0 69 131 b 417 711 69 576 174 711 b 764 347 660 711 764 576 b 549 0 764 165 697 42 m 607 347 b 417 576 607 489 563 576 b 226 347 271 576 226 489 b 417 118 226 206 271 118 b 607 347 563 118 607 206 m 214 964 l 619 964 l 619 840 l 214 840 "},"":{"ha":825,"x_min":0,"x_max":0,"o":"m 69 347 b 417 711 69 576 174 711 b 764 347 660 711 764 576 b 417 -17 764 118 660 -17 b 69 347 174 -17 69 118 m 607 347 b 417 576 607 489 563 576 b 226 347 271 576 226 489 b 417 118 226 206 271 118 b 607 347 563 118 607 206 m 471 -69 l 471 -347 l 363 -347 l 363 -69 "},"":{"ha":825,"x_min":0,"x_max":0,"o":"m 724 694 l 672 625 b 764 347 735 563 764 468 b 417 -17 764 118 660 -17 b 226 22 340 -17 276 -3 l 211 0 l 101 0 l 156 74 b 69 347 96 136 69 229 b 417 711 69 576 174 711 b 600 675 490 711 550 699 l 614 694 m 607 347 b 578 497 607 408 599 458 l 314 139 b 417 118 340 125 374 118 b 607 347 563 118 607 206 m 417 576 b 226 347 271 576 226 489 b 251 204 226 289 233 242 l 513 557 b 417 576 488 569 456 576 m 351 764 l 432 1042 l 619 1042 l 482 764 "},"":{"ha":825,"x_min":0,"x_max":0,"o":"m 724 694 l 672 625 b 764 347 735 563 764 468 b 417 -17 764 118 660 -17 b 226 22 340 -17 276 -3 l 211 0 l 101 0 l 156 74 b 69 347 96 136 69 229 b 417 711 69 576 174 711 b 600 675 490 711 550 699 l 614 694 m 607 347 b 578 497 607 408 599 458 l 314 139 b 417 118 340 125 374 118 b 607 347 563 118 607 206 m 417 576 b 226 347 271 576 226 489 b 251 204 226 289 233 242 l 513 557 b 417 576 488 569 456 576 "},"":{"ha":825,"x_min":0,"x_max":0,"o":"m 69 347 b 417 711 69 576 174 711 b 764 347 660 711 764 576 b 417 -17 764 118 660 -17 b 69 347 174 -17 69 118 m 417 118 b 603 285 539 118 590 181 l 229 285 b 417 118 243 181 293 118 m 417 576 b 231 419 297 576 246 518 l 601 419 b 417 576 588 518 536 576 "},"":{"ha":1068,"x_min":0,"x_max":0,"o":"m 949 285 l 647 285 l 647 138 l 993 138 l 993 0 l 406 0 b 67 347 165 0 67 135 b 406 694 67 560 165 694 l 993 694 l 993 557 l 647 557 l 647 419 l 949 419 m 410 557 b 222 347 265 557 222 471 b 410 138 222 224 265 138 l 492 138 l 492 557 "},"":{"ha":700,"x_min":0,"x_max":0,"o":"m 246 217 l 246 0 l 90 0 l 90 694 l 406 694 b 651 456 589 694 651 589 b 406 217 651 322 589 217 m 246 354 l 389 354 b 493 456 467 354 493 394 b 389 557 493 517 467 557 l 246 557 m 146 964 l 551 964 l 551 840 l 146 840 "},"":{"ha":744,"x_min":0,"x_max":0,"o":"m 246 246 l 246 0 l 90 0 l 90 694 l 424 694 b 665 469 606 694 665 596 b 549 268 665 386 635 301 l 692 0 l 511 0 l 396 246 m 501 469 b 410 557 501 513 486 557 l 246 557 l 246 383 l 410 383 b 501 469 486 385 501 426 m 292 764 l 372 1042 l 560 1042 l 422 764 "},"":{"ha":744,"x_min":0,"x_max":0,"o":"m 246 246 l 246 0 l 90 0 l 90 694 l 424 694 b 665 469 606 694 665 596 b 549 268 665 386 635 301 l 692 0 l 511 0 l 396 246 m 486 1042 l 618 1042 l 436 764 l 278 764 l 96 1042 l 228 1042 l 357 885 m 501 469 b 410 557 501 513 486 557 l 246 557 l 246 383 l 410 383 b 501 469 486 385 501 426 "},"":{"ha":744,"x_min":0,"x_max":0,"o":"m 246 246 l 246 0 l 90 0 l 90 694 l 424 694 b 665 469 606 694 665 596 b 549 268 665 386 635 301 l 692 0 l 511 0 l 396 246 m 501 469 b 410 557 501 513 486 557 l 246 557 l 246 383 l 410 383 b 501 469 486 385 501 426 m 357 1042 b 611 764 540 1042 608 964 l 504 764 b 357 918 503 869 467 918 b 210 764 247 918 211 869 l 103 764 b 357 1042 106 964 174 1042 "},"":{"ha":744,"x_min":0,"x_max":0,"o":"m 246 246 l 246 0 l 90 0 l 90 694 l 424 694 b 665 469 606 694 665 596 b 549 268 665 386 635 301 l 692 0 l 511 0 l 396 246 m 501 469 b 410 557 501 513 486 557 l 246 557 l 246 383 l 410 383 b 501 469 486 385 501 426 m 410 764 l 272 1042 l 460 1042 l 540 764 m 174 764 l 36 1042 l 224 1042 l 304 764 "},"":{"ha":744,"x_min":0,"x_max":0,"o":"m 246 246 l 246 0 l 90 0 l 90 694 l 424 694 b 665 469 606 694 665 596 b 549 268 665 386 635 301 l 692 0 l 511 0 l 396 246 m 501 469 b 410 557 501 513 486 557 l 246 557 l 246 383 l 410 383 b 501 469 486 385 501 426 m 472 -69 l 382 -347 l 258 -347 l 288 -69 "},"":{"ha":744,"x_min":0,"x_max":0,"o":"m 246 246 l 246 0 l 90 0 l 90 694 l 424 694 b 665 469 606 694 665 596 b 549 268 665 386 635 301 l 692 0 l 511 0 l 396 246 m 501 469 b 410 557 501 513 486 557 l 246 557 l 246 383 l 410 383 b 501 469 486 385 501 426 m 308 -61 b 525 -212 469 -75 525 -137 b 360 -347 525 -301 457 -347 b 225 -321 292 -347 244 -331 l 225 -215 b 339 -240 239 -221 286 -240 b 414 -199 386 -240 414 -229 b 301 -131 414 -156 378 -140 "},"":{"ha":744,"x_min":0,"x_max":0,"o":"m 246 246 l 246 0 l 90 0 l 90 694 l 424 694 b 665 469 606 694 665 596 b 549 268 665 386 635 301 l 692 0 l 511 0 l 396 246 m 501 469 b 410 557 501 513 486 557 l 246 557 l 246 383 l 410 383 b 501 469 486 385 501 426 m 475 -206 b 374 -307 475 -261 429 -307 b 272 -206 318 -307 272 -261 b 374 -104 272 -150 318 -104 b 475 -206 429 -104 475 -150 "},"":{"ha":744,"x_min":0,"x_max":0,"o":"m 246 246 l 246 0 l 90 0 l 90 694 l 424 694 b 665 469 606 694 665 596 b 549 268 665 386 635 301 l 692 0 l 511 0 l 396 246 m 501 469 b 410 557 501 513 486 557 l 246 557 l 246 383 l 410 383 b 501 469 486 385 501 426 m 475 -206 b 374 -307 475 -261 429 -307 b 272 -206 318 -307 272 -261 b 374 -104 272 -150 318 -104 b 475 -206 429 -104 475 -150 m 154 964 l 560 964 l 560 840 l 154 840 "},"":{"ha":701,"x_min":0,"x_max":0,"o":"m 363 572 b 224 489 260 572 224 547 b 363 418 224 438 263 426 b 633 208 571 400 633 356 b 324 -17 633 83 553 -17 b 83 24 254 -17 132 1 l 83 164 b 325 122 139 142 232 122 b 479 208 439 122 479 151 b 343 290 479 264 443 282 b 72 489 135 308 72 354 b 364 711 72 626 158 711 b 601 672 433 711 542 699 l 601 532 b 363 572 539 556 454 572 m 285 764 l 365 1042 l 553 1042 l 415 764 "},"":{"ha":701,"x_min":0,"x_max":0,"o":"m 363 572 b 224 489 260 572 224 547 b 363 418 224 438 263 426 b 633 208 571 400 633 356 b 324 -17 633 83 553 -17 b 83 24 254 -17 132 1 l 83 164 b 325 122 139 142 232 122 b 479 208 439 122 479 151 b 343 290 479 264 443 282 b 72 489 135 308 72 354 b 364 711 72 626 158 711 b 601 672 433 711 542 699 l 601 532 b 363 572 539 556 454 572 m 350 921 l 221 764 l 89 764 l 271 1042 l 429 1042 l 611 764 l 479 764 "},"":{"ha":701,"x_min":0,"x_max":0,"o":"m 363 572 b 224 489 260 572 224 547 b 363 418 224 438 263 426 b 633 208 571 400 633 356 b 324 -17 633 83 553 -17 b 83 24 254 -17 132 1 l 83 164 b 325 122 139 142 232 122 b 479 208 439 122 479 151 b 343 290 479 264 443 282 b 72 489 135 308 72 354 b 364 711 72 626 158 711 b 601 672 433 711 542 699 l 601 532 b 363 572 539 556 454 572 m 479 1042 l 611 1042 l 429 764 l 271 764 l 89 1042 l 221 1042 l 350 885 "},"":{"ha":701,"x_min":0,"x_max":0,"o":"m 363 572 b 224 489 260 572 224 547 b 363 418 224 438 263 426 b 633 208 571 400 633 356 b 324 -17 633 83 553 -17 b 83 24 254 -17 132 1 l 83 164 b 325 122 139 142 232 122 b 479 208 439 122 479 151 b 343 290 479 264 443 282 b 72 489 135 308 72 354 b 364 711 72 626 158 711 b 601 672 433 711 542 699 l 601 532 b 363 572 539 556 454 572 m 449 -69 l 358 -347 l 235 -347 l 264 -69 "},"":{"ha":701,"x_min":0,"x_max":0,"o":"m 290 -15 b 83 24 219 -11 125 4 l 83 164 b 325 122 139 142 232 122 b 479 208 439 122 479 151 b 343 290 479 264 443 282 b 72 489 135 308 72 354 b 364 711 72 626 158 711 b 601 672 433 711 542 699 l 601 532 b 363 572 539 556 454 572 b 224 489 260 572 224 547 b 363 418 224 438 263 426 b 633 208 571 400 633 356 b 367 -15 633 92 563 -3 l 372 -83 b 501 -212 443 -100 501 -136 b 336 -347 501 -301 433 -347 b 201 -321 268 -347 221 -331 l 201 -215 b 315 -240 215 -221 263 -240 b 390 -199 363 -240 390 -229 b 278 -131 390 -156 354 -140 "},"":{"ha":701,"x_min":0,"x_max":0,"o":"m 363 572 b 224 489 260 572 224 547 b 363 418 224 438 263 426 b 633 208 571 400 633 356 b 324 -17 633 83 553 -17 b 83 24 254 -17 132 1 l 83 164 b 325 122 139 142 232 122 b 479 208 439 122 479 151 b 343 290 479 264 443 282 b 72 489 135 308 72 354 b 364 711 72 626 158 711 b 601 672 433 711 542 699 l 601 532 b 363 572 539 556 454 572 m 451 -206 b 350 -307 451 -261 406 -307 b 249 -206 294 -307 249 -261 b 350 -104 249 -150 294 -104 b 451 -206 406 -104 451 -150 "},"":{"ha":1403,"x_min":0,"x_max":0,"o":"m 363 572 b 224 489 260 572 224 547 b 363 418 224 438 263 426 b 633 208 571 400 633 356 b 324 -17 633 83 553 -17 b 83 24 254 -17 132 1 l 83 164 b 325 122 139 142 232 122 b 479 208 439 122 479 151 b 343 290 479 264 443 282 b 72 489 135 308 72 354 b 364 711 72 626 158 711 b 601 672 433 711 542 699 l 601 532 b 363 572 539 556 454 572 m 1064 572 b 925 489 961 572 925 547 b 1064 418 925 438 964 426 b 1335 208 1272 400 1335 356 b 1025 -17 1335 83 1254 -17 b 785 24 956 -17 833 1 l 785 164 b 1026 122 840 142 933 122 b 1181 208 1140 122 1181 151 b 1044 290 1181 264 1144 282 b 774 489 836 308 774 354 b 1065 711 774 626 860 711 b 1303 672 1135 711 1243 699 l 1303 532 b 1064 572 1240 556 1156 572 "},"":{"ha":694,"x_min":0,"x_max":0,"o":"m 425 557 l 425 0 l 269 0 l 269 557 l 49 557 l 49 694 l 646 694 l 646 557 m 476 1042 l 608 1042 l 426 764 l 268 764 l 86 1042 l 218 1042 l 347 885 "},"":{"ha":690,"x_min":0,"x_max":0,"o":"m 425 557 l 425 0 l 269 0 l 269 557 l 49 557 l 49 694 l 646 694 l 646 557 m 440 -69 l 350 -347 l 226 -347 l 256 -69 "},"":{"ha":690,"x_min":0,"x_max":0,"o":"m 425 557 l 425 0 l 269 0 l 269 557 l 49 557 l 49 694 l 646 694 l 646 557 m 290 -61 b 507 -212 451 -75 507 -137 b 342 -347 507 -301 439 -347 b 207 -321 274 -347 226 -331 l 207 -215 b 321 -240 221 -221 268 -240 b 396 -199 368 -240 396 -229 b 283 -131 396 -156 360 -140 "},"":{"ha":690,"x_min":0,"x_max":0,"o":"m 425 557 l 425 0 l 269 0 l 269 557 l 49 557 l 49 694 l 646 694 l 646 557 m 449 -206 b 347 -307 449 -261 403 -307 b 246 -206 292 -307 246 -261 b 347 -104 246 -150 292 -104 b 449 -206 403 -104 449 -150 "},"":{"ha":690,"x_min":0,"x_max":0,"o":"m 118 388 l 269 388 l 269 557 l 49 557 l 49 694 l 646 694 l 646 557 l 425 557 l 425 388 l 576 388 l 576 268 l 425 268 l 425 0 l 269 0 l 269 268 l 118 268 "},"":{"ha":799,"x_min":0,"x_max":0,"o":"m 400 -17 b 85 229 188 -17 85 75 l 85 694 l 240 694 l 240 242 b 400 124 240 158 299 124 b 560 242 501 124 560 158 l 560 694 l 715 694 l 715 229 b 400 -17 715 75 613 -17 m 335 764 l 415 1042 l 603 1042 l 465 764 "}}}
